<svg xmlns="http://www.w3.org/2000/svg" width="800" height="503" viewBox="0 0 800 503">
  <g fill="none" fill-rule="evenodd" transform="translate(2 2)">
    <g transform="translate(0 11)">
      <g fill="#4253EC" transform="translate(0 259)">
        <text font-family="LucidaGrande, Lucida Grande" font-size="18">
          <tspan x="68" y="51">Server</tspan>
        </text>
        <circle cx="95" cy="95" r="95" fill-opacity=".099" stroke="#4253EC" stroke-width="3"/>
      </g>
      <text fill="#1CB08F" font-family="LucidaGrande, Lucida Grande" font-size="20">
        <tspan x="458" y="57"> IP</tspan>
      </text>
      <path fill="#1CB08F" fill-rule="nonzero" d="M495.173388,50.8199297 C511.764882,32.0661518 527.32288,19.6618943 541.884816,13.6222586 C558.092404,6.90008049 575.337982,2.40994661 592.95473,1.20088287 C615.170273,-0.323803116 636.618472,3.49071617 656.678774,13.6701778 L658.016408,14.3489513 L656.658861,17.0242207 L655.321226,16.3454472 C635.768231,6.42341409 614.858464,2.70465394 593.160141,4.19384231 C575.895181,5.37876229 558.959736,9.78814868 543.034147,16.3933664 C528.970892,22.2261714 513.775862,34.3344176 497.486325,52.7331399 L503.611761,57.7999629 L484.18131,66.3852745 L488.971331,45.6897267 L495.173388,50.8199297 Z"/>
      <text fill="#D420AB" font-family="LucidaGrande, Lucida Grande" font-size="18">
        <tspan x="543.193" y="382">CSS, IMG, JS…</tspan>
      </text>
      <circle cx="602" cy="346" r="97" fill="#4A90E2" fill-opacity=".1" stroke="#4A90E2" stroke-width="3"/>
      <text fill="#2263AE" font-family="LucidaGrande, Lucida Grande" font-size="18">
        <tspan x="569" y="277">Cache</tspan>
      </text>
    </g>
    <g transform="translate(285 89)">
      <rect width="245" height="262" x="1.5" y="1.5" fill="#FFF" stroke="#4A90E2" stroke-width="3" rx="10"/>
      <rect width="230" height="26" x="9" y="9" stroke="#4A90E2" stroke-width="2" rx="5"/>
      <text fill="#4A4A4A" font-family="Geomanist" font-size="18">
        <tspan x="16" y="28">http://google.com</tspan>
      </text>
    </g>
    <text fill="#1CB08F" font-family="LucidaGrande, Lucida Grande" font-size="18" transform="translate(536 186)">
      <tspan x="0" y="17">Find the IP</tspan>
    </text>
    <text fill="#1CB08F" font-family="LucidaGrande, Lucida Grande" font-size="18">
      <tspan x="553" y="344">DNS record</tspan>
    </text>
    <g fill="#1CB08F" transform="translate(490 140)">
      <text font-family="LucidaGrande, Lucida Grande" font-size="20">
        <tspan x="6" y="19"> IP</tspan>
      </text>
      <path fill-rule="nonzero" d="M13.1804578,42.9207826 C3.27071424,73.7530147 1.37495819,99.3034353 7.43708795,119.570142 C14.6121933,143.55771 31.2320204,164.620461 57.3557882,182.76808 L58.5877081,183.623868 L56.8761317,186.087708 L55.6442118,185.23192 C28.9932636,166.71808 11.946424,145.114165 4.56291205,120.429858 C-1.70195441,99.4853695 0.2481342,73.3099495 10.356879,41.9016888 L2.78367767,39.1683483 L18.1697439,24.5218823 L20.655277,45.6186148 L13.1804578,42.9207826 Z"/>
    </g>
    <g transform="translate(601)">
      <text fill="#1D00FF" font-family="LucidaGrande, Lucida Grande" font-size="18">
        <tspan x="76" y="32">DNS</tspan>
      </text>
      <text fill="#1D00FF" font-family="LucidaGrande, Lucida Grande" font-size="18">
        <tspan x="55" y="76">URL</tspan>
      </text>
      <text fill="#1D00FF" font-family="LucidaGrande, Lucida Grande" font-size="18">
        <tspan x="103" y="137">IP</tspan>
      </text>
      <circle cx="95" cy="95" r="95" fill="#1D00FF" fill-opacity=".1" stroke="#4253EC" stroke-width="3"/>
      <text fill="#4A4A4A" font-family="Geomanist" font-size="18">
        <tspan x="6" y="95">http://google.com</tspan>
      </text>
      <text fill="#4A4A4A" font-family="Geomanist" font-size="18">
        <tspan x="66" y="160">74.125.29.101</tspan>
      </text>
    </g>
    <path fill="#1CB08F" fill-rule="nonzero" d="M777.505957,126.921281 C798.839549,172.764731 803.162709,215.904666 790.43055,256.277914 C776.122014,301.649799 738.306519,329.386729 677.24407,339.456607 L675.76406,339.700677 L675.27592,336.740657 L676.75593,336.496587 C736.781701,326.597669 773.632873,299.568051 787.56945,255.375634 C800.054891,215.784723 795.823753,173.441919 774.831248,128.284194 L767.750923,131.892012 L767.589159,110.649982 L784.679841,123.265789 L777.505957,126.921281 Z"/>
    <g fill="#1D00FF" transform="translate(82 121)">
      <path fill-rule="nonzero" d="M4.81198415,158.012226 C20.4959435,117.412408 46.3187056,85.3113954 82.2540022,61.7456592 C123.171989,34.9123624 168.765987,21.4921875 219,21.4921875 L220.5,21.4921875 L220.5,24.4921875 L219,24.4921875 C169.346453,24.4921875 124.324835,37.7438876 83.8991516,64.2543408 C48.5258112,87.4515559 23.1204987,119.012247 7.65702597,158.972773 L15.174745,161.510917 L0.0961425478,176.473729 L-2.82694568,155.433159 L4.81198415,158.012226 Z"/>
      <text font-family="LucidaGrande, Lucida Grande" font-size="18">
        <tspan x="60.607" y="17">TCP</tspan> <tspan x="29.485" y="38">connection</tspan>
      </text>
    </g>
    <g fill="#1D00FF" transform="translate(135 170)">
      <path fill-rule="nonzero" d="M5.64910328,123.056727 C23.2172095,78.4828263 42.5545849,48.720994 63.7499597,33.7741506 C87.4898874,17.0329047 121.50147,5.48651149 165.785779,-0.903421161 L167.270403,-1.11764262 L167.698846,1.85160589 L166.214221,2.06582734 C122.360058,8.39369287 88.7812552,19.7931643 65.4788821,36.2258494 C44.8638586,50.7634328 25.8285018,80.0547798 8.46141873,124.102806 L15.9321025,126.881628 L0.404202832,141.377639 L-1.87586615,120.257713 L5.64910328,123.056727 Z"/>
      <text font-family="LucidaGrande, Lucida Grande" font-size="18">
        <tspan x="83.03" y="58">HTTP</tspan> <tspan x="73.085" y="79">request</tspan>
      </text>
    </g>
    <g fill="#1D00FF" transform="translate(168 281)">
      <path fill-rule="nonzero" d="M12.4536864,56.9736528 C23.1951155,40.1436859 33.8115215,28.2102166 44.3376844,21.1774272 C66.5988706,6.30417906 89.2604027,3.0367421 137.691724,9.60288763 L139.178126,9.80440863 L138.775084,12.7772115 L137.288682,12.5756905 C89.5189861,6.09924583 67.5688131,9.264116 46.0043021,23.6718982 C35.8902107,30.4293724 25.5582864,42.0349548 15.0430934,58.4928019 L21.8971662,62.5139681 L4.08877372,74.0946053 L5.50929939,52.899509 L12.4536864,56.9736528 Z"/>
      <text font-family="LucidaGrande, Lucida Grande" font-size="18">
        <tspan x="43.145" y="39">HTML </tspan> <tspan x="54.583" y="60">file</tspan>
      </text>
    </g>
    <g fill="#D420AB" transform="translate(19 332)">
      <path fill-rule="nonzero" d="M370.519351,17.7299977 C352.732959,59.3832914 331.743169,87.9406229 307.497039,103.370269 C286.294939,116.862769 256.304368,122.970742 224.849689,119.752663 C190.26433,116.21429 156.188734,101.843365 127.350761,77.1175753 L126.212023,76.1412169 L128.16474,73.8637408 L129.303478,74.8400992 C157.672135,99.1634957 191.17162,113.291454 225.15502,116.768242 C255.968012,119.92067 285.284168,113.950051 305.886391,100.839299 C329.53612,85.789187 350.168626,57.7267985 367.731063,16.6204683 L360.333202,13.6766748 L376.184864,-0.464570019 L377.986863,20.7015066 L370.519351,17.7299977 Z"/>
      <text font-family="LucidaGrande, Lucida Grande" font-size="18">
        <tspan x=".345" y="77"> CSS, IMG, JS…</tspan>
      </text>
    </g>
    <path fill="#1C62B4" d="M347.961426,178 L347.961426,164.992188 L351.503418,164.992188 C353.073738,164.992188 354.201657,165.257322 354.887207,165.787598 C355.572757,166.317874 355.915527,167.189447 355.915527,168.402344 C355.915527,169.785163 355.446782,170.869137 354.509277,171.654297 C353.571773,172.439457 352.271004,172.832031 350.606934,172.832031 L349.789551,172.832031 L349.789551,178 L347.961426,178 Z M349.789551,171.43457 L350.536621,171.43457 C351.63233,171.43457 352.479001,171.18262 353.07666,170.678711 C353.674319,170.174802 353.973145,169.462895 353.973145,168.542969 C353.973145,167.763668 353.738772,167.207033 353.27002,166.873047 C352.801267,166.539061 352.019048,166.37207 350.92334,166.37207 L349.789551,166.37207 L349.789551,171.43457 Z M362.885254,176.787109 C361.848139,177.742192 360.849126,178.219727 359.888184,178.219727 C359.097164,178.219727 358.440921,177.97217 357.919434,177.477051 C357.397947,176.981931 357.137207,176.356449 357.137207,175.600586 C357.137207,174.557612 357.575191,173.75635 358.451172,173.196777 C359.327153,172.637204 360.582511,172.357422 362.217285,172.357422 L362.630371,172.357422 L362.630371,171.206055 C362.630371,170.098627 362.062017,169.544922 360.925293,169.544922 C360.011226,169.544922 359.023931,169.826169 357.963379,170.388672 L357.963379,168.956055 C359.1294,168.481443 360.222163,168.244141 361.241699,168.244141 C362.308111,168.244141 363.094724,168.484373 363.601562,168.964844 C364.108401,169.445315 364.361816,170.192378 364.361816,171.206055 L364.361816,175.530273 C364.361816,176.520513 364.666501,177.015625 365.275879,177.015625 C365.352051,177.015625 365.463378,177.003906 365.609863,176.980469 L365.73291,177.938477 C365.34033,178.125978 364.906741,178.219727 364.432129,178.219727 C363.623531,178.219727 363.107911,177.742192 362.885254,176.787109 Z M362.630371,175.84668 L362.630371,173.376953 L362.050293,173.359375 C361.101069,173.359375 360.333499,173.539549 359.747559,173.899902 C359.161618,174.260256 358.868652,174.733396 358.868652,175.319336 C358.868652,175.735354 359.015135,176.086913 359.308105,176.374023 C359.601076,176.661134 359.958494,176.804688 360.380371,176.804688 C361.101078,176.804688 361.85107,176.485355 362.630371,175.84668 Z M367.903809,178 L367.903809,168.455078 L369.635254,168.455078 L369.635254,170.248047 C370.320804,168.912103 371.316888,168.244141 372.623535,168.244141 C372.799317,168.244141 372.983886,168.258789 373.177246,168.288086 L373.177246,169.905273 C372.878416,169.805664 372.614747,169.755859 372.38623,169.755859 C371.290522,169.755859 370.373539,170.406243 369.635254,171.707031 L369.635254,178 L367.903809,178 Z M377.800293,178.219727 C377.009273,178.219727 376.048345,178.035158 374.91748,177.666016 L374.91748,176.075195 C376.048345,176.637698 377.032711,176.918945 377.870605,176.918945 C378.368655,176.918945 378.781737,176.784181 379.109863,176.514648 C379.43799,176.245116 379.602051,175.908205 379.602051,175.503906 C379.602051,174.912106 379.142094,174.422853 378.222168,174.036133 L377.211426,173.605469 C375.717278,172.984372 374.970215,172.090826 374.970215,170.924805 C374.970215,170.092769 375.264645,169.437991 375.853516,168.960449 C376.442386,168.482908 377.249507,168.244141 378.274902,168.244141 C378.808108,168.244141 379.467281,168.317382 380.252441,168.463867 L380.612793,168.53418 L380.612793,169.975586 C379.645991,169.688475 378.878421,169.544922 378.310059,169.544922 C377.196772,169.544922 376.640137,169.949215 376.640137,170.757812 C376.640137,171.279299 377.062007,171.718748 377.905762,172.076172 L378.740723,172.427734 C379.684087,172.826174 380.352049,173.24658 380.744629,173.688965 C381.137209,174.13135 381.333496,174.68359 381.333496,175.345703 C381.333496,176.183598 381.002445,176.872068 380.340332,177.411133 C379.678219,177.950198 378.831548,178.219727 377.800293,178.219727 Z M384.444824,178 L384.444824,168.455078 L386.17627,168.455078 L386.17627,178 L384.444824,178 Z M384.444824,166.723633 L384.444824,164.992188 L386.17627,164.992188 L386.17627,166.723633 L384.444824,166.723633 Z M389.647949,178 L389.647949,168.455078 L391.379395,168.455078 L391.379395,170.248047 C392.293462,168.912103 393.412591,168.244141 394.736816,168.244141 C395.562992,168.244141 396.222166,168.506345 396.714355,169.030762 C397.206545,169.555178 397.452637,170.259761 397.452637,171.144531 L397.452637,178 L395.721191,178 L395.721191,171.707031 C395.721191,170.998043 395.617189,170.492677 395.40918,170.190918 C395.201171,169.889159 394.856936,169.738281 394.376465,169.738281 C393.315913,169.738281 392.316899,170.43261 391.379395,171.821289 L391.379395,178 L389.647949,178 Z M400.854004,181.172852 L401.056152,179.669922 C402.05811,180.144534 403.045405,180.381836 404.018066,180.381836 C405.969248,180.381836 406.944824,179.347667 406.944824,177.279297 L406.944824,175.776367 C406.306149,177.112311 405.257332,177.780273 403.79834,177.780273 C402.655756,177.780273 401.747562,177.364262 401.07373,176.532227 C400.399899,175.700191 400.062988,174.578132 400.062988,173.166016 C400.062988,171.712883 400.446774,170.529301 401.214355,169.615234 C401.981937,168.701167 402.975092,168.244141 404.193848,168.244141 C405.260259,168.244141 406.177242,168.67773 406.944824,169.544922 L406.944824,168.455078 L408.685059,168.455078 L408.685059,175.398438 C408.685059,176.892586 408.607423,177.998532 408.452148,178.716309 C408.296874,179.434086 408.005373,180.021482 407.577637,180.478516 C406.821774,181.281254 405.646981,181.682617 404.053223,181.682617 C402.939936,181.682617 401.87354,181.512697 400.854004,181.172852 Z M406.944824,174.695312 L406.944824,170.731445 C406.183102,169.940426 405.354008,169.544922 404.45752,169.544922 C403.660641,169.544922 403.036623,169.864255 402.585449,170.50293 C402.134275,171.141605 401.908691,172.017573 401.908691,173.130859 C401.908691,175.222667 402.644036,176.268555 404.114746,176.268555 C405.116704,176.268555 406.060054,175.744146 406.944824,174.695312 Z M417.685059,178 L417.685059,164.992188 L419.530762,164.992188 L419.530762,170.476562 L425.718262,170.476562 L425.718262,164.992188 L427.563965,164.992188 L427.563965,178 L425.718262,178 L425.718262,171.856445 L419.530762,171.856445 L419.530762,178 L417.685059,178 Z M434.006348,178 L434.006348,166.37207 L429.39209,166.37207 L429.39209,164.992188 L440.466309,164.992188 L440.466309,166.37207 L435.852051,166.37207 L435.852051,178 L434.006348,178 Z M442.294434,178 L442.294434,164.992188 L444.852051,164.992188 L448.455566,175.055664 L452.164551,164.992188 L454.449707,164.992188 L454.449707,178 L452.727051,178 L452.727051,167.417969 L449.141113,177.129883 L447.356934,177.129883 L443.876465,167.391602 L443.876465,178 L442.294434,178 Z M457.79834,178 L457.79834,164.992188 L459.644043,164.992188 L459.644043,176.620117 L465.497559,176.620117 L465.497559,178 L457.79834,178 Z"/>
    <path fill="#D420AB" fill-rule="nonzero" d="M517.454479 379.712659C505.434937 377.180802 495.892286 371.941427 488.87547 363.992689 478.709406 352.476445 471.926326 339.24944 468.537275 324.332319L468.204956 322.869595 471.130405 322.204956 471.462725 323.667681C474.74034 338.09431 481.290594 350.867305 491.12453 362.007311 497.625749 369.371973 506.47391 374.270475 517.716386 376.701032L518.392598 368.925146 536.49812 380.035505 516.74652 387.853707 517.454487 379.712661zM505.430587 318.800415C516.716636 324.414909 524.915495 329.694618 530.044784 334.673697 537.5054 341.915833 542.963406 352.917126 546.459491 367.653754L546.805737 369.113244 543.886756 369.805737 543.540509 368.346246C540.165999 354.122077 534.957338 343.62337 527.955216 336.826303 523.100234 332.113496 515.174144 327.005526 504.194392 321.536205L500.923449 328.775037 487.52087 312.294113 508.747157 311.460604 505.430587 318.800415z"/>
    <path fill="#1CB08F" fill-rule="nonzero" d="M651.802228,273.918227 C643.619415,223.741532 631.136959,187.054354 614.409027,163.877869 C595.772666,138.057262 565.891001,120.746563 524.687403,111.967066 L523.220337,111.65447 L523.84553,108.720337 L525.312597,109.032934 C567.197551,117.957611 597.73276,135.646913 616.841595,162.122131 C633.894773,185.749244 646.519736,222.862109 654.770706,273.481921 L662.708795,272.315182 L656.072709,292.494685 L643.910758,275.078114 L651.802228,273.918227 Z"/>
    <g transform="translate(336 142)">
      <text fill="#1C62B4" font-family="LucidaGrande, Lucida Grande" font-size="18">
        <tspan x="12.145" y="70">Render HTML</tspan>
      </text>
      <rect width="143" height="87" x="1.5" y="1.5" stroke="#979797" stroke-width="3"/>
      <rect width="69" height="87" x="1.5" y="93.5" stroke="#979797" stroke-width="3"/>
      <rect width="69" height="87" x="75.5" y="93.5" stroke="#979797" stroke-width="3"/>
    </g>
    <path fill="#D420AB" fill-rule="nonzero" d="M138.115886,430.564629 C187.074579,463.231914 229.144112,483.028599 264.290619,489.969609 C338.715433,504.66761 406.941919,498.620381 469.295134,465.42679 C492.052153,453.312143 512.861696,430.272722 531.687742,396.273379 L532.414363,394.961121 L535.038879,396.414363 L534.312258,397.726621 C515.227692,432.192847 494.037235,455.653999 470.704866,468.074932 C407.678994,501.62661 338.763025,507.734952 263.709381,492.912765 C228.110861,485.882488 185.692027,465.919554 136.418991,433.038897 L131.883688,439.651891 L121.587655,421.07121 L142.62982,423.982793 L138.115886,430.564629 Z"/>
  </g>
</svg>
