<svg xmlns="http://www.w3.org/2000/svg" width="24" height="67" viewBox="0 0 24 67">
  <g fill="none" fill-rule="evenodd" stroke="#5A5AFF">
    <rect width="21" height="32" x="1.5" y="1.5" stroke-width="3" rx="10.5"/>
    <path fill="#5A5AFF" d="M12,7.57692308 C12.7859437,7.57692308 13.4230769,8.21405632 13.4230769,9 L13.4230769,14.3333333 C13.4230769,15.119277 12.7859437,15.7564103 12,15.7564103 C11.2140563,15.7564103 10.5769231,15.119277 10.5769231,14.3333333 L10.5769231,9 C10.5769231,8.21405632 11.2140563,7.57692308 12,7.57692308 Z"/>
    <path fill="#5A5AFF" fill-rule="nonzero" d="M16.9378863,60.1502843 L10.2619528,60.1539843 L12.3655296,57.8696054 C12.4685377,57.7580778 12.5250417,57.6069957 12.5250417,57.4484256 C12.5250417,57.2898554 12.4685377,57.1398305 12.3655296,57.0280385 L12.0382126,56.6731938 C11.9352858,56.5616662 11.7981313,56.5 11.6518712,56.5 C11.5055298,56.5 11.368294,56.5612257 11.2653672,56.6727533 L7.65943304,60.579657 C7.55609973,60.6916251 7.49959567,60.8407692 7.50000218,60.9994274 C7.49959567,61.1589666 7.55609973,61.3081987 7.65943304,61.4199906 L11.2653672,65.3272467 C11.368294,65.4386862 11.5054485,65.5 11.6518712,65.5 C11.7981313,65.5 11.9352858,65.4385981 12.0382126,65.3272467 L12.3655296,64.9724019 C12.4685377,64.8610505 12.5250417,64.7123469 12.5250417,64.5537768 C12.5250417,64.3952948 12.4685377,64.2544316 12.3655296,64.1429921 L10.238213,61.8458395 L16.945366,61.8458395 C17.246748,61.8458395 17.5,61.5643775 17.5,61.2379873 L17.5,60.7361129 C17.5,60.4097227 17.2392683,60.1502843 16.9378863,60.1502843 Z" transform="rotate(-90 12.5 61)"/>
  </g>
</svg>
