<svg xmlns="http://www.w3.org/2000/svg" width="711" height="551" viewBox="0 0 711 551">
  <g fill="none" fill-rule="evenodd" transform="translate(5 -10)">
    <g transform="translate(0 62)">
      <g transform="translate(26 16)">
        <g transform="translate(100 323)">
          <circle cx="49" cy="49" r="49" fill="#C55D74"/>
          <path fill="#FFF" d="M23.48,42.576 L24.776,42.576 L24.776,54 L23.48,54 L23.48,42.576 Z M29.224,43.056 L29.224,45.728 L31.272,45.728 L31.272,46.8 L29.224,46.8 L29.224,52.064 C29.224,52.368 29.272,52.592 29.4,52.72 C29.512,52.848 29.72,52.928 30.008,52.928 L31.064,52.928 L31.064,54 L29.816,54 C29.144,54 28.648,53.824 28.36,53.472 C28.088,53.152 27.96,52.688 27.96,52.064 L27.96,46.8 L26.296,46.8 L26.296,45.728 L27.96,45.728 L27.96,43.584 L29.224,43.056 Z M36.296,45.504 C37.48,45.504 38.344,45.808 38.92,46.432 C39.4,46.976 39.656,47.728 39.656,48.688 L39.656,54 L38.456,54 L38.456,52.608 C38.136,53.056 37.704,53.424 37.192,53.712 C36.584,54.048 35.896,54.224 35.128,54.224 C34.296,54.224 33.64,54.016 33.144,53.6 C32.632,53.168 32.376,52.608 32.376,51.936 C32.376,50.992 32.744,50.288 33.512,49.808 C34.184,49.36 35.144,49.12 36.392,49.104 L38.376,49.072 L38.376,48.64 C38.376,47.248 37.656,46.56 36.216,46.56 C35.608,46.56 35.112,46.672 34.728,46.928 C34.296,47.184 34.024,47.584 33.896,48.112 L32.632,48.016 C32.808,47.152 33.24,46.496 33.912,46.08 C34.52,45.696 35.304,45.504 36.296,45.504 Z M38.376,50.032 L36.472,50.064 C34.616,50.096 33.688,50.704 33.688,51.904 C33.688,52.288 33.832,52.592 34.152,52.848 C34.472,53.088 34.888,53.216 35.4,53.216 C36.184,53.216 36.872,52.96 37.48,52.448 C38.072,51.952 38.376,51.376 38.376,50.736 L38.376,50.032 Z M41.896,42.352 L43.16,42.352 L43.16,54 L41.896,54 L41.896,42.352 Z M46.456,42.608 C46.728,42.608 46.952,42.688 47.144,42.88 C47.336,43.04 47.432,43.264 47.432,43.552 C47.432,43.824 47.336,44.048 47.144,44.24 C46.952,44.416 46.728,44.512 46.456,44.512 C46.184,44.512 45.96,44.416 45.768,44.24 C45.576,44.048 45.496,43.824 45.496,43.552 C45.496,43.264 45.576,43.04 45.768,42.88 C45.96,42.688 46.184,42.608 46.456,42.608 Z M45.816,45.728 L47.096,45.728 L47.096,54 L45.816,54 L45.816,45.728 Z M53.096,45.504 C54.28,45.504 55.144,45.808 55.72,46.432 C56.2,46.976 56.456,47.728 56.456,48.688 L56.456,54 L55.256,54 L55.256,52.608 C54.936,53.056 54.504,53.424 53.992,53.712 C53.384,54.048 52.696,54.224 51.928,54.224 C51.096,54.224 50.44,54.016 49.944,53.6 C49.432,53.168 49.176,52.608 49.176,51.936 C49.176,50.992 49.544,50.288 50.312,49.808 C50.984,49.36 51.944,49.12 53.192,49.104 L55.176,49.072 L55.176,48.64 C55.176,47.248 54.456,46.56 53.016,46.56 C52.408,46.56 51.912,46.672 51.528,46.928 C51.096,47.184 50.824,47.584 50.696,48.112 L49.432,48.016 C49.608,47.152 50.04,46.496 50.712,46.08 C51.32,45.696 52.104,45.504 53.096,45.504 Z M55.176,50.032 L53.272,50.064 C51.416,50.096 50.488,50.704 50.488,51.904 C50.488,52.288 50.632,52.592 50.952,52.848 C51.272,53.088 51.688,53.216 52.2,53.216 C52.984,53.216 53.672,52.96 54.28,52.448 C54.872,51.952 55.176,51.376 55.176,50.736 L55.176,50.032 Z M62.312,45.504 C64.36,45.504 65.4,46.64 65.4,48.912 L65.4,54 L64.12,54 L64.12,49.008 C64.12,47.392 63.384,46.592 61.944,46.592 C61.368,46.592 60.872,46.8 60.456,47.216 C60.008,47.664 59.768,48.256 59.72,49.008 L59.72,54 L58.44,54 L58.44,45.728 L59.72,45.728 L59.72,46.944 C60.008,46.48 60.376,46.128 60.824,45.888 C61.272,45.632 61.768,45.504 62.312,45.504 Z M71.08,45.504 C72.312,45.504 73.304,45.92 74.04,46.784 C74.744,47.6 75.096,48.624 75.096,49.872 C75.096,51.104 74.744,52.128 74.056,52.928 C73.304,53.792 72.312,54.224 71.08,54.224 C69.832,54.224 68.856,53.792 68.12,52.928 C67.416,52.128 67.064,51.104 67.064,49.872 C67.064,48.624 67.416,47.6 68.12,46.784 C68.856,45.92 69.832,45.504 71.08,45.504 Z M71.08,46.576 C70.2,46.576 69.512,46.912 69.032,47.584 C68.584,48.192 68.376,48.944 68.376,49.872 C68.376,50.784 68.584,51.536 69.032,52.144 C69.512,52.816 70.2,53.152 71.08,53.152 C71.944,53.152 72.632,52.816 73.144,52.144 C73.576,51.536 73.8,50.768 73.8,49.872 C73.8,48.944 73.576,48.192 73.144,47.584 C72.632,46.912 71.944,46.576 71.08,46.576 Z"/>
        </g>
        <g transform="translate(218 127)">
          <circle cx="49" cy="49" r="49" fill="#39C2D7"/>
          <path fill="#FFF" d="M21.316,31.576 L29.412,31.576 L29.412,32.712 L22.628,32.712 L22.628,36.536 L29.028,36.536 L29.028,37.672 L22.628,37.672 L22.628,41.864 L29.684,41.864 L29.684,43 L21.316,43 L21.316,31.576 Z M34.276,34.504 C36.324,34.504 37.444,35.352 37.668,37.08 L36.42,37.08 C36.308,36.568 36.1,36.184 35.78,35.96 C35.428,35.704 34.916,35.576 34.26,35.576 C33.684,35.576 33.236,35.672 32.916,35.896 C32.564,36.104 32.388,36.392 32.388,36.76 C32.388,37.112 32.612,37.416 33.092,37.656 C33.396,37.8 33.972,37.976 34.804,38.2 C35.796,38.44 36.5,38.696 36.932,38.968 C37.588,39.384 37.924,39.944 37.924,40.664 C37.924,42.36 36.756,43.224 34.42,43.224 C32.244,43.224 31.06,42.264 30.868,40.36 L32.116,40.36 C32.212,41.016 32.452,41.48 32.804,41.768 C33.156,42.024 33.684,42.152 34.388,42.152 C35.86,42.152 36.612,41.672 36.612,40.744 C36.612,40.28 36.34,39.928 35.828,39.672 C35.556,39.544 34.964,39.368 34.068,39.144 C33.092,38.904 32.404,38.664 32.02,38.408 C31.38,38.024 31.076,37.496 31.076,36.792 C31.076,36.088 31.38,35.544 32.004,35.128 C32.58,34.712 33.348,34.504 34.276,34.504 Z M43.38,34.504 C44.564,34.504 45.508,34.936 46.196,35.832 C46.82,36.632 47.14,37.64 47.14,38.888 C47.14,40.104 46.82,41.112 46.212,41.912 C45.54,42.776 44.628,43.224 43.444,43.224 C42.26,43.224 41.348,42.648 40.708,41.496 L40.708,46.168 L39.428,46.168 L39.428,34.728 L40.628,34.728 L40.628,36.088 C41.22,35.032 42.132,34.504 43.38,34.504 Z M43.22,35.56 C42.388,35.56 41.732,35.88 41.284,36.536 C40.868,37.112 40.66,37.88 40.66,38.808 L40.66,38.968 C40.66,39.928 40.884,40.696 41.364,41.288 C41.812,41.864 42.404,42.168 43.172,42.168 C44.068,42.168 44.74,41.848 45.204,41.24 C45.62,40.664 45.828,39.88 45.828,38.888 C45.828,37.912 45.62,37.128 45.236,36.552 C44.772,35.88 44.1,35.56 43.22,35.56 Z M52.404,34.504 C53.588,34.504 54.452,34.808 55.028,35.432 C55.508,35.976 55.764,36.728 55.764,37.688 L55.764,43 L54.564,43 L54.564,41.608 C54.244,42.056 53.812,42.424 53.3,42.712 C52.692,43.048 52.004,43.224 51.236,43.224 C50.404,43.224 49.748,43.016 49.252,42.6 C48.74,42.168 48.484,41.608 48.484,40.936 C48.484,39.992 48.852,39.288 49.62,38.808 C50.292,38.36 51.252,38.12 52.5,38.104 L54.484,38.072 L54.484,37.64 C54.484,36.248 53.764,35.56 52.324,35.56 C51.716,35.56 51.22,35.672 50.836,35.928 C50.404,36.184 50.132,36.584 50.004,37.112 L48.74,37.016 C48.916,36.152 49.348,35.496 50.02,35.08 C50.628,34.696 51.412,34.504 52.404,34.504 Z M54.484,39.032 L52.58,39.064 C50.724,39.096 49.796,39.704 49.796,40.904 C49.796,41.288 49.94,41.592 50.26,41.848 C50.58,42.088 50.996,42.216 51.508,42.216 C52.292,42.216 52.98,41.96 53.588,41.448 C54.18,40.952 54.484,40.376 54.484,39.736 L54.484,39.032 Z M60.148,31.816 C60.436,31.816 60.82,31.928 61.268,32.168 C61.716,32.408 62.052,32.536 62.292,32.536 C62.532,32.536 62.788,32.328 63.076,31.928 L63.668,32.392 C63.284,33.016 62.836,33.336 62.324,33.336 C62.004,33.336 61.636,33.208 61.188,32.968 C60.74,32.728 60.404,32.616 60.196,32.616 C59.94,32.616 59.668,32.808 59.38,33.208 L58.804,32.76 C59.204,32.12 59.652,31.816 60.148,31.816 Z M61.62,34.504 C63.668,34.504 64.708,35.64 64.708,37.912 L64.708,43 L63.428,43 L63.428,38.008 C63.428,36.392 62.692,35.592 61.252,35.592 C60.676,35.592 60.18,35.8 59.764,36.216 C59.316,36.664 59.076,37.256 59.028,38.008 L59.028,43 L57.748,43 L57.748,34.728 L59.028,34.728 L59.028,35.944 C59.316,35.48 59.684,35.128 60.132,34.888 C60.58,34.632 61.076,34.504 61.62,34.504 Z M70.388,34.504 C71.62,34.504 72.612,34.92 73.348,35.784 C74.052,36.6 74.404,37.624 74.404,38.872 C74.404,40.104 74.052,41.128 73.364,41.928 C72.612,42.792 71.62,43.224 70.388,43.224 C69.14,43.224 68.164,42.792 67.428,41.928 C66.724,41.128 66.372,40.104 66.372,38.872 C66.372,37.624 66.724,36.6 67.428,35.784 C68.164,34.92 69.14,34.504 70.388,34.504 Z M70.388,35.576 C69.508,35.576 68.82,35.912 68.34,36.584 C67.892,37.192 67.684,37.944 67.684,38.872 C67.684,39.784 67.892,40.536 68.34,41.144 C68.82,41.816 69.508,42.152 70.388,42.152 C71.252,42.152 71.94,41.816 72.452,41.144 C72.884,40.536 73.108,39.768 73.108,38.872 C73.108,37.944 72.884,37.192 72.452,36.584 C71.94,35.912 71.252,35.576 70.388,35.576 Z M76.324,31.352 L77.588,31.352 L77.588,43 L76.324,43 L76.324,31.352 Z M19.604,53.576 L21.124,53.576 L25.62,65 L24.196,65 L22.98,61.8 L17.732,61.8 L16.516,65 L15.108,65 L19.604,53.576 Z M18.148,60.696 L22.564,60.696 L20.404,54.984 L20.34,54.984 L18.148,60.696 Z M30.228,56.504 C31.492,56.504 32.356,57.016 32.82,58.072 C33.14,57.528 33.524,57.128 33.972,56.888 C34.372,56.632 34.852,56.504 35.428,56.504 C36.292,56.504 36.98,56.776 37.524,57.32 C38.036,57.88 38.308,58.632 38.308,59.576 L38.308,65 L37.028,65 L37.028,59.784 C37.028,59.048 36.868,58.504 36.564,58.152 C36.244,57.768 35.732,57.592 35.028,57.592 C34.484,57.592 34.02,57.784 33.668,58.2 C33.284,58.616 33.108,59.144 33.108,59.816 L33.108,65 L31.828,65 L31.828,59.784 C31.828,58.312 31.188,57.592 29.924,57.592 C29.332,57.592 28.852,57.816 28.468,58.296 C28.084,58.744 27.892,59.304 27.892,59.96 L27.892,65 L26.612,65 L26.612,56.728 L27.892,56.728 L27.892,57.832 C28.516,56.936 29.3,56.504 30.228,56.504 Z M43.7,56.504 C45.028,56.504 46.036,56.952 46.708,57.848 C47.316,58.648 47.636,59.784 47.668,61.224 L41.14,61.224 C41.204,62.152 41.444,62.872 41.892,63.384 C42.34,63.896 42.964,64.152 43.748,64.152 C44.42,64.152 44.98,63.976 45.396,63.64 C45.748,63.352 46.02,62.92 46.228,62.344 L47.508,62.344 C47.316,63.144 46.948,63.784 46.388,64.296 C45.7,64.904 44.82,65.224 43.748,65.224 C42.564,65.224 41.604,64.824 40.9,64.056 C40.164,63.256 39.812,62.2 39.812,60.856 C39.812,59.64 40.148,58.616 40.852,57.8 C41.556,56.936 42.5,56.504 43.7,56.504 Z M43.732,57.576 C42.996,57.576 42.404,57.816 41.956,58.296 C41.508,58.776 41.252,59.416 41.172,60.232 L46.34,60.232 C46.18,58.456 45.3,57.576 43.732,57.576 Z M52.804,56.504 C53.252,56.504 53.636,56.568 53.94,56.696 L53.94,57.976 C53.524,57.848 53.108,57.8 52.708,57.8 C52.068,57.8 51.524,58.072 51.092,58.648 C50.644,59.192 50.436,59.848 50.436,60.616 L50.436,65 L49.172,65 L49.172,56.728 L50.436,56.728 L50.436,58.168 C50.66,57.688 50.948,57.304 51.3,57.032 C51.732,56.68 52.228,56.504 52.804,56.504 Z M56.068,53.608 C56.34,53.608 56.564,53.688 56.756,53.88 C56.948,54.04 57.044,54.264 57.044,54.552 C57.044,54.824 56.948,55.048 56.756,55.24 C56.564,55.416 56.34,55.512 56.068,55.512 C55.796,55.512 55.572,55.416 55.38,55.24 C55.188,55.048 55.108,54.824 55.108,54.552 C55.108,54.264 55.188,54.04 55.38,53.88 C55.572,53.688 55.796,53.608 56.068,53.608 Z M55.428,56.728 L56.708,56.728 L56.708,65 L55.428,65 L55.428,56.728 Z M62.676,56.504 C63.7,56.504 64.516,56.744 65.14,57.224 C65.78,57.72 66.164,58.472 66.308,59.48 L65.044,59.48 C64.932,58.84 64.676,58.36 64.276,58.04 C63.86,57.72 63.332,57.576 62.676,57.576 C61.876,57.576 61.236,57.88 60.772,58.488 C60.324,59.08 60.1,59.88 60.1,60.888 C60.1,61.896 60.308,62.696 60.756,63.272 C61.188,63.848 61.828,64.152 62.66,64.152 C64.068,64.152 64.884,63.432 65.076,62.008 L66.356,62.008 C66.164,63.064 65.764,63.88 65.124,64.424 C64.5,64.952 63.684,65.224 62.66,65.224 C61.412,65.224 60.452,64.808 59.764,63.976 C59.108,63.192 58.788,62.168 58.788,60.904 C58.788,59.64 59.108,58.616 59.764,57.816 C60.468,56.936 61.444,56.504 62.676,56.504 Z M71.46,56.504 C72.644,56.504 73.508,56.808 74.084,57.432 C74.564,57.976 74.82,58.728 74.82,59.688 L74.82,65 L73.62,65 L73.62,63.608 C73.3,64.056 72.868,64.424 72.356,64.712 C71.748,65.048 71.06,65.224 70.292,65.224 C69.46,65.224 68.804,65.016 68.308,64.6 C67.796,64.168 67.54,63.608 67.54,62.936 C67.54,61.992 67.908,61.288 68.676,60.808 C69.348,60.36 70.308,60.12 71.556,60.104 L73.54,60.072 L73.54,59.64 C73.54,58.248 72.82,57.56 71.38,57.56 C70.772,57.56 70.276,57.672 69.892,57.928 C69.46,58.184 69.188,58.584 69.06,59.112 L67.796,59.016 C67.972,58.152 68.404,57.496 69.076,57.08 C69.684,56.696 70.468,56.504 71.46,56.504 Z M73.54,61.032 L71.636,61.064 C69.78,61.096 68.852,61.704 68.852,62.904 C68.852,63.288 68.996,63.592 69.316,63.848 C69.636,64.088 70.052,64.216 70.564,64.216 C71.348,64.216 72.036,63.96 72.644,63.448 C73.236,62.952 73.54,62.376 73.54,61.736 L73.54,61.032 Z M79.732,56.504 C81.78,56.504 82.9,57.352 83.124,59.08 L81.876,59.08 C81.764,58.568 81.556,58.184 81.236,57.96 C80.884,57.704 80.372,57.576 79.716,57.576 C79.14,57.576 78.692,57.672 78.372,57.896 C78.02,58.104 77.844,58.392 77.844,58.76 C77.844,59.112 78.068,59.416 78.548,59.656 C78.852,59.8 79.428,59.976 80.26,60.2 C81.252,60.44 81.956,60.696 82.388,60.968 C83.044,61.384 83.38,61.944 83.38,62.664 C83.38,64.36 82.212,65.224 79.876,65.224 C77.7,65.224 76.516,64.264 76.324,62.36 L77.572,62.36 C77.668,63.016 77.908,63.48 78.26,63.768 C78.612,64.024 79.14,64.152 79.844,64.152 C81.316,64.152 82.068,63.672 82.068,62.744 C82.068,62.28 81.796,61.928 81.284,61.672 C81.012,61.544 80.42,61.368 79.524,61.144 C78.548,60.904 77.86,60.664 77.476,60.408 C76.836,60.024 76.532,59.496 76.532,58.792 C76.532,58.088 76.836,57.544 77.46,57.128 C78.036,56.712 78.804,56.504 79.732,56.504 Z"/>
        </g>
        <g transform="translate(338 108)">
          <circle cx="49" cy="49" r="49" fill="#CEDB56" stroke="#CEDB56" stroke-width="3"/>
          <path fill="#FFF" d="M18.152,42.576 L25.8,42.576 L25.8,43.712 L19.464,43.712 L19.464,47.552 L25.464,47.552 L25.464,48.688 L19.464,48.688 L19.464,54 L18.152,54 L18.152,42.576 Z M30.856,45.504 C31.304,45.504 31.688,45.568 31.992,45.696 L31.992,46.976 C31.576,46.848 31.16,46.8 30.76,46.8 C30.12,46.8 29.576,47.072 29.144,47.648 C28.696,48.192 28.488,48.848 28.488,49.616 L28.488,54 L27.224,54 L27.224,45.728 L28.488,45.728 L28.488,47.168 C28.712,46.688 29,46.304 29.352,46.032 C29.784,45.68 30.28,45.504 30.856,45.504 Z M36.664,45.504 C37.848,45.504 38.712,45.808 39.288,46.432 C39.768,46.976 40.024,47.728 40.024,48.688 L40.024,54 L38.824,54 L38.824,52.608 C38.504,53.056 38.072,53.424 37.56,53.712 C36.952,54.048 36.264,54.224 35.496,54.224 C34.664,54.224 34.008,54.016 33.512,53.6 C33,53.168 32.744,52.608 32.744,51.936 C32.744,50.992 33.112,50.288 33.88,49.808 C34.552,49.36 35.512,49.12 36.76,49.104 L38.744,49.072 L38.744,48.64 C38.744,47.248 38.024,46.56 36.584,46.56 C35.976,46.56 35.48,46.672 35.096,46.928 C34.664,47.184 34.392,47.584 34.264,48.112 L33,48.016 C33.176,47.152 33.608,46.496 34.28,46.08 C34.888,45.696 35.672,45.504 36.664,45.504 Z M38.744,50.032 L36.84,50.064 C34.984,50.096 34.056,50.704 34.056,51.904 C34.056,52.288 34.2,52.592 34.52,52.848 C34.84,53.088 35.256,53.216 35.768,53.216 C36.552,53.216 37.24,52.96 37.848,52.448 C38.44,51.952 38.744,51.376 38.744,50.736 L38.744,50.032 Z M45.88,45.504 C47.928,45.504 48.968,46.64 48.968,48.912 L48.968,54 L47.688,54 L47.688,49.008 C47.688,47.392 46.952,46.592 45.512,46.592 C44.936,46.592 44.44,46.8 44.024,47.216 C43.576,47.664 43.336,48.256 43.288,49.008 L43.288,54 L42.008,54 L42.008,45.728 L43.288,45.728 L43.288,46.944 C43.576,46.48 43.944,46.128 44.392,45.888 C44.84,45.632 45.336,45.504 45.88,45.504 Z M54.52,45.504 C55.544,45.504 56.36,45.744 56.984,46.224 C57.624,46.72 58.008,47.472 58.152,48.48 L56.888,48.48 C56.776,47.84 56.52,47.36 56.12,47.04 C55.704,46.72 55.176,46.576 54.52,46.576 C53.72,46.576 53.08,46.88 52.616,47.488 C52.168,48.08 51.944,48.88 51.944,49.888 C51.944,50.896 52.152,51.696 52.6,52.272 C53.032,52.848 53.672,53.152 54.504,53.152 C55.912,53.152 56.728,52.432 56.92,51.008 L58.2,51.008 C58.008,52.064 57.608,52.88 56.968,53.424 C56.408,53.888 55.704,54.144 54.84,54.208 L54.616,54.848 C54.776,54.832 54.904,54.832 54.968,54.832 C55.368,54.832 55.704,54.928 55.96,55.12 C56.248,55.312 56.392,55.616 56.392,56.016 C56.392,56.512 56.184,56.88 55.768,57.12 C55.448,57.296 55.016,57.392 54.504,57.392 C53.976,57.392 53.464,57.264 52.984,57.008 L53.224,56.512 C53.64,56.704 54.024,56.816 54.392,56.816 C54.744,56.816 55.032,56.736 55.224,56.608 C55.4,56.48 55.496,56.288 55.496,56.032 C55.496,55.568 55.144,55.344 54.456,55.344 C54.312,55.344 54.072,55.36 53.736,55.408 L54.168,54.208 C53.08,54.144 52.232,53.728 51.608,52.976 C50.952,52.192 50.632,51.168 50.632,49.904 C50.632,48.64 50.952,47.616 51.608,46.816 C52.312,45.936 53.288,45.504 54.52,45.504 Z M63.304,45.504 C64.488,45.504 65.352,45.808 65.928,46.432 C66.408,46.976 66.664,47.728 66.664,48.688 L66.664,54 L65.464,54 L65.464,52.608 C65.144,53.056 64.712,53.424 64.2,53.712 C63.592,54.048 62.904,54.224 62.136,54.224 C61.304,54.224 60.648,54.016 60.152,53.6 C59.64,53.168 59.384,52.608 59.384,51.936 C59.384,50.992 59.752,50.288 60.52,49.808 C61.192,49.36 62.152,49.12 63.4,49.104 L65.384,49.072 L65.384,48.64 C65.384,47.248 64.664,46.56 63.224,46.56 C62.616,46.56 62.12,46.672 61.736,46.928 C61.304,47.184 61.032,47.584 60.904,48.112 L59.64,48.016 C59.816,47.152 60.248,46.496 60.92,46.08 C61.528,45.696 62.312,45.504 63.304,45.504 Z M65.384,50.032 L63.48,50.064 C61.624,50.096 60.696,50.704 60.696,51.904 C60.696,52.288 60.84,52.592 61.16,52.848 C61.48,53.088 61.896,53.216 62.408,53.216 C63.192,53.216 63.88,52.96 64.488,52.448 C65.08,51.952 65.384,51.376 65.384,50.736 L65.384,50.032 Z M69.704,42.608 C69.976,42.608 70.2,42.688 70.392,42.88 C70.584,43.04 70.68,43.264 70.68,43.552 C70.68,43.824 70.584,44.048 70.392,44.24 C70.2,44.416 69.976,44.512 69.704,44.512 C69.432,44.512 69.208,44.416 69.016,44.24 C68.824,44.048 68.744,43.824 68.744,43.552 C68.744,43.264 68.824,43.04 69.016,42.88 C69.208,42.688 69.432,42.608 69.704,42.608 Z M69.064,45.728 L70.344,45.728 L70.344,54 L69.064,54 L69.064,45.728 Z M75.672,45.504 C77.72,45.504 78.84,46.352 79.064,48.08 L77.816,48.08 C77.704,47.568 77.496,47.184 77.176,46.96 C76.824,46.704 76.312,46.576 75.656,46.576 C75.08,46.576 74.632,46.672 74.312,46.896 C73.96,47.104 73.784,47.392 73.784,47.76 C73.784,48.112 74.008,48.416 74.488,48.656 C74.792,48.8 75.368,48.976 76.2,49.2 C77.192,49.44 77.896,49.696 78.328,49.968 C78.984,50.384 79.32,50.944 79.32,51.664 C79.32,53.36 78.152,54.224 75.816,54.224 C73.64,54.224 72.456,53.264 72.264,51.36 L73.512,51.36 C73.608,52.016 73.848,52.48 74.2,52.768 C74.552,53.024 75.08,53.152 75.784,53.152 C77.256,53.152 78.008,52.672 78.008,51.744 C78.008,51.28 77.736,50.928 77.224,50.672 C76.952,50.544 76.36,50.368 75.464,50.144 C74.488,49.904 73.8,49.664 73.416,49.408 C72.776,49.024 72.472,48.496 72.472,47.792 C72.472,47.088 72.776,46.544 73.4,46.128 C73.976,45.712 74.744,45.504 75.672,45.504 Z"/>
        </g>
        <g transform="translate(436 167)">
          <circle cx="49" cy="49" r="49" fill="#1B9CB0"/>
          <path fill="#FFF" d="M22.536,42.576 L24.168,42.576 L28.424,52.32 L28.472,52.32 L32.712,42.576 L34.344,42.576 L34.344,54 L33.032,54 L33.032,44.912 L32.984,44.912 L29.032,54 L27.848,54 L23.896,44.912 L23.848,44.912 L23.848,54 L22.536,54 L22.536,42.576 Z M40.088,45.504 C41.272,45.504 42.136,45.808 42.712,46.432 C43.192,46.976 43.448,47.728 43.448,48.688 L43.448,54 L42.248,54 L42.248,52.608 C41.928,53.056 41.496,53.424 40.984,53.712 C40.376,54.048 39.688,54.224 38.92,54.224 C38.088,54.224 37.432,54.016 36.936,53.6 C36.424,53.168 36.168,52.608 36.168,51.936 C36.168,50.992 36.536,50.288 37.304,49.808 C37.976,49.36 38.936,49.12 40.184,49.104 L42.168,49.072 L42.168,48.64 C42.168,47.248 41.448,46.56 40.008,46.56 C39.4,46.56 38.904,46.672 38.52,46.928 C38.088,47.184 37.816,47.584 37.688,48.112 L36.424,48.016 C36.6,47.152 37.032,46.496 37.704,46.08 C38.312,45.696 39.096,45.504 40.088,45.504 Z M42.168,50.032 L40.264,50.064 C38.408,50.096 37.48,50.704 37.48,51.904 C37.48,52.288 37.624,52.592 37.944,52.848 C38.264,53.088 38.68,53.216 39.192,53.216 C39.976,53.216 40.664,52.96 41.272,52.448 C41.864,51.952 42.168,51.376 42.168,50.736 L42.168,50.032 Z M48.84,45.504 C50.088,45.504 51.016,46.048 51.624,47.152 L51.624,45.728 L52.904,45.728 L52.904,53.424 C52.904,56.064 51.64,57.392 49.128,57.392 C48.008,57.392 47.144,57.168 46.568,56.72 C45.976,56.272 45.608,55.6 45.464,54.704 L46.744,54.704 C46.84,55.264 47.08,55.68 47.448,55.936 C47.816,56.208 48.376,56.352 49.128,56.352 C50.792,56.352 51.624,55.424 51.624,53.6 L51.624,52.144 C51.016,53.248 50.088,53.808 48.84,53.808 C47.688,53.808 46.776,53.408 46.104,52.624 C45.432,51.856 45.112,50.88 45.112,49.68 C45.112,48.464 45.432,47.488 46.104,46.72 C46.776,45.904 47.688,45.504 48.84,45.504 Z M49.032,46.56 C48.2,46.56 47.56,46.848 47.096,47.456 C46.648,48 46.424,48.752 46.424,49.68 C46.424,50.544 46.616,51.264 47.016,51.808 C47.464,52.416 48.12,52.736 49.016,52.736 C49.848,52.736 50.488,52.448 50.968,51.872 C51.416,51.312 51.64,50.576 51.64,49.68 C51.64,48.752 51.416,48 50.968,47.456 C50.488,46.848 49.848,46.56 49.032,46.56 Z M53.976,45.728 L55.368,45.728 L57.896,52.256 L60.344,45.728 L61.752,45.728 L57.224,57.168 L55.832,57.168 L57.256,53.808 L53.976,45.728 Z M66.424,45.504 C67.608,45.504 68.472,45.808 69.048,46.432 C69.528,46.976 69.784,47.728 69.784,48.688 L69.784,54 L68.584,54 L68.584,52.608 C68.264,53.056 67.832,53.424 67.32,53.712 C66.712,54.048 66.024,54.224 65.256,54.224 C64.424,54.224 63.768,54.016 63.272,53.6 C62.76,53.168 62.504,52.608 62.504,51.936 C62.504,50.992 62.872,50.288 63.64,49.808 C64.312,49.36 65.272,49.12 66.52,49.104 L68.504,49.072 L68.504,48.64 C68.504,47.248 67.784,46.56 66.344,46.56 C65.736,46.56 65.24,46.672 64.856,46.928 C64.424,47.184 64.152,47.584 64.024,48.112 L62.76,48.016 C62.936,47.152 63.368,46.496 64.04,46.08 C64.648,45.696 65.432,45.504 66.424,45.504 Z M68.504,50.032 L66.6,50.064 C64.744,50.096 63.816,50.704 63.816,51.904 C63.816,52.288 63.96,52.592 64.28,52.848 C64.6,53.088 65.016,53.216 65.528,53.216 C66.312,53.216 67,52.96 67.608,52.448 C68.2,51.952 68.504,51.376 68.504,50.736 L68.504,50.032 Z M75.4,45.504 C75.848,45.504 76.232,45.568 76.536,45.696 L76.536,46.976 C76.12,46.848 75.704,46.8 75.304,46.8 C74.664,46.8 74.12,47.072 73.688,47.648 C73.24,48.192 73.032,48.848 73.032,49.616 L73.032,54 L71.768,54 L71.768,45.728 L73.032,45.728 L73.032,47.168 C73.256,46.688 73.544,46.304 73.896,46.032 C74.328,45.68 74.824,45.504 75.4,45.504 Z"/>
        </g>
        <g transform="translate(212 249)">
          <circle cx="49" cy="49" r="49" fill="#7F9939" stroke="#7F9939" stroke-width="3"/>
          <path fill="#FFF" d="M41.728,46.896 L39.6,46.896 L39.6,51.456 L38.384,51.456 L38.384,41.136 L39.6,41.136 L39.6,45.872 L41.728,45.872 L41.728,46.896 Z M40.144,54.672 L30.832,54.672 L30.832,51.088 L32.048,51.088 L32.048,53.648 L40.144,53.648 L40.144,54.672 Z M34.816,42.704 L30.784,42.704 L30.784,41.632 L34.816,41.632 L34.816,42.704 Z M36.976,44.768 L28.784,44.768 L28.784,43.76 L36.976,43.76 L36.976,44.768 Z M36.176,47.968 C36.176,49.44 34.768,50.416 32.88,50.416 C31.024,50.416 29.6,49.44 29.6,47.968 C29.6,46.464 31.008,45.52 32.88,45.52 C34.768,45.52 36.176,46.464 36.176,47.968 Z M35.024,47.968 C35.024,47.04 34.016,46.48 32.88,46.48 C31.76,46.48 30.752,47.04 30.752,47.968 C30.752,48.88 31.76,49.44 32.88,49.44 C34.016,49.44 35.024,48.88 35.024,47.968 Z M44.032,50.496 L48.384,50.496 L48.384,47.888 L42.688,47.888 L42.688,46.864 L52.016,46.864 C52.304,45.84 52.48,44.112 52.48,42.912 L44.224,42.912 L44.224,41.904 L53.728,41.904 C53.728,43.776 53.568,45.472 53.232,46.864 L55.312,46.864 L55.312,47.888 L49.6,47.888 L49.6,50.496 L53.712,50.496 L53.712,55.216 L52.48,55.216 L52.48,51.504 L44.032,51.504 L44.032,50.496 Z M56.704,47.056 C56.704,44.096 57.984,42.112 60.24,42.112 C62.352,42.112 63.584,43.856 63.744,46.512 L66.736,46.512 L66.736,41.136 L67.952,41.136 L67.952,55.12 L66.736,55.12 L66.736,47.552 L63.744,47.552 C63.616,50.24 62.368,52 60.24,52 C57.984,52 56.704,50.032 56.704,47.056 Z M62.56,47.072 C62.56,44.768 61.616,43.168 60.24,43.168 C58.848,43.168 57.92,44.768 57.92,47.072 C57.92,49.344 58.848,50.944 60.24,50.944 C61.616,50.944 62.56,49.344 62.56,47.072 Z"/>
        </g>
        <g transform="translate(338 234)">
          <circle cx="49" cy="49" r="49" fill="#39C2D7" stroke="#39C2D7" stroke-width="3"/>
          <path fill="#FFF" d="M38.104,41.568 L38.104,55.52 L36.936,55.52 L36.936,54.304 L29.368,54.304 L29.368,55.536 L28.216,55.536 L28.216,41.568 L38.104,41.568 Z M29.368,53.184 L36.936,53.184 L36.936,48.368 L29.368,48.368 L29.368,53.184 Z M29.368,47.248 L36.936,47.248 L36.936,42.688 L29.368,42.688 L29.368,47.248 Z M42.152,43.872 L48.408,43.872 L48.408,40.976 L49.592,40.976 L49.592,43.872 L55.832,43.872 L55.832,44.976 L50.616,44.976 C51.688,47.52 53.608,49.792 56.36,51.792 L55.576,52.784 C52.76,50.48 50.808,47.872 49.72,44.976 L49.592,44.976 L49.592,51.216 L53.016,51.216 L53.016,52.32 L49.592,52.32 L49.592,55.6 L48.408,55.6 L48.408,52.32 L45.112,52.32 L45.112,51.216 L48.408,51.216 L48.408,44.976 L48.296,44.976 C47.112,48.224 45.096,50.896 42.248,52.992 L41.592,51.92 C44.28,50.128 46.2,47.808 47.384,44.976 L42.152,44.976 L42.152,43.872 Z M59.384,54.608 L59.384,55.584 L58.312,55.584 L58.312,49.952 L62.616,49.952 L62.616,55.344 L61.576,55.344 L61.576,54.608 L59.384,54.608 Z M61.576,53.552 L61.576,50.976 L59.384,50.976 L59.384,53.552 L61.576,53.552 Z M57.832,42.976 L60.264,42.976 C59.992,42.336 59.656,41.728 59.272,41.152 L60.36,40.832 C60.76,41.536 61.064,42.176 61.272,42.752 L60.696,42.976 L62.984,42.976 L62.984,44.032 L57.832,44.032 L57.832,42.976 Z M58.424,45.296 L62.472,45.296 L62.472,46.304 L58.424,46.304 L58.424,45.296 Z M58.424,47.552 L62.472,47.552 L62.472,48.576 L58.424,48.576 L58.424,47.552 Z M63.592,41.552 L71.816,41.552 L71.816,42.592 L67.672,42.592 L67.32,44.4 L71.048,44.4 L71.048,47.552 L72.264,47.552 L72.264,48.608 L63.48,48.608 L63.48,47.552 L65.624,47.552 L66.04,45.408 L64.12,45.408 L64.12,44.4 L66.248,44.4 L66.6,42.592 L63.592,42.592 L63.592,41.552 Z M66.696,47.552 L69.976,47.552 L69.976,45.408 L67.112,45.408 L66.696,47.552 Z M71.288,50.112 L71.288,55.632 L70.216,55.632 L70.216,54.896 L65.384,54.896 L65.384,55.632 L64.296,55.632 L64.296,50.112 L71.288,50.112 Z M65.384,53.856 L70.216,53.856 L70.216,51.136 L65.384,51.136 L65.384,53.856 Z"/>
        </g>
        <g transform="translate(218 356)">
          <circle cx="49" cy="49" r="49" fill="#39C2D7" stroke="#39C2D7" stroke-width="3"/>
          <path fill="#FFF" d="M30.88,42.352 C32.16,42.352 33.184,42.64 33.92,43.232 C34.688,43.84 35.12,44.752 35.232,45.952 L33.936,45.952 C33.792,45.12 33.472,44.512 32.976,44.112 C32.464,43.696 31.744,43.504 30.816,43.504 C29.968,43.504 29.312,43.632 28.832,43.92 C28.288,44.24 28.016,44.72 28.016,45.376 C28.016,45.952 28.336,46.416 28.992,46.768 C29.28,46.928 29.984,47.168 31.088,47.488 C32.592,47.936 33.584,48.304 34.064,48.592 C35.008,49.168 35.488,49.968 35.488,51.008 C35.488,52 35.088,52.8 34.288,53.376 C33.488,53.936 32.416,54.224 31.056,54.224 C29.712,54.224 28.656,53.936 27.888,53.36 C26.992,52.672 26.496,51.632 26.4,50.224 L27.696,50.224 C27.808,51.216 28.16,51.952 28.736,52.416 C29.264,52.832 30.032,53.056 31.056,53.056 C31.984,53.056 32.752,52.88 33.328,52.528 C33.904,52.176 34.192,51.696 34.192,51.088 C34.192,50.368 33.808,49.808 33.056,49.408 C32.736,49.216 31.92,48.944 30.64,48.576 C29.264,48.16 28.384,47.84 28.016,47.648 C27.136,47.136 26.704,46.4 26.704,45.44 C26.704,44.448 27.12,43.664 27.968,43.12 C28.72,42.608 29.696,42.352 30.88,42.352 Z M36.992,45.728 L38.272,45.728 L38.272,50.784 C38.272,51.568 38.432,52.16 38.768,52.544 C39.104,52.928 39.648,53.136 40.4,53.136 C40.944,53.136 41.44,52.912 41.872,52.496 C42.32,52.048 42.592,51.472 42.688,50.768 L42.688,45.728 L43.968,45.728 L43.968,54 L42.688,54 L42.688,52.72 C42.016,53.712 41.12,54.224 40,54.224 C37.984,54.224 36.992,53.088 36.992,50.848 L36.992,45.728 Z M49.648,45.504 C50.88,45.504 51.872,45.92 52.608,46.784 C53.312,47.6 53.664,48.624 53.664,49.872 C53.664,51.104 53.312,52.128 52.624,52.928 C51.872,53.792 50.88,54.224 49.648,54.224 C48.4,54.224 47.424,53.792 46.688,52.928 C45.984,52.128 45.632,51.104 45.632,49.872 C45.632,48.624 45.984,47.6 46.688,46.784 C47.424,45.92 48.4,45.504 49.648,45.504 Z M49.648,46.576 C48.768,46.576 48.08,46.912 47.6,47.584 C47.152,48.192 46.944,48.944 46.944,49.872 C46.944,50.784 47.152,51.536 47.6,52.144 C48.08,52.816 48.768,53.152 49.648,53.152 C50.512,53.152 51.2,52.816 51.712,52.144 C52.144,51.536 52.368,50.768 52.368,49.872 C52.368,48.944 52.144,48.192 51.712,47.584 C51.2,46.912 50.512,46.576 49.648,46.576 Z M58.944,45.504 C60.208,45.504 61.072,46.016 61.536,47.072 C61.856,46.528 62.24,46.128 62.688,45.888 C63.088,45.632 63.568,45.504 64.144,45.504 C65.008,45.504 65.696,45.776 66.24,46.32 C66.752,46.88 67.024,47.632 67.024,48.576 L67.024,54 L65.744,54 L65.744,48.784 C65.744,48.048 65.584,47.504 65.28,47.152 C64.96,46.768 64.448,46.592 63.744,46.592 C63.2,46.592 62.736,46.784 62.384,47.2 C62,47.616 61.824,48.144 61.824,48.816 L61.824,54 L60.544,54 L60.544,48.784 C60.544,47.312 59.904,46.592 58.64,46.592 C58.048,46.592 57.568,46.816 57.184,47.296 C56.8,47.744 56.608,48.304 56.608,48.96 L56.608,54 L55.328,54 L55.328,45.728 L56.608,45.728 L56.608,46.832 C57.232,45.936 58.016,45.504 58.944,45.504 Z M70.064,42.608 C70.336,42.608 70.56,42.688 70.752,42.88 C70.944,43.04 71.04,43.264 71.04,43.552 C71.04,43.824 70.944,44.048 70.752,44.24 C70.56,44.416 70.336,44.512 70.064,44.512 C69.792,44.512 69.568,44.416 69.376,44.24 C69.184,44.048 69.104,43.824 69.104,43.552 C69.104,43.264 69.184,43.04 69.376,42.88 C69.568,42.688 69.792,42.608 70.064,42.608 Z M69.424,45.728 L70.704,45.728 L70.704,54 L69.424,54 L69.424,45.728 Z"/>
        </g>
        <g transform="translate(98 191)">
          <circle cx="49" cy="49" r="49" fill="#157D8D"/>
          <path fill="#FFF" d="M18.152,42.576 L22.824,42.576 C25.448,42.576 26.76,43.696 26.76,45.936 C26.76,48.192 25.432,49.328 22.808,49.328 L19.464,49.328 L19.464,54 L18.152,54 L18.152,42.576 Z M19.464,43.712 L19.464,48.192 L22.744,48.192 C23.672,48.192 24.344,48 24.792,47.632 C25.224,47.264 25.448,46.704 25.448,45.936 C25.448,45.168 25.224,44.608 24.776,44.272 C24.328,43.888 23.656,43.712 22.744,43.712 L19.464,43.712 Z M27.352,45.728 L28.744,45.728 L31.32,52.4 L33.752,45.728 L35.144,45.728 L31.88,54.24 C31.464,55.312 31.032,56.048 30.584,56.464 C30.072,56.928 29.368,57.168 28.472,57.168 L27.896,57.168 L27.896,56.096 L28.28,56.096 C28.984,56.096 29.544,55.84 29.976,55.328 C30.2,55.04 30.456,54.592 30.728,53.968 L27.352,45.728 Z M39.784,45.504 C40.808,45.504 41.624,45.744 42.248,46.224 C42.888,46.72 43.272,47.472 43.416,48.48 L42.152,48.48 C42.04,47.84 41.784,47.36 41.384,47.04 C40.968,46.72 40.44,46.576 39.784,46.576 C38.984,46.576 38.344,46.88 37.88,47.488 C37.432,48.08 37.208,48.88 37.208,49.888 C37.208,50.896 37.416,51.696 37.864,52.272 C38.296,52.848 38.936,53.152 39.768,53.152 C41.176,53.152 41.992,52.432 42.184,51.008 L43.464,51.008 C43.272,52.064 42.872,52.88 42.232,53.424 C41.608,53.952 40.792,54.224 39.768,54.224 C38.52,54.224 37.56,53.808 36.872,52.976 C36.216,52.192 35.896,51.168 35.896,49.904 C35.896,48.64 36.216,47.616 36.872,46.816 C37.576,45.936 38.552,45.504 39.784,45.504 Z M48.536,45.504 C49.56,45.504 50.376,45.744 51,46.224 C51.64,46.72 52.024,47.472 52.168,48.48 L50.904,48.48 C50.792,47.84 50.536,47.36 50.136,47.04 C49.72,46.72 49.192,46.576 48.536,46.576 C47.736,46.576 47.096,46.88 46.632,47.488 C46.184,48.08 45.96,48.88 45.96,49.888 C45.96,50.896 46.168,51.696 46.616,52.272 C47.048,52.848 47.688,53.152 48.52,53.152 C49.928,53.152 50.744,52.432 50.936,51.008 L52.216,51.008 C52.024,52.064 51.624,52.88 50.984,53.424 C50.36,53.952 49.544,54.224 48.52,54.224 C47.272,54.224 46.312,53.808 45.624,52.976 C44.968,52.192 44.648,51.168 44.648,49.904 C44.648,48.64 44.968,47.616 45.624,46.816 C46.328,45.936 47.304,45.504 48.536,45.504 Z M53.72,45.728 L55,45.728 L55,49.328 C56.168,49.28 57.064,48.992 57.672,48.464 C58.328,47.888 58.76,46.976 58.952,45.728 L60.28,45.728 C60.024,47.36 59.448,48.528 58.568,49.264 C58.456,49.344 58.344,49.424 58.248,49.504 L60.776,54 L59.272,54 L57.112,50.048 C56.504,50.24 55.8,50.352 55,50.384 L55,54 L53.72,54 L53.72,45.728 Z M62.12,45.728 L63.4,45.728 L63.4,52.16 L67.848,45.728 L69.224,45.728 L69.224,54 L67.944,54 L67.944,47.568 L63.496,54 L62.12,54 L62.12,45.728 Z M72.2,42.528 L73.192,42.528 C73.256,43.008 73.416,43.344 73.656,43.552 C73.912,43.776 74.28,43.904 74.76,43.904 C75.24,43.904 75.608,43.776 75.864,43.552 C76.104,43.344 76.264,43.008 76.344,42.528 L77.336,42.528 C77.24,43.232 77,43.744 76.616,44.08 C76.2,44.432 75.592,44.624 74.776,44.624 C73.944,44.624 73.32,44.432 72.936,44.08 C72.536,43.728 72.296,43.216 72.2,42.528 Z M71.208,45.728 L72.488,45.728 L72.488,52.16 L76.936,45.728 L78.312,45.728 L78.312,54 L77.032,54 L77.032,47.568 L72.584,54 L71.208,54 L71.208,45.728 Z"/>
        </g>
        <g transform="translate(450 298)">
          <circle cx="49" cy="49" r="49" fill="#CEDB56"/>
          <path fill="#FFF" d="M19.236,32.576 L26.884,32.576 L26.884,33.712 L20.548,33.712 L20.548,37.552 L26.548,37.552 L26.548,38.688 L20.548,38.688 L20.548,44 L19.236,44 L19.236,32.576 Z M31.94,35.504 C32.388,35.504 32.772,35.568 33.076,35.696 L33.076,36.976 C32.66,36.848 32.244,36.8 31.844,36.8 C31.204,36.8 30.66,37.072 30.228,37.648 C29.78,38.192 29.572,38.848 29.572,39.616 L29.572,44 L28.308,44 L28.308,35.728 L29.572,35.728 L29.572,37.168 C29.796,36.688 30.084,36.304 30.436,36.032 C30.868,35.68 31.364,35.504 31.94,35.504 Z M37.748,35.504 C38.932,35.504 39.796,35.808 40.372,36.432 C40.852,36.976 41.108,37.728 41.108,38.688 L41.108,44 L39.908,44 L39.908,42.608 C39.588,43.056 39.156,43.424 38.644,43.712 C38.036,44.048 37.348,44.224 36.58,44.224 C35.748,44.224 35.092,44.016 34.596,43.6 C34.084,43.168 33.828,42.608 33.828,41.936 C33.828,40.992 34.196,40.288 34.964,39.808 C35.636,39.36 36.596,39.12 37.844,39.104 L39.828,39.072 L39.828,38.64 C39.828,37.248 39.108,36.56 37.668,36.56 C37.06,36.56 36.564,36.672 36.18,36.928 C35.748,37.184 35.476,37.584 35.348,38.112 L34.084,38.016 C34.26,37.152 34.692,36.496 35.364,36.08 C35.972,35.696 36.756,35.504 37.748,35.504 Z M39.828,40.032 L37.924,40.064 C36.068,40.096 35.14,40.704 35.14,41.904 C35.14,42.288 35.284,42.592 35.604,42.848 C35.924,43.088 36.34,43.216 36.852,43.216 C37.636,43.216 38.324,42.96 38.932,42.448 C39.524,41.952 39.828,41.376 39.828,40.736 L39.828,40.032 Z M46.964,35.504 C49.012,35.504 50.052,36.64 50.052,38.912 L50.052,44 L48.772,44 L48.772,39.008 C48.772,37.392 48.036,36.592 46.596,36.592 C46.02,36.592 45.524,36.8 45.108,37.216 C44.66,37.664 44.42,38.256 44.372,39.008 L44.372,44 L43.092,44 L43.092,35.728 L44.372,35.728 L44.372,36.944 C44.66,36.48 45.028,36.128 45.476,35.888 C45.924,35.632 46.42,35.504 46.964,35.504 Z M55.604,35.504 C56.628,35.504 57.444,35.744 58.068,36.224 C58.708,36.72 59.092,37.472 59.236,38.48 L57.972,38.48 C57.86,37.84 57.604,37.36 57.204,37.04 C56.788,36.72 56.26,36.576 55.604,36.576 C54.804,36.576 54.164,36.88 53.7,37.488 C53.252,38.08 53.028,38.88 53.028,39.888 C53.028,40.896 53.236,41.696 53.684,42.272 C54.116,42.848 54.756,43.152 55.588,43.152 C56.996,43.152 57.812,42.432 58.004,41.008 L59.284,41.008 C59.092,42.064 58.692,42.88 58.052,43.424 C57.492,43.888 56.788,44.144 55.924,44.208 L55.7,44.848 C55.86,44.832 55.988,44.832 56.052,44.832 C56.452,44.832 56.788,44.928 57.044,45.12 C57.332,45.312 57.476,45.616 57.476,46.016 C57.476,46.512 57.268,46.88 56.852,47.12 C56.532,47.296 56.1,47.392 55.588,47.392 C55.06,47.392 54.548,47.264 54.068,47.008 L54.308,46.512 C54.724,46.704 55.108,46.816 55.476,46.816 C55.828,46.816 56.116,46.736 56.308,46.608 C56.484,46.48 56.58,46.288 56.58,46.032 C56.58,45.568 56.228,45.344 55.54,45.344 C55.396,45.344 55.156,45.36 54.82,45.408 L55.252,44.208 C54.164,44.144 53.316,43.728 52.692,42.976 C52.036,42.192 51.716,41.168 51.716,39.904 C51.716,38.64 52.036,37.616 52.692,36.816 C53.396,35.936 54.372,35.504 55.604,35.504 Z M64.388,35.504 C65.572,35.504 66.436,35.808 67.012,36.432 C67.492,36.976 67.748,37.728 67.748,38.688 L67.748,44 L66.548,44 L66.548,42.608 C66.228,43.056 65.796,43.424 65.284,43.712 C64.676,44.048 63.988,44.224 63.22,44.224 C62.388,44.224 61.732,44.016 61.236,43.6 C60.724,43.168 60.468,42.608 60.468,41.936 C60.468,40.992 60.836,40.288 61.604,39.808 C62.276,39.36 63.236,39.12 64.484,39.104 L66.468,39.072 L66.468,38.64 C66.468,37.248 65.748,36.56 64.308,36.56 C63.7,36.56 63.204,36.672 62.82,36.928 C62.388,37.184 62.116,37.584 61.988,38.112 L60.724,38.016 C60.9,37.152 61.332,36.496 62.004,36.08 C62.612,35.696 63.396,35.504 64.388,35.504 Z M66.468,40.032 L64.564,40.064 C62.708,40.096 61.78,40.704 61.78,41.904 C61.78,42.288 61.924,42.592 62.244,42.848 C62.564,43.088 62.98,43.216 63.492,43.216 C64.276,43.216 64.964,42.96 65.572,42.448 C66.164,41.952 66.468,41.376 66.468,40.736 L66.468,40.032 Z M70.788,32.608 C71.06,32.608 71.284,32.688 71.476,32.88 C71.668,33.04 71.764,33.264 71.764,33.552 C71.764,33.824 71.668,34.048 71.476,34.24 C71.284,34.416 71.06,34.512 70.788,34.512 C70.516,34.512 70.292,34.416 70.1,34.24 C69.908,34.048 69.828,33.824 69.828,33.552 C69.828,33.264 69.908,33.04 70.1,32.88 C70.292,32.688 70.516,32.608 70.788,32.608 Z M70.148,35.728 L71.428,35.728 L71.428,44 L70.148,44 L70.148,35.728 Z M76.756,35.504 C78.804,35.504 79.924,36.352 80.148,38.08 L78.9,38.08 C78.788,37.568 78.58,37.184 78.26,36.96 C77.908,36.704 77.396,36.576 76.74,36.576 C76.164,36.576 75.716,36.672 75.396,36.896 C75.044,37.104 74.868,37.392 74.868,37.76 C74.868,38.112 75.092,38.416 75.572,38.656 C75.876,38.8 76.452,38.976 77.284,39.2 C78.276,39.44 78.98,39.696 79.412,39.968 C80.068,40.384 80.404,40.944 80.404,41.664 C80.404,43.36 79.236,44.224 76.9,44.224 C74.724,44.224 73.54,43.264 73.348,41.36 L74.596,41.36 C74.692,42.016 74.932,42.48 75.284,42.768 C75.636,43.024 76.164,43.152 76.868,43.152 C78.34,43.152 79.092,42.672 79.092,41.744 C79.092,41.28 78.82,40.928 78.308,40.672 C78.036,40.544 77.444,40.368 76.548,40.144 C75.572,39.904 74.884,39.664 74.5,39.408 C73.86,39.024 73.556,38.496 73.556,37.792 C73.556,37.088 73.86,36.544 74.484,36.128 C75.06,35.712 75.828,35.504 76.756,35.504 Z M27.18,54.352 C28.444,54.352 29.516,54.688 30.38,55.36 C31.244,56.032 31.756,56.944 31.916,58.08 L30.652,58.08 C30.492,57.248 30.076,56.608 29.436,56.16 C28.812,55.728 28.06,55.52 27.164,55.52 C25.836,55.52 24.812,55.984 24.092,56.912 C23.42,57.776 23.084,58.912 23.084,60.336 C23.084,61.76 23.404,62.896 24.076,63.728 C24.78,64.608 25.788,65.056 27.132,65.056 C28.044,65.056 28.812,64.816 29.452,64.336 C30.124,63.824 30.588,63.072 30.812,62.08 L32.076,62.08 C31.82,63.408 31.228,64.448 30.284,65.184 C29.404,65.872 28.348,66.224 27.132,66.224 C25.356,66.224 23.996,65.632 23.052,64.464 C22.188,63.408 21.772,62.032 21.772,60.336 C21.772,58.64 22.204,57.248 23.084,56.16 C24.044,54.944 25.42,54.352 27.18,54.352 Z M37.34,57.504 C38.524,57.504 39.388,57.808 39.964,58.432 C40.444,58.976 40.7,59.728 40.7,60.688 L40.7,66 L39.5,66 L39.5,64.608 C39.18,65.056 38.748,65.424 38.236,65.712 C37.628,66.048 36.94,66.224 36.172,66.224 C35.34,66.224 34.684,66.016 34.188,65.6 C33.676,65.168 33.42,64.608 33.42,63.936 C33.42,62.992 33.788,62.288 34.556,61.808 C35.228,61.36 36.188,61.12 37.436,61.104 L39.42,61.072 L39.42,60.64 C39.42,59.248 38.7,58.56 37.26,58.56 C36.652,58.56 36.156,58.672 35.772,58.928 C35.34,59.184 35.068,59.584 34.94,60.112 L33.676,60.016 C33.852,59.152 34.284,58.496 34.956,58.08 C35.564,57.696 36.348,57.504 37.34,57.504 Z M39.42,62.032 L37.516,62.064 C35.66,62.096 34.732,62.704 34.732,63.904 C34.732,64.288 34.876,64.592 35.196,64.848 C35.516,65.088 35.932,65.216 36.444,65.216 C37.228,65.216 37.916,64.96 38.524,64.448 C39.116,63.952 39.42,63.376 39.42,62.736 L39.42,62.032 Z M46.556,57.504 C48.604,57.504 49.644,58.64 49.644,60.912 L49.644,66 L48.364,66 L48.364,61.008 C48.364,59.392 47.628,58.592 46.188,58.592 C45.612,58.592 45.116,58.8 44.7,59.216 C44.252,59.664 44.012,60.256 43.964,61.008 L43.964,66 L42.684,66 L42.684,57.728 L43.964,57.728 L43.964,58.944 C44.252,58.48 44.62,58.128 45.068,57.888 C45.516,57.632 46.012,57.504 46.556,57.504 Z M55.228,57.504 C56.412,57.504 57.276,57.808 57.852,58.432 C58.332,58.976 58.588,59.728 58.588,60.688 L58.588,66 L57.388,66 L57.388,64.608 C57.068,65.056 56.636,65.424 56.124,65.712 C55.516,66.048 54.828,66.224 54.06,66.224 C53.228,66.224 52.572,66.016 52.076,65.6 C51.564,65.168 51.308,64.608 51.308,63.936 C51.308,62.992 51.676,62.288 52.444,61.808 C53.116,61.36 54.076,61.12 55.324,61.104 L57.308,61.072 L57.308,60.64 C57.308,59.248 56.588,58.56 55.148,58.56 C54.54,58.56 54.044,58.672 53.66,58.928 C53.228,59.184 52.956,59.584 52.828,60.112 L51.564,60.016 C51.74,59.152 52.172,58.496 52.844,58.08 C53.452,57.696 54.236,57.504 55.228,57.504 Z M57.308,62.032 L55.404,62.064 C53.548,62.096 52.62,62.704 52.62,63.904 C52.62,64.288 52.764,64.592 53.084,64.848 C53.404,65.088 53.82,65.216 54.332,65.216 C55.116,65.216 55.804,64.96 56.412,64.448 C57.004,63.952 57.308,63.376 57.308,62.736 L57.308,62.032 Z M66.684,54.352 L67.964,54.352 L67.964,66 L66.764,66 L66.764,64.64 C66.188,65.696 65.26,66.224 64.012,66.224 C62.796,66.224 61.852,65.776 61.18,64.912 C60.556,64.112 60.252,63.088 60.252,61.84 C60.252,60.624 60.556,59.632 61.18,58.832 C61.852,57.936 62.764,57.504 63.948,57.504 C65.132,57.504 66.044,58.08 66.684,59.248 L66.684,54.352 Z M64.22,58.56 C63.308,58.56 62.62,58.88 62.172,59.52 C61.756,60.08 61.564,60.848 61.564,61.84 C61.564,62.832 61.756,63.616 62.156,64.192 C62.604,64.832 63.276,65.168 64.172,65.168 C65.004,65.168 65.644,64.848 66.108,64.208 C66.508,63.632 66.716,62.88 66.716,61.952 L66.716,61.792 C66.716,60.832 66.476,60.048 66.028,59.456 C65.564,58.848 64.956,58.56 64.22,58.56 Z M73.548,57.504 C74.732,57.504 75.596,57.808 76.172,58.432 C76.652,58.976 76.908,59.728 76.908,60.688 L76.908,66 L75.708,66 L75.708,64.608 C75.388,65.056 74.956,65.424 74.444,65.712 C73.836,66.048 73.148,66.224 72.38,66.224 C71.548,66.224 70.892,66.016 70.396,65.6 C69.884,65.168 69.628,64.608 69.628,63.936 C69.628,62.992 69.996,62.288 70.764,61.808 C71.436,61.36 72.396,61.12 73.644,61.104 L75.628,61.072 L75.628,60.64 C75.628,59.248 74.908,58.56 73.468,58.56 C72.86,58.56 72.364,58.672 71.98,58.928 C71.548,59.184 71.276,59.584 71.148,60.112 L69.884,60.016 C70.06,59.152 70.492,58.496 71.164,58.08 C71.772,57.696 72.556,57.504 73.548,57.504 Z M75.628,62.032 L73.724,62.064 C71.868,62.096 70.94,62.704 70.94,63.904 C70.94,64.288 71.084,64.592 71.404,64.848 C71.724,65.088 72.14,65.216 72.652,65.216 C73.436,65.216 74.124,64.96 74.732,64.448 C75.324,63.952 75.628,63.376 75.628,62.736 L75.628,62.032 Z"/>
        </g>
        <g transform="translate(534 100)">
          <circle cx="49" cy="49" r="49" fill="#C55D74" stroke="#C55D74" stroke-width="3"/>
          <path fill="#FFF" d="M8.36,42.576 L9.736,42.576 L16.2,51.872 L16.248,51.872 L16.248,42.576 L17.56,42.576 L17.56,54 L16.216,54 L9.72,44.608 L9.672,44.608 L9.672,54 L8.36,54 L8.36,42.576 Z M23.112,45.504 C24.44,45.504 25.448,45.952 26.12,46.848 C26.728,47.648 27.048,48.784 27.08,50.224 L20.552,50.224 C20.616,51.152 20.856,51.872 21.304,52.384 C21.752,52.896 22.376,53.152 23.16,53.152 C23.832,53.152 24.392,52.976 24.808,52.64 C25.16,52.352 25.432,51.92 25.64,51.344 L26.92,51.344 C26.728,52.144 26.36,52.784 25.8,53.296 C25.112,53.904 24.232,54.224 23.16,54.224 C21.976,54.224 21.016,53.824 20.312,53.056 C19.576,52.256 19.224,51.2 19.224,49.856 C19.224,48.64 19.56,47.616 20.264,46.8 C20.968,45.936 21.912,45.504 23.112,45.504 Z M23.144,46.576 C22.408,46.576 21.816,46.816 21.368,47.296 C20.92,47.776 20.664,48.416 20.584,49.232 L25.752,49.232 C25.592,47.456 24.712,46.576 23.144,46.576 Z M34.696,42.352 L35.976,42.352 L35.976,54 L34.776,54 L34.776,52.64 C34.2,53.696 33.272,54.224 32.024,54.224 C30.808,54.224 29.864,53.776 29.192,52.912 C28.568,52.112 28.264,51.088 28.264,49.84 C28.264,48.624 28.568,47.632 29.192,46.832 C29.864,45.936 30.776,45.504 31.96,45.504 C33.144,45.504 34.056,46.08 34.696,47.248 L34.696,42.352 Z M32.232,46.56 C31.32,46.56 30.632,46.88 30.184,47.52 C29.768,48.08 29.576,48.848 29.576,49.84 C29.576,50.832 29.768,51.616 30.168,52.192 C30.616,52.832 31.288,53.168 32.184,53.168 C33.016,53.168 33.656,52.848 34.12,52.208 C34.52,51.632 34.728,50.88 34.728,49.952 L34.728,49.792 C34.728,48.832 34.488,48.048 34.04,47.456 C33.576,46.848 32.968,46.56 32.232,46.56 Z M41.368,45.504 C42.696,45.504 43.704,45.952 44.376,46.848 C44.984,47.648 45.304,48.784 45.336,50.224 L38.808,50.224 C38.872,51.152 39.112,51.872 39.56,52.384 C40.008,52.896 40.632,53.152 41.416,53.152 C42.088,53.152 42.648,52.976 43.064,52.64 C43.416,52.352 43.688,51.92 43.896,51.344 L45.176,51.344 C44.984,52.144 44.616,52.784 44.056,53.296 C43.368,53.904 42.488,54.224 41.416,54.224 C40.232,54.224 39.272,53.824 38.568,53.056 C37.832,52.256 37.48,51.2 37.48,49.856 C37.48,48.64 37.816,47.616 38.52,46.8 C39.224,45.936 40.168,45.504 41.368,45.504 Z M41.4,46.576 C40.664,46.576 40.072,46.816 39.624,47.296 C39.176,47.776 38.92,48.416 38.84,49.232 L44.008,49.232 C43.848,47.456 42.968,46.576 41.4,46.576 Z M50.472,45.504 C50.92,45.504 51.304,45.568 51.608,45.696 L51.608,46.976 C51.192,46.848 50.776,46.8 50.376,46.8 C49.736,46.8 49.192,47.072 48.76,47.648 C48.312,48.192 48.104,48.848 48.104,49.616 L48.104,54 L46.84,54 L46.84,45.728 L48.104,45.728 L48.104,47.168 C48.328,46.688 48.616,46.304 48.968,46.032 C49.4,45.68 49.896,45.504 50.472,45.504 Z M52.936,42.352 L54.2,42.352 L54.2,54 L52.936,54 L52.936,42.352 Z M60.04,45.504 C61.224,45.504 62.088,45.808 62.664,46.432 C63.144,46.976 63.4,47.728 63.4,48.688 L63.4,54 L62.2,54 L62.2,52.608 C61.88,53.056 61.448,53.424 60.936,53.712 C60.328,54.048 59.64,54.224 58.872,54.224 C58.04,54.224 57.384,54.016 56.888,53.6 C56.376,53.168 56.12,52.608 56.12,51.936 C56.12,50.992 56.488,50.288 57.256,49.808 C57.928,49.36 58.888,49.12 60.136,49.104 L62.12,49.072 L62.12,48.64 C62.12,47.248 61.4,46.56 59.96,46.56 C59.352,46.56 58.856,46.672 58.472,46.928 C58.04,47.184 57.768,47.584 57.64,48.112 L56.376,48.016 C56.552,47.152 56.984,46.496 57.656,46.08 C58.264,45.696 59.048,45.504 60.04,45.504 Z M62.12,50.032 L60.216,50.064 C58.36,50.096 57.432,50.704 57.432,51.904 C57.432,52.288 57.576,52.592 57.896,52.848 C58.216,53.088 58.632,53.216 59.144,53.216 C59.928,53.216 60.616,52.96 61.224,52.448 C61.816,51.952 62.12,51.376 62.12,50.736 L62.12,50.032 Z M69.256,45.504 C71.304,45.504 72.344,46.64 72.344,48.912 L72.344,54 L71.064,54 L71.064,49.008 C71.064,47.392 70.328,46.592 68.888,46.592 C68.312,46.592 67.816,46.8 67.4,47.216 C66.952,47.664 66.712,48.256 66.664,49.008 L66.664,54 L65.384,54 L65.384,45.728 L66.664,45.728 L66.664,46.944 C66.952,46.48 67.32,46.128 67.768,45.888 C68.216,45.632 68.712,45.504 69.256,45.504 Z M80.44,42.352 L81.72,42.352 L81.72,54 L80.52,54 L80.52,52.64 C79.944,53.696 79.016,54.224 77.768,54.224 C76.552,54.224 75.608,53.776 74.936,52.912 C74.312,52.112 74.008,51.088 74.008,49.84 C74.008,48.624 74.312,47.632 74.936,46.832 C75.608,45.936 76.52,45.504 77.704,45.504 C78.888,45.504 79.8,46.08 80.44,47.248 L80.44,42.352 Z M77.976,46.56 C77.064,46.56 76.376,46.88 75.928,47.52 C75.512,48.08 75.32,48.848 75.32,49.84 C75.32,50.832 75.512,51.616 75.912,52.192 C76.36,52.832 77.032,53.168 77.928,53.168 C78.76,53.168 79.4,52.848 79.864,52.208 C80.264,51.632 80.472,50.88 80.472,49.952 L80.472,49.792 C80.472,48.832 80.232,48.048 79.784,47.456 C79.32,46.848 78.712,46.56 77.976,46.56 Z M86.632,45.504 C88.68,45.504 89.8,46.352 90.024,48.08 L88.776,48.08 C88.664,47.568 88.456,47.184 88.136,46.96 C87.784,46.704 87.272,46.576 86.616,46.576 C86.04,46.576 85.592,46.672 85.272,46.896 C84.92,47.104 84.744,47.392 84.744,47.76 C84.744,48.112 84.968,48.416 85.448,48.656 C85.752,48.8 86.328,48.976 87.16,49.2 C88.152,49.44 88.856,49.696 89.288,49.968 C89.944,50.384 90.28,50.944 90.28,51.664 C90.28,53.36 89.112,54.224 86.776,54.224 C84.6,54.224 83.416,53.264 83.224,51.36 L84.472,51.36 C84.568,52.016 84.808,52.48 85.16,52.768 C85.512,53.024 86.04,53.152 86.744,53.152 C88.216,53.152 88.968,52.672 88.968,51.744 C88.968,51.28 88.696,50.928 88.184,50.672 C87.912,50.544 87.32,50.368 86.424,50.144 C85.448,49.904 84.76,49.664 84.376,49.408 C83.736,49.024 83.432,48.496 83.432,47.792 C83.432,47.088 83.736,46.544 84.36,46.128 C84.936,45.712 85.704,45.504 86.632,45.504 Z"/>
        </g>
        <g transform="translate(548 225)">
          <circle cx="49" cy="49" r="49" fill="#39C2D7" stroke="#39C2D7" stroke-width="3"/>
          <path fill="#FFF" d="M17.36,42.352 C18.64,42.352 19.664,42.64 20.4,43.232 C21.168,43.84 21.6,44.752 21.712,45.952 L20.416,45.952 C20.272,45.12 19.952,44.512 19.456,44.112 C18.944,43.696 18.224,43.504 17.296,43.504 C16.448,43.504 15.792,43.632 15.312,43.92 C14.768,44.24 14.496,44.72 14.496,45.376 C14.496,45.952 14.816,46.416 15.472,46.768 C15.76,46.928 16.464,47.168 17.568,47.488 C19.072,47.936 20.064,48.304 20.544,48.592 C21.488,49.168 21.968,49.968 21.968,51.008 C21.968,52 21.568,52.8 20.768,53.376 C19.968,53.936 18.896,54.224 17.536,54.224 C16.192,54.224 15.136,53.936 14.368,53.36 C13.472,52.672 12.976,51.632 12.88,50.224 L14.176,50.224 C14.288,51.216 14.64,51.952 15.216,52.416 C15.744,52.832 16.512,53.056 17.536,53.056 C18.464,53.056 19.232,52.88 19.808,52.528 C20.384,52.176 20.672,51.696 20.672,51.088 C20.672,50.368 20.288,49.808 19.536,49.408 C19.216,49.216 18.4,48.944 17.12,48.576 C15.744,48.16 14.864,47.84 14.496,47.648 C13.616,47.136 13.184,46.4 13.184,45.44 C13.184,44.448 13.6,43.664 14.448,43.12 C15.2,42.608 16.176,42.352 17.36,42.352 Z M23.728,42.352 L24.992,42.352 L24.992,54 L23.728,54 L23.728,42.352 Z M30.928,45.504 C32.16,45.504 33.152,45.92 33.888,46.784 C34.592,47.6 34.944,48.624 34.944,49.872 C34.944,51.104 34.592,52.128 33.904,52.928 C33.152,53.792 32.16,54.224 30.928,54.224 C29.68,54.224 28.704,53.792 27.968,52.928 C27.264,52.128 26.912,51.104 26.912,49.872 C26.912,48.624 27.264,47.6 27.968,46.784 C28.704,45.92 29.68,45.504 30.928,45.504 Z M30.928,46.576 C30.048,46.576 29.36,46.912 28.88,47.584 C28.432,48.192 28.224,48.944 28.224,49.872 C28.224,50.784 28.432,51.536 28.88,52.144 C29.36,52.816 30.048,53.152 30.928,53.152 C31.792,53.152 32.48,52.816 32.992,52.144 C33.424,51.536 33.648,50.768 33.648,49.872 C33.648,48.944 33.424,48.192 32.992,47.584 C32.48,46.912 31.792,46.576 30.928,46.576 Z M35.696,45.728 L37.104,45.728 L39.472,52.4 L41.84,45.728 L43.248,45.728 L40.112,54 L38.816,54 L35.696,45.728 Z M47.728,45.504 C49.056,45.504 50.064,45.952 50.736,46.848 C51.344,47.648 51.664,48.784 51.696,50.224 L45.168,50.224 C45.232,51.152 45.472,51.872 45.92,52.384 C46.368,52.896 46.992,53.152 47.776,53.152 C48.448,53.152 49.008,52.976 49.424,52.64 C49.776,52.352 50.048,51.92 50.256,51.344 L51.536,51.344 C51.344,52.144 50.976,52.784 50.416,53.296 C49.728,53.904 48.848,54.224 47.776,54.224 C46.592,54.224 45.632,53.824 44.928,53.056 C44.192,52.256 43.84,51.2 43.84,49.856 C43.84,48.64 44.176,47.616 44.88,46.8 C45.584,45.936 46.528,45.504 47.728,45.504 Z M47.76,46.576 C47.024,46.576 46.432,46.816 45.984,47.296 C45.536,47.776 45.28,48.416 45.2,49.232 L50.368,49.232 C50.208,47.456 49.328,46.576 47.76,46.576 Z M57.072,45.504 C59.12,45.504 60.16,46.64 60.16,48.912 L60.16,54 L58.88,54 L58.88,49.008 C58.88,47.392 58.144,46.592 56.704,46.592 C56.128,46.592 55.632,46.8 55.216,47.216 C54.768,47.664 54.528,48.256 54.48,49.008 L54.48,54 L53.2,54 L53.2,45.728 L54.48,45.728 L54.48,46.944 C54.768,46.48 55.136,46.128 55.584,45.888 C56.032,45.632 56.528,45.504 57.072,45.504 Z M65.072,45.504 C67.12,45.504 68.24,46.352 68.464,48.08 L67.216,48.08 C67.104,47.568 66.896,47.184 66.576,46.96 C66.224,46.704 65.712,46.576 65.056,46.576 C64.48,46.576 64.032,46.672 63.712,46.896 C63.36,47.104 63.184,47.392 63.184,47.76 C63.184,48.112 63.408,48.416 63.888,48.656 C64.192,48.8 64.768,48.976 65.6,49.2 C66.592,49.44 67.296,49.696 67.728,49.968 C68.384,50.384 68.72,50.944 68.72,51.664 C68.72,53.36 67.552,54.224 65.216,54.224 C63.04,54.224 61.856,53.264 61.664,51.36 L62.912,51.36 C63.008,52.016 63.248,52.48 63.6,52.768 C63.952,53.024 64.48,53.152 65.184,53.152 C66.656,53.152 67.408,52.672 67.408,51.744 C67.408,51.28 67.136,50.928 66.624,50.672 C66.352,50.544 65.76,50.368 64.864,50.144 C63.888,49.904 63.2,49.664 62.816,49.408 C62.176,49.024 61.872,48.496 61.872,47.792 C61.872,47.088 62.176,46.544 62.8,46.128 C63.376,45.712 64.144,45.504 65.072,45.504 Z M70.224,42.352 L71.504,42.352 L71.504,49.568 L75.648,45.728 L77.344,45.728 L73.696,49.056 L77.696,54 L76.048,54 L72.816,49.888 L71.504,51.072 L71.504,54 L70.224,54 L70.224,42.352 Z M82.384,42.448 L83.84,42.448 L81.664,44.784 L80.784,44.784 L82.384,42.448 Z M77.776,45.728 L79.168,45.728 L81.696,52.256 L84.144,45.728 L85.552,45.728 L81.024,57.168 L79.632,57.168 L81.056,53.808 L77.776,45.728 Z"/>
        </g>
        <g transform="translate(341 356)">
          <circle cx="49" cy="49" r="49" fill="#8F1F38"/>
          <path fill="#FFF" d="M21.992,42.352 C23.272,42.352 24.296,42.64 25.032,43.232 C25.8,43.84 26.232,44.752 26.344,45.952 L25.048,45.952 C24.904,45.12 24.584,44.512 24.088,44.112 C23.576,43.696 22.856,43.504 21.928,43.504 C21.08,43.504 20.424,43.632 19.944,43.92 C19.4,44.24 19.128,44.72 19.128,45.376 C19.128,45.952 19.448,46.416 20.104,46.768 C20.392,46.928 21.096,47.168 22.2,47.488 C23.704,47.936 24.696,48.304 25.176,48.592 C26.12,49.168 26.6,49.968 26.6,51.008 C26.6,52 26.2,52.8 25.4,53.376 C24.6,53.936 23.528,54.224 22.168,54.224 C20.824,54.224 19.768,53.936 19,53.36 C18.104,52.672 17.608,51.632 17.512,50.224 L18.808,50.224 C18.92,51.216 19.272,51.952 19.848,52.416 C20.376,52.832 21.144,53.056 22.168,53.056 C23.096,53.056 23.864,52.88 24.44,52.528 C25.016,52.176 25.304,51.696 25.304,51.088 C25.304,50.368 24.92,49.808 24.168,49.408 C23.848,49.216 23.032,48.944 21.752,48.576 C20.376,48.16 19.496,47.84 19.128,47.648 C18.248,47.136 17.816,46.4 17.816,45.44 C17.816,44.448 18.232,43.664 19.08,43.12 C19.832,42.608 20.808,42.352 21.992,42.352 Z M27.192,45.728 L28.6,45.728 L30.968,52.4 L33.336,45.728 L34.744,45.728 L31.608,54 L30.312,54 L27.192,45.728 Z M39.224,45.504 C40.552,45.504 41.56,45.952 42.232,46.848 C42.84,47.648 43.16,48.784 43.192,50.224 L36.664,50.224 C36.728,51.152 36.968,51.872 37.416,52.384 C37.864,52.896 38.488,53.152 39.272,53.152 C39.944,53.152 40.504,52.976 40.92,52.64 C41.272,52.352 41.544,51.92 41.752,51.344 L43.032,51.344 C42.84,52.144 42.472,52.784 41.912,53.296 C41.224,53.904 40.344,54.224 39.272,54.224 C38.088,54.224 37.128,53.824 36.424,53.056 C35.688,52.256 35.336,51.2 35.336,49.856 C35.336,48.64 35.672,47.616 36.376,46.8 C37.08,45.936 38.024,45.504 39.224,45.504 Z M39.256,46.576 C38.52,46.576 37.928,46.816 37.48,47.296 C37.032,47.776 36.776,48.416 36.696,49.232 L41.864,49.232 C41.704,47.456 40.824,46.576 39.256,46.576 Z M48.568,45.504 C50.616,45.504 51.656,46.64 51.656,48.912 L51.656,54 L50.376,54 L50.376,49.008 C50.376,47.392 49.64,46.592 48.2,46.592 C47.624,46.592 47.128,46.8 46.712,47.216 C46.264,47.664 46.024,48.256 45.976,49.008 L45.976,54 L44.696,54 L44.696,45.728 L45.976,45.728 L45.976,46.944 C46.264,46.48 46.632,46.128 47.08,45.888 C47.528,45.632 48.024,45.504 48.568,45.504 Z M56.568,45.504 C58.616,45.504 59.736,46.352 59.96,48.08 L58.712,48.08 C58.6,47.568 58.392,47.184 58.072,46.96 C57.72,46.704 57.208,46.576 56.552,46.576 C55.976,46.576 55.528,46.672 55.208,46.896 C54.856,47.104 54.68,47.392 54.68,47.76 C54.68,48.112 54.904,48.416 55.384,48.656 C55.688,48.8 56.264,48.976 57.096,49.2 C58.088,49.44 58.792,49.696 59.224,49.968 C59.88,50.384 60.216,50.944 60.216,51.664 C60.216,53.36 59.048,54.224 56.712,54.224 C54.536,54.224 53.352,53.264 53.16,51.36 L54.408,51.36 C54.504,52.016 54.744,52.48 55.096,52.768 C55.448,53.024 55.976,53.152 56.68,53.152 C58.152,53.152 58.904,52.672 58.904,51.744 C58.904,51.28 58.632,50.928 58.12,50.672 C57.848,50.544 57.256,50.368 56.36,50.144 C55.384,49.904 54.696,49.664 54.312,49.408 C53.672,49.024 53.368,48.496 53.368,47.792 C53.368,47.088 53.672,46.544 54.296,46.128 C54.872,45.712 55.64,45.504 56.568,45.504 Z M61.72,42.352 L63,42.352 L63,49.568 L67.144,45.728 L68.84,45.728 L65.192,49.056 L69.192,54 L67.544,54 L64.312,49.888 L63,51.072 L63,54 L61.72,54 L61.72,42.352 Z M73.784,45.504 C74.968,45.504 75.832,45.808 76.408,46.432 C76.888,46.976 77.144,47.728 77.144,48.688 L77.144,54 L75.944,54 L75.944,52.608 C75.624,53.056 75.192,53.424 74.68,53.712 C74.072,54.048 73.384,54.224 72.616,54.224 C71.784,54.224 71.128,54.016 70.632,53.6 C70.12,53.168 69.864,52.608 69.864,51.936 C69.864,50.992 70.232,50.288 71,49.808 C71.672,49.36 72.632,49.12 73.88,49.104 L75.864,49.072 L75.864,48.64 C75.864,47.248 75.144,46.56 73.704,46.56 C73.096,46.56 72.6,46.672 72.216,46.928 C71.784,47.184 71.512,47.584 71.384,48.112 L70.12,48.016 C70.296,47.152 70.728,46.496 71.4,46.08 C72.008,45.696 72.792,45.504 73.784,45.504 Z M75.864,50.032 L73.96,50.064 C72.104,50.096 71.176,50.704 71.176,51.904 C71.176,52.288 71.32,52.592 71.64,52.848 C71.96,53.088 72.376,53.216 72.888,53.216 C73.672,53.216 74.36,52.96 74.968,52.448 C75.56,51.952 75.864,51.376 75.864,50.736 L75.864,50.032 Z"/>
        </g>
        <g transform="translate(3 240)">
          <circle cx="49" cy="49" r="49" fill="#9FB26B"/>
          <path fill="#FFF" d="M12.9,32.576 L17.572,32.576 C20.196,32.576 21.508,33.696 21.508,35.936 C21.508,38.192 20.18,39.328 17.556,39.328 L14.212,39.328 L14.212,44 L12.9,44 L12.9,32.576 Z M14.212,33.712 L14.212,38.192 L17.492,38.192 C18.42,38.192 19.092,38 19.54,37.632 C19.972,37.264 20.196,36.704 20.196,35.936 C20.196,35.168 19.972,34.608 19.524,34.272 C19.076,33.888 18.404,33.712 17.492,33.712 L14.212,33.712 Z M26.708,35.504 C27.94,35.504 28.932,35.92 29.668,36.784 C30.372,37.6 30.724,38.624 30.724,39.872 C30.724,41.104 30.372,42.128 29.684,42.928 C28.932,43.792 27.94,44.224 26.708,44.224 C25.46,44.224 24.484,43.792 23.748,42.928 C23.044,42.128 22.692,41.104 22.692,39.872 C22.692,38.624 23.044,37.6 23.748,36.784 C24.484,35.92 25.46,35.504 26.708,35.504 Z M26.708,36.576 C25.828,36.576 25.14,36.912 24.66,37.584 C24.212,38.192 24.004,38.944 24.004,39.872 C24.004,40.784 24.212,41.536 24.66,42.144 C25.14,42.816 25.828,43.152 26.708,43.152 C27.572,43.152 28.26,42.816 28.772,42.144 C29.204,41.536 29.428,40.768 29.428,39.872 C29.428,38.944 29.204,38.192 28.772,37.584 C28.26,36.912 27.572,36.576 26.708,36.576 Z M36.02,35.504 C36.468,35.504 36.852,35.568 37.156,35.696 L37.156,36.976 C36.74,36.848 36.324,36.8 35.924,36.8 C35.284,36.8 34.74,37.072 34.308,37.648 C33.86,38.192 33.652,38.848 33.652,39.616 L33.652,44 L32.388,44 L32.388,35.728 L33.652,35.728 L33.652,37.168 C33.876,36.688 34.164,36.304 34.516,36.032 C34.948,35.68 35.444,35.504 36.02,35.504 Z M40.436,33.056 L40.436,35.728 L42.484,35.728 L42.484,36.8 L40.436,36.8 L40.436,42.064 C40.436,42.368 40.484,42.592 40.612,42.72 C40.724,42.848 40.932,42.928 41.22,42.928 L42.276,42.928 L42.276,44 L41.028,44 C40.356,44 39.86,43.824 39.572,43.472 C39.3,43.152 39.172,42.688 39.172,42.064 L39.172,36.8 L37.508,36.8 L37.508,35.728 L39.172,35.728 L39.172,33.584 L40.436,33.056 Z M43.908,35.728 L45.188,35.728 L45.188,40.784 C45.188,41.568 45.348,42.16 45.684,42.544 C46.02,42.928 46.564,43.136 47.316,43.136 C47.86,43.136 48.356,42.912 48.788,42.496 C49.236,42.048 49.508,41.472 49.604,40.768 L49.604,35.728 L50.884,35.728 L50.884,44 L49.604,44 L49.604,42.72 C48.932,43.712 48.036,44.224 46.916,44.224 C44.9,44.224 43.908,43.088 43.908,40.848 L43.908,35.728 Z M56.276,35.504 C57.524,35.504 58.452,36.048 59.06,37.152 L59.06,35.728 L60.34,35.728 L60.34,43.424 C60.34,46.064 59.076,47.392 56.564,47.392 C55.444,47.392 54.58,47.168 54.004,46.72 C53.412,46.272 53.044,45.6 52.9,44.704 L54.18,44.704 C54.276,45.264 54.516,45.68 54.884,45.936 C55.252,46.208 55.812,46.352 56.564,46.352 C58.228,46.352 59.06,45.424 59.06,43.6 L59.06,42.144 C58.452,43.248 57.524,43.808 56.276,43.808 C55.124,43.808 54.212,43.408 53.54,42.624 C52.868,41.856 52.548,40.88 52.548,39.68 C52.548,38.464 52.868,37.488 53.54,36.72 C54.212,35.904 55.124,35.504 56.276,35.504 Z M56.468,36.56 C55.636,36.56 54.996,36.848 54.532,37.456 C54.084,38 53.86,38.752 53.86,39.68 C53.86,40.544 54.052,41.264 54.452,41.808 C54.9,42.416 55.556,42.736 56.452,42.736 C57.284,42.736 57.924,42.448 58.404,41.872 C58.852,41.312 59.076,40.576 59.076,39.68 C59.076,38.752 58.852,38 58.404,37.456 C57.924,36.848 57.284,36.56 56.468,36.56 Z M62.324,35.728 L63.604,35.728 L63.604,40.784 C63.604,41.568 63.764,42.16 64.1,42.544 C64.436,42.928 64.98,43.136 65.732,43.136 C66.276,43.136 66.772,42.912 67.204,42.496 C67.652,42.048 67.924,41.472 68.02,40.768 L68.02,35.728 L69.3,35.728 L69.3,44 L68.02,44 L68.02,42.72 C67.348,43.712 66.452,44.224 65.332,44.224 C63.316,44.224 62.324,43.088 62.324,40.848 L62.324,35.728 Z M74.196,32.544 L75.284,32.544 L76.996,34.576 L76.132,34.576 L74.74,33.152 L73.332,34.576 L72.468,34.576 L74.196,32.544 Z M74.692,35.504 C76.02,35.504 77.028,35.952 77.7,36.848 C78.308,37.648 78.628,38.784 78.66,40.224 L72.132,40.224 C72.196,41.152 72.436,41.872 72.884,42.384 C73.332,42.896 73.956,43.152 74.74,43.152 C75.412,43.152 75.972,42.976 76.388,42.64 C76.74,42.352 77.012,41.92 77.22,41.344 L78.5,41.344 C78.308,42.144 77.94,42.784 77.38,43.296 C76.692,43.904 75.812,44.224 74.74,44.224 C73.556,44.224 72.596,43.824 71.892,43.056 C71.156,42.256 70.804,41.2 70.804,39.856 C70.804,38.64 71.14,37.616 71.844,36.8 C72.548,35.936 73.492,35.504 74.692,35.504 Z M74.724,36.576 C73.988,36.576 73.396,36.816 72.948,37.296 C72.5,37.776 72.244,38.416 72.164,39.232 L77.332,39.232 C77.172,37.456 76.292,36.576 74.724,36.576 Z M83.092,35.504 C85.14,35.504 86.26,36.352 86.484,38.08 L85.236,38.08 C85.124,37.568 84.916,37.184 84.596,36.96 C84.244,36.704 83.732,36.576 83.076,36.576 C82.5,36.576 82.052,36.672 81.732,36.896 C81.38,37.104 81.204,37.392 81.204,37.76 C81.204,38.112 81.428,38.416 81.908,38.656 C82.212,38.8 82.788,38.976 83.62,39.2 C84.612,39.44 85.316,39.696 85.748,39.968 C86.404,40.384 86.74,40.944 86.74,41.664 C86.74,43.36 85.572,44.224 83.236,44.224 C81.06,44.224 79.876,43.264 79.684,41.36 L80.932,41.36 C81.028,42.016 81.268,42.48 81.62,42.768 C81.972,43.024 82.5,43.152 83.204,43.152 C84.676,43.152 85.428,42.672 85.428,41.744 C85.428,41.28 85.156,40.928 84.644,40.672 C84.372,40.544 83.78,40.368 82.884,40.144 C81.908,39.904 81.22,39.664 80.836,39.408 C80.196,39.024 79.892,38.496 79.892,37.792 C79.892,37.088 80.196,36.544 80.82,36.128 C81.396,35.712 82.164,35.504 83.092,35.504 Z M29.876,54.576 L34.98,54.576 C36.036,54.576 36.884,54.832 37.508,55.344 C38.116,55.856 38.42,56.56 38.42,57.456 C38.42,58.096 38.244,58.656 37.908,59.12 C37.556,59.536 37.092,59.84 36.516,60.032 C37.268,60.16 37.844,60.48 38.26,60.96 C38.676,61.44 38.9,62.048 38.9,62.816 C38.9,63.936 38.5,64.768 37.716,65.312 C37.044,65.76 36.116,66 34.948,66 L29.876,66 L29.876,54.576 Z M31.188,55.68 L31.188,59.568 L34.66,59.568 C35.46,59.568 36.068,59.392 36.484,59.072 C36.9,58.736 37.124,58.24 37.124,57.584 C37.124,56.944 36.916,56.464 36.5,56.144 C36.084,55.824 35.476,55.68 34.676,55.68 L31.188,55.68 Z M31.188,60.656 L31.188,64.896 L34.836,64.896 C35.636,64.896 36.26,64.736 36.74,64.448 C37.3,64.096 37.588,63.536 37.588,62.8 C37.588,62.064 37.332,61.52 36.852,61.168 C36.388,60.816 35.716,60.656 34.836,60.656 L31.188,60.656 Z M44.18,57.504 C44.628,57.504 45.012,57.568 45.316,57.696 L45.316,58.976 C44.9,58.848 44.484,58.8 44.084,58.8 C43.444,58.8 42.9,59.072 42.468,59.648 C42.02,60.192 41.812,60.848 41.812,61.616 L41.812,66 L40.548,66 L40.548,57.728 L41.812,57.728 L41.812,59.168 C42.036,58.688 42.324,58.304 42.676,58.032 C43.108,57.68 43.604,57.504 44.18,57.504 Z M49.988,57.504 C51.172,57.504 52.036,57.808 52.612,58.432 C53.092,58.976 53.348,59.728 53.348,60.688 L53.348,66 L52.148,66 L52.148,64.608 C51.828,65.056 51.396,65.424 50.884,65.712 C50.276,66.048 49.588,66.224 48.82,66.224 C47.988,66.224 47.332,66.016 46.836,65.6 C46.324,65.168 46.068,64.608 46.068,63.936 C46.068,62.992 46.436,62.288 47.204,61.808 C47.876,61.36 48.836,61.12 50.084,61.104 L52.068,61.072 L52.068,60.64 C52.068,59.248 51.348,58.56 49.908,58.56 C49.3,58.56 48.804,58.672 48.42,58.928 C47.988,59.184 47.716,59.584 47.588,60.112 L46.324,60.016 C46.5,59.152 46.932,58.496 47.604,58.08 C48.212,57.696 48.996,57.504 49.988,57.504 Z M52.068,62.032 L50.164,62.064 C48.308,62.096 47.38,62.704 47.38,63.904 C47.38,64.288 47.524,64.592 47.844,64.848 C48.164,65.088 48.58,65.216 49.092,65.216 C49.876,65.216 50.564,64.96 51.172,64.448 C51.764,63.952 52.068,63.376 52.068,62.736 L52.068,62.032 Z M58.26,57.504 C60.308,57.504 61.428,58.352 61.652,60.08 L60.404,60.08 C60.292,59.568 60.084,59.184 59.764,58.96 C59.412,58.704 58.9,58.576 58.244,58.576 C57.668,58.576 57.22,58.672 56.9,58.896 C56.548,59.104 56.372,59.392 56.372,59.76 C56.372,60.112 56.596,60.416 57.076,60.656 C57.38,60.8 57.956,60.976 58.788,61.2 C59.78,61.44 60.484,61.696 60.916,61.968 C61.572,62.384 61.908,62.944 61.908,63.664 C61.908,65.36 60.74,66.224 58.404,66.224 C56.228,66.224 55.044,65.264 54.852,63.36 L56.1,63.36 C56.196,64.016 56.436,64.48 56.788,64.768 C57.14,65.024 57.668,65.152 58.372,65.152 C59.844,65.152 60.596,64.672 60.596,63.744 C60.596,63.28 60.324,62.928 59.812,62.672 C59.54,62.544 58.948,62.368 58.052,62.144 C57.076,61.904 56.388,61.664 56.004,61.408 C55.364,61.024 55.06,60.496 55.06,59.792 C55.06,59.088 55.364,58.544 55.988,58.128 C56.564,57.712 57.332,57.504 58.26,57.504 Z M64.468,54.608 C64.74,54.608 64.964,54.688 65.156,54.88 C65.348,55.04 65.444,55.264 65.444,55.552 C65.444,55.824 65.348,56.048 65.156,56.24 C64.964,56.416 64.74,56.512 64.468,56.512 C64.196,56.512 63.972,56.416 63.78,56.24 C63.588,56.048 63.508,55.824 63.508,55.552 C63.508,55.264 63.588,55.04 63.78,54.88 C63.972,54.688 64.196,54.608 64.468,54.608 Z M63.828,57.728 L65.108,57.728 L65.108,66 L63.828,66 L63.828,57.728 Z M67.764,54.352 L69.028,54.352 L69.028,66 L67.764,66 L67.764,54.352 Z"/>
        </g>
        <g transform="translate(98 51)">
          <circle cx="49" cy="49" r="49" fill="#B22746"/>
          <path fill="#FFF" d="M27.5600312,54.2890625 C25.7631473,54.2890625 24.3751403,53.761724 23.3959687,52.7070312 C22.4167972,51.6523385 21.9272187,50.1588638 21.9272187,48.2265625 C21.9272187,46.2994695 22.4259117,44.8046928 23.4233125,43.7421875 C24.4207133,42.6796822 25.8256472,42.1484375 27.6381562,42.1484375 C28.6746198,42.1484375 29.8881493,42.3177066 31.2787812,42.65625 L31.2787812,44.1953125 C29.69544,43.6484348 28.474098,43.375 27.6147187,43.375 C26.3595041,43.375 25.3881597,43.7994749 24.7006562,44.6484375 C24.0131528,45.4974001 23.6694062,46.6953048 23.6694062,48.2421875 C23.6694062,49.7161532 24.0365901,50.878902 24.7709687,51.7304688 C25.5053474,52.5820355 26.5079416,53.0078125 27.7787812,53.0078125 C28.8725367,53.0078125 30.0444,52.6718784 31.2944062,52 L31.2944062,53.40625 C30.1537755,53.9947946 28.9089963,54.2890625 27.5600312,54.2890625 Z M30.2944062,38.9609375 L28.4115937,41.46875 L26.7084687,41.46875 L24.8256562,38.9609375 L25.9819062,38.9609375 L27.5522187,40.5390625 L27.5678437,40.5390625 L29.1381562,38.9609375 L30.2944062,38.9609375 Z M36.5850312,45.504 C37.9130312,45.504 38.9210312,45.952 39.5930312,46.848 C40.2010312,47.648 40.5210312,48.784 40.5530312,50.224 L34.0250312,50.224 C34.0890312,51.152 34.3290312,51.872 34.7770312,52.384 C35.2250312,52.896 35.8490312,53.152 36.6330312,53.152 C37.3050312,53.152 37.8650312,52.976 38.2810312,52.64 C38.6330312,52.352 38.9050312,51.92 39.1130312,51.344 L40.3930312,51.344 C40.2010312,52.144 39.8330312,52.784 39.2730312,53.296 C38.5850312,53.904 37.7050312,54.224 36.6330312,54.224 C35.4490312,54.224 34.4890312,53.824 33.7850312,53.056 C33.0490312,52.256 32.6970312,51.2 32.6970312,49.856 C32.6970312,48.64 33.0330312,47.616 33.7370312,46.8 C34.4410312,45.936 35.3850312,45.504 36.5850312,45.504 Z M36.6170312,46.576 C35.8810312,46.576 35.2890312,46.816 34.8410312,47.296 C34.3930312,47.776 34.1370312,48.416 34.0570312,49.232 L39.2250312,49.232 C39.0650312,47.456 38.1850312,46.576 36.6170312,46.576 Z M44.8540937,54.1953125 C44.1509652,54.1953125 43.2968071,54.0312516 42.2915937,53.703125 L42.2915937,52.2890625 C43.2968071,52.789065 44.1717984,53.0390625 44.9165937,53.0390625 C45.3593043,53.0390625 45.7264881,52.919272 46.0181562,52.6796875 C46.3098244,52.440103 46.4556562,52.1406268 46.4556562,51.78125 C46.4556562,51.2552057 46.0468062,50.8203142 45.2290937,50.4765625 L44.3306562,50.09375 C43.0025246,49.5416639 42.3384687,48.747401 42.3384687,47.7109375 C42.3384687,46.9713505 42.6001849,46.389325 43.123625,45.9648438 C43.6470651,45.5403625 44.3645059,45.328125 45.2759687,45.328125 C45.7499295,45.328125 46.3358611,45.3932285 47.0337812,45.5234375 L47.3540937,45.5859375 L47.3540937,46.8671875 C46.4947145,46.6119779 45.8124296,46.484375 45.3072187,46.484375 C44.3176305,46.484375 43.8228437,46.8437464 43.8228437,47.5625 C43.8228437,48.026044 44.19784,48.4166651 44.9478437,48.734375 L45.6900312,49.046875 C46.5285771,49.4010434 47.1223212,49.7747376 47.4712812,50.1679688 C47.8202413,50.5611999 47.9947187,51.0520804 47.9947187,51.640625 C47.9947187,52.3854204 47.7004509,52.9973934 47.1119062,53.4765625 C46.5233616,53.9557316 45.770765,54.1953125 44.8540937,54.1953125 Z M47.8931562,41.46875 L46.0103437,43.9765625 L44.3072187,43.9765625 L42.4244062,41.46875 L43.5806562,41.46875 L45.1509687,43.046875 L45.1665937,43.046875 L46.7369062,41.46875 L47.8931562,41.46875 Z M52.4212813,43.056 L52.4212813,45.728 L54.4692812,45.728 L54.4692812,46.8 L52.4212813,46.8 L52.4212813,52.064 C52.4212813,52.368 52.4692812,52.592 52.5972812,52.72 C52.7092813,52.848 52.9172813,52.928 53.2052812,52.928 L54.2612812,52.928 L54.2612812,54 L53.0132813,54 C52.3412812,54 51.8452812,53.824 51.5572813,53.472 C51.2852812,53.152 51.1572812,52.688 51.1572812,52.064 L51.1572812,46.8 L49.4932812,46.8 L49.4932812,45.728 L51.1572812,45.728 L51.1572812,43.584 L52.4212813,43.056 Z M56.9492812,42.608 C57.2212812,42.608 57.4452812,42.688 57.6372812,42.88 C57.8292812,43.04 57.9252812,43.264 57.9252812,43.552 C57.9252812,43.824 57.8292812,44.048 57.6372812,44.24 C57.4452812,44.416 57.2212812,44.512 56.9492812,44.512 C56.6772812,44.512 56.4532812,44.416 56.2612812,44.24 C56.0692812,44.048 55.9892812,43.824 55.9892812,43.552 C55.9892812,43.264 56.0692812,43.04 56.2612812,42.88 C56.4532812,42.688 56.6772812,42.608 56.9492812,42.608 Z M56.3092812,45.728 L57.5892812,45.728 L57.5892812,54 L56.3092812,54 L56.3092812,45.728 Z M63.8612812,45.504 C65.9092813,45.504 66.9492812,46.64 66.9492812,48.912 L66.9492812,54 L65.6692812,54 L65.6692812,49.008 C65.6692812,47.392 64.9332812,46.592 63.4932812,46.592 C62.9172813,46.592 62.4212812,46.8 62.0052812,47.216 C61.5572813,47.664 61.3172812,48.256 61.2692812,49.008 L61.2692812,54 L59.9892812,54 L59.9892812,45.728 L61.2692812,45.728 L61.2692812,46.944 C61.5572813,46.48 61.9252812,46.128 62.3732812,45.888 C62.8212812,45.632 63.3172812,45.504 63.8612812,45.504 Z M72.5332813,45.504 C73.7172812,45.504 74.5812813,45.808 75.1572812,46.432 C75.6372813,46.976 75.8932813,47.728 75.8932813,48.688 L75.8932813,54 L74.6932812,54 L74.6932812,52.608 C74.3732813,53.056 73.9412813,53.424 73.4292813,53.712 C72.8212812,54.048 72.1332813,54.224 71.3652813,54.224 C70.5332813,54.224 69.8772813,54.016 69.3812813,53.6 C68.8692813,53.168 68.6132812,52.608 68.6132812,51.936 C68.6132812,50.992 68.9812813,50.288 69.7492813,49.808 C70.4212813,49.36 71.3812813,49.12 72.6292813,49.104 L74.6132812,49.072 L74.6132812,48.64 C74.6132812,47.248 73.8932813,46.56 72.4532813,46.56 C71.8452812,46.56 71.3492813,46.672 70.9652813,46.928 C70.5332813,47.184 70.2612812,47.584 70.1332813,48.112 L68.8692813,48.016 C69.0452813,47.152 69.4772813,46.496 70.1492813,46.08 C70.7572813,45.696 71.5412812,45.504 72.5332813,45.504 Z M74.6132812,50.032 L72.7092813,50.064 C70.8532813,50.096 69.9252812,50.704 69.9252812,51.904 C69.9252812,52.288 70.0692813,52.592 70.3892812,52.848 C70.7092813,53.088 71.1252813,53.216 71.6372813,53.216 C72.4212813,53.216 73.1092813,52.96 73.7172812,52.448 C74.3092812,51.952 74.6132812,51.376 74.6132812,50.736 L74.6132812,50.032 Z"/>
        </g>
        <g transform="translate(0 127)">
          <circle cx="49" cy="49" r="49" fill="#54B5C4"/>
          <path fill="#FFF" d="M23.44,42.576 L31.536,42.576 L31.536,43.712 L24.752,43.712 L24.752,47.536 L31.152,47.536 L31.152,48.672 L24.752,48.672 L24.752,52.864 L31.808,52.864 L31.808,54 L23.44,54 L23.44,42.576 Z M37.344,45.504 C39.392,45.504 40.432,46.64 40.432,48.912 L40.432,54 L39.152,54 L39.152,49.008 C39.152,47.392 38.416,46.592 36.976,46.592 C36.4,46.592 35.904,46.8 35.488,47.216 C35.04,47.664 34.8,48.256 34.752,49.008 L34.752,54 L33.472,54 L33.472,45.728 L34.752,45.728 L34.752,46.944 C35.04,46.48 35.408,46.128 35.856,45.888 C36.304,45.632 36.8,45.504 37.344,45.504 Z M45.824,45.504 C47.072,45.504 48,46.048 48.608,47.152 L48.608,45.728 L49.888,45.728 L49.888,53.424 C49.888,56.064 48.624,57.392 46.112,57.392 C44.992,57.392 44.128,57.168 43.552,56.72 C42.96,56.272 42.592,55.6 42.448,54.704 L43.728,54.704 C43.824,55.264 44.064,55.68 44.432,55.936 C44.8,56.208 45.36,56.352 46.112,56.352 C47.776,56.352 48.608,55.424 48.608,53.6 L48.608,52.144 C48,53.248 47.072,53.808 45.824,53.808 C44.672,53.808 43.76,53.408 43.088,52.624 C42.416,51.856 42.096,50.88 42.096,49.68 C42.096,48.464 42.416,47.488 43.088,46.72 C43.76,45.904 44.672,45.504 45.824,45.504 Z M46.016,46.56 C45.184,46.56 44.544,46.848 44.08,47.456 C43.632,48 43.408,48.752 43.408,49.68 C43.408,50.544 43.6,51.264 44,51.808 C44.448,52.416 45.104,52.736 46,52.736 C46.832,52.736 47.472,52.448 47.952,51.872 C48.4,51.312 48.624,50.576 48.624,49.68 C48.624,48.752 48.4,48 47.952,47.456 C47.472,46.848 46.832,46.56 46.016,46.56 Z M52.128,42.352 L53.392,42.352 L53.392,54 L52.128,54 L52.128,42.352 Z M56.688,42.608 C56.96,42.608 57.184,42.688 57.376,42.88 C57.568,43.04 57.664,43.264 57.664,43.552 C57.664,43.824 57.568,44.048 57.376,44.24 C57.184,44.416 56.96,44.512 56.688,44.512 C56.416,44.512 56.192,44.416 56,44.24 C55.808,44.048 55.728,43.824 55.728,43.552 C55.728,43.264 55.808,43.04 56,42.88 C56.192,42.688 56.416,42.608 56.688,42.608 Z M56.048,45.728 L57.328,45.728 L57.328,54 L56.048,54 L56.048,45.728 Z M62.656,45.504 C64.704,45.504 65.824,46.352 66.048,48.08 L64.8,48.08 C64.688,47.568 64.48,47.184 64.16,46.96 C63.808,46.704 63.296,46.576 62.64,46.576 C62.064,46.576 61.616,46.672 61.296,46.896 C60.944,47.104 60.768,47.392 60.768,47.76 C60.768,48.112 60.992,48.416 61.472,48.656 C61.776,48.8 62.352,48.976 63.184,49.2 C64.176,49.44 64.88,49.696 65.312,49.968 C65.968,50.384 66.304,50.944 66.304,51.664 C66.304,53.36 65.136,54.224 62.8,54.224 C60.624,54.224 59.44,53.264 59.248,51.36 L60.496,51.36 C60.592,52.016 60.832,52.48 61.184,52.768 C61.536,53.024 62.064,53.152 62.768,53.152 C64.24,53.152 64.992,52.672 64.992,51.744 C64.992,51.28 64.72,50.928 64.208,50.672 C63.936,50.544 63.344,50.368 62.448,50.144 C61.472,49.904 60.784,49.664 60.4,49.408 C59.76,49.024 59.456,48.496 59.456,47.792 C59.456,47.088 59.76,46.544 60.384,46.128 C60.96,45.712 61.728,45.504 62.656,45.504 Z M67.808,42.352 L69.088,42.352 L69.088,47.088 C69.376,46.56 69.76,46.16 70.24,45.888 C70.688,45.632 71.184,45.504 71.744,45.504 C72.704,45.504 73.456,45.776 73.968,46.352 C74.48,46.912 74.736,47.728 74.736,48.784 L74.736,54 L73.456,54 L73.456,48.976 C73.456,48.208 73.264,47.616 72.912,47.2 C72.528,46.784 72,46.576 71.312,46.576 C70.672,46.576 70.144,46.832 69.728,47.344 C69.296,47.856 69.088,48.512 69.088,49.28 L69.088,54 L67.808,54 L67.808,42.352 Z"/>
        </g>
        <g transform="translate(436 42)">
          <circle cx="49" cy="49" r="49" fill="#B22746"/>
          <path fill="#FFF" d="M19.88,42.576 L23.976,42.576 C25.784,42.576 27.144,43.088 28.072,44.144 C28.92,45.104 29.352,46.496 29.352,48.288 C29.352,50.048 28.888,51.44 27.976,52.432 C27.016,53.472 25.64,54 23.848,54 L19.88,54 L19.88,42.576 Z M21.192,43.712 L21.192,52.864 L23.624,52.864 C25.112,52.864 26.232,52.464 26.984,51.68 C27.688,50.912 28.056,49.776 28.056,48.288 C28.056,46.752 27.72,45.616 27.064,44.88 C26.36,44.096 25.272,43.712 23.768,43.712 L21.192,43.712 Z M34.424,45.504 C35.752,45.504 36.76,45.952 37.432,46.848 C38.04,47.648 38.36,48.784 38.392,50.224 L31.864,50.224 C31.928,51.152 32.168,51.872 32.616,52.384 C33.064,52.896 33.688,53.152 34.472,53.152 C35.144,53.152 35.704,52.976 36.12,52.64 C36.472,52.352 36.744,51.92 36.952,51.344 L38.232,51.344 C38.04,52.144 37.672,52.784 37.112,53.296 C36.424,53.904 35.544,54.224 34.472,54.224 C33.288,54.224 32.328,53.824 31.624,53.056 C30.888,52.256 30.536,51.2 30.536,49.856 C30.536,48.64 30.872,47.616 31.576,46.8 C32.28,45.936 33.224,45.504 34.424,45.504 Z M34.456,46.576 C33.72,46.576 33.128,46.816 32.68,47.296 C32.232,47.776 31.976,48.416 31.896,49.232 L37.064,49.232 C36.904,47.456 36.024,46.576 34.456,46.576 Z M39.896,45.728 L41.176,45.728 L41.176,50.784 C41.176,51.568 41.336,52.16 41.672,52.544 C42.008,52.928 42.552,53.136 43.304,53.136 C43.848,53.136 44.344,52.912 44.776,52.496 C45.224,52.048 45.496,51.472 45.592,50.768 L45.592,45.728 L46.872,45.728 L46.872,54 L45.592,54 L45.592,52.72 C44.92,53.712 44.024,54.224 42.904,54.224 C40.888,54.224 39.896,53.088 39.896,50.848 L39.896,45.728 Z M51.064,43.056 L51.064,45.728 L53.112,45.728 L53.112,46.8 L51.064,46.8 L51.064,52.064 C51.064,52.368 51.112,52.592 51.24,52.72 C51.352,52.848 51.56,52.928 51.848,52.928 L52.904,52.928 L52.904,54 L51.656,54 C50.984,54 50.488,53.824 50.2,53.472 C49.928,53.152 49.8,52.688 49.8,52.064 L49.8,46.8 L48.136,46.8 L48.136,45.728 L49.8,45.728 L49.8,43.584 L51.064,43.056 Z M57.464,45.504 C59.512,45.504 60.632,46.352 60.856,48.08 L59.608,48.08 C59.496,47.568 59.288,47.184 58.968,46.96 C58.616,46.704 58.104,46.576 57.448,46.576 C56.872,46.576 56.424,46.672 56.104,46.896 C55.752,47.104 55.576,47.392 55.576,47.76 C55.576,48.112 55.8,48.416 56.28,48.656 C56.584,48.8 57.16,48.976 57.992,49.2 C58.984,49.44 59.688,49.696 60.12,49.968 C60.776,50.384 61.112,50.944 61.112,51.664 C61.112,53.36 59.944,54.224 57.608,54.224 C55.432,54.224 54.248,53.264 54.056,51.36 L55.304,51.36 C55.4,52.016 55.64,52.48 55.992,52.768 C56.344,53.024 56.872,53.152 57.576,53.152 C59.048,53.152 59.8,52.672 59.8,51.744 C59.8,51.28 59.528,50.928 59.016,50.672 C58.744,50.544 58.152,50.368 57.256,50.144 C56.28,49.904 55.592,49.664 55.208,49.408 C54.568,49.024 54.264,48.496 54.264,47.792 C54.264,47.088 54.568,46.544 55.192,46.128 C55.768,45.712 56.536,45.504 57.464,45.504 Z M66.184,45.504 C67.208,45.504 68.024,45.744 68.648,46.224 C69.288,46.72 69.672,47.472 69.816,48.48 L68.552,48.48 C68.44,47.84 68.184,47.36 67.784,47.04 C67.368,46.72 66.84,46.576 66.184,46.576 C65.384,46.576 64.744,46.88 64.28,47.488 C63.832,48.08 63.608,48.88 63.608,49.888 C63.608,50.896 63.816,51.696 64.264,52.272 C64.696,52.848 65.336,53.152 66.168,53.152 C67.576,53.152 68.392,52.432 68.584,51.008 L69.864,51.008 C69.672,52.064 69.272,52.88 68.632,53.424 C68.008,53.952 67.192,54.224 66.168,54.224 C64.92,54.224 63.96,53.808 63.272,52.976 C62.616,52.192 62.296,51.168 62.296,49.904 C62.296,48.64 62.616,47.616 63.272,46.816 C63.976,45.936 64.952,45.504 66.184,45.504 Z M71.368,42.352 L72.648,42.352 L72.648,47.088 C72.936,46.56 73.32,46.16 73.8,45.888 C74.248,45.632 74.744,45.504 75.304,45.504 C76.264,45.504 77.016,45.776 77.528,46.352 C78.04,46.912 78.296,47.728 78.296,48.784 L78.296,54 L77.016,54 L77.016,48.976 C77.016,48.208 76.824,47.616 76.472,47.2 C76.088,46.784 75.56,46.576 74.872,46.576 C74.232,46.576 73.704,46.832 73.288,47.344 C72.856,47.856 72.648,48.512 72.648,49.28 L72.648,54 L71.368,54 L71.368,42.352 Z"/>
        </g>
        <g transform="translate(325)">
          <circle cx="49" cy="49" r="49" fill="#2D9BAC"/>
          <path fill="#FFF" d="M27.288,42.576 L31.384,42.576 C33.192,42.576 34.552,43.088 35.48,44.144 C36.328,45.104 36.76,46.496 36.76,48.288 C36.76,50.048 36.296,51.44 35.384,52.432 C34.424,53.472 33.048,54 31.256,54 L27.288,54 L27.288,42.576 Z M28.6,43.712 L28.6,52.864 L31.032,52.864 C32.52,52.864 33.64,52.464 34.392,51.68 C35.096,50.912 35.464,49.776 35.464,48.288 C35.464,46.752 35.128,45.616 34.472,44.88 C33.768,44.096 32.68,43.712 31.176,43.712 L28.6,43.712 Z M42.024,45.504 C43.208,45.504 44.072,45.808 44.648,46.432 C45.128,46.976 45.384,47.728 45.384,48.688 L45.384,54 L44.184,54 L44.184,52.608 C43.864,53.056 43.432,53.424 42.92,53.712 C42.312,54.048 41.624,54.224 40.856,54.224 C40.024,54.224 39.368,54.016 38.872,53.6 C38.36,53.168 38.104,52.608 38.104,51.936 C38.104,50.992 38.472,50.288 39.24,49.808 C39.912,49.36 40.872,49.12 42.12,49.104 L44.104,49.072 L44.104,48.64 C44.104,47.248 43.384,46.56 41.944,46.56 C41.336,46.56 40.84,46.672 40.456,46.928 C40.024,47.184 39.752,47.584 39.624,48.112 L38.36,48.016 C38.536,47.152 38.968,46.496 39.64,46.08 C40.248,45.696 41.032,45.504 42.024,45.504 Z M44.104,50.032 L42.2,50.064 C40.344,50.096 39.416,50.704 39.416,51.904 C39.416,52.288 39.56,52.592 39.88,52.848 C40.2,53.088 40.616,53.216 41.128,53.216 C41.912,53.216 42.6,52.96 43.208,52.448 C43.8,51.952 44.104,51.376 44.104,50.736 L44.104,50.032 Z M51.24,45.504 C53.288,45.504 54.328,46.64 54.328,48.912 L54.328,54 L53.048,54 L53.048,49.008 C53.048,47.392 52.312,46.592 50.872,46.592 C50.296,46.592 49.8,46.8 49.384,47.216 C48.936,47.664 48.696,48.256 48.648,49.008 L48.648,54 L47.368,54 L47.368,45.728 L48.648,45.728 L48.648,46.944 C48.936,46.48 49.304,46.128 49.752,45.888 C50.2,45.632 50.696,45.504 51.24,45.504 Z M59.24,45.504 C61.288,45.504 62.408,46.352 62.632,48.08 L61.384,48.08 C61.272,47.568 61.064,47.184 60.744,46.96 C60.392,46.704 59.88,46.576 59.224,46.576 C58.648,46.576 58.2,46.672 57.88,46.896 C57.528,47.104 57.352,47.392 57.352,47.76 C57.352,48.112 57.576,48.416 58.056,48.656 C58.36,48.8 58.936,48.976 59.768,49.2 C60.76,49.44 61.464,49.696 61.896,49.968 C62.552,50.384 62.888,50.944 62.888,51.664 C62.888,53.36 61.72,54.224 59.384,54.224 C57.208,54.224 56.024,53.264 55.832,51.36 L57.08,51.36 C57.176,52.016 57.416,52.48 57.768,52.768 C58.12,53.024 58.648,53.152 59.352,53.152 C60.824,53.152 61.576,52.672 61.576,51.744 C61.576,51.28 61.304,50.928 60.792,50.672 C60.52,50.544 59.928,50.368 59.032,50.144 C58.056,49.904 57.368,49.664 56.984,49.408 C56.344,49.024 56.04,48.496 56.04,47.792 C56.04,47.088 56.344,46.544 56.968,46.128 C57.544,45.712 58.312,45.504 59.24,45.504 Z M64.392,42.352 L65.672,42.352 L65.672,49.568 L69.816,45.728 L71.512,45.728 L67.864,49.056 L71.864,54 L70.216,54 L66.984,49.888 L65.672,51.072 L65.672,54 L64.392,54 L64.392,42.352 Z"/>
        </g>
        <g transform="translate(208 2)">
          <circle cx="49" cy="49" r="49" fill="#829E37"/>
          <path fill="#FFF" d="M18.936,47.056 L20.072,47.056 L20.072,55.616 L18.936,55.616 L18.936,47.056 Z M29.64,55.552 L28.168,55.552 L27.896,54.512 L29.4,54.544 C29.8,54.544 30.008,54.304 30.008,53.84 L30.008,46.384 L23.8,46.384 L23.8,45.328 L31.144,45.328 L31.144,54.16 C31.144,55.088 30.632,55.552 29.64,55.552 Z M22.136,47.808 L27.912,47.808 L27.912,53.84 L22.136,53.84 L22.136,47.808 Z M26.84,52.864 L26.84,51.264 L23.24,51.264 L23.24,52.864 L26.84,52.864 Z M23.24,50.336 L26.84,50.336 L26.84,48.768 L23.24,48.768 L23.24,50.336 Z M20.552,44.672 C21.4,45.408 22.056,46.048 22.504,46.608 L21.656,47.2 C21.176,46.608 20.52,45.936 19.704,45.2 L20.552,44.672 Z M20.184,43.088 C19.768,43.792 19.32,44.448 18.808,45.04 L17.832,44.416 C18.792,43.344 19.496,42.16 19.944,40.88 L21.064,41.12 C20.936,41.456 20.808,41.776 20.68,42.08 L24.904,42.08 L24.904,43.088 L22.504,43.088 C22.904,43.648 23.224,44.176 23.448,44.672 L22.424,45.056 C22.104,44.368 21.72,43.712 21.288,43.088 L20.184,43.088 Z M26.984,43.088 C26.664,43.696 26.312,44.256 25.912,44.768 L24.936,44.144 C25.736,43.152 26.312,42.08 26.664,40.896 L27.768,41.136 C27.672,41.456 27.56,41.776 27.432,42.08 L32.104,42.08 L32.104,43.088 L29.448,43.088 C29.816,43.6 30.12,44.096 30.36,44.544 L29.336,44.928 C29.016,44.288 28.648,43.68 28.216,43.088 L26.984,43.088 Z M35.576,46.976 C35.08,47.696 34.536,48.384 33.96,49.04 L33.624,47.888 C35.288,45.84 36.488,43.504 37.224,40.864 L38.264,41.344 C37.848,42.672 37.336,43.936 36.712,45.12 L36.712,55.616 L35.576,55.616 L35.576,46.976 Z M37.992,43.664 L42.232,43.664 L42.232,40.912 L43.368,40.912 L43.368,43.664 L47.736,43.664 L47.736,44.784 L44.472,44.784 C45.208,47.424 46.504,49.776 48.36,51.84 L47.608,52.784 C45.656,50.416 44.296,47.744 43.56,44.784 L43.368,44.784 L43.368,51.2 L45.848,51.2 L45.848,52.304 L43.368,52.304 L43.368,55.6 L42.232,55.6 L42.232,52.304 L39.784,52.304 L39.784,51.2 L42.232,51.2 L42.232,44.784 L42.04,44.784 C41.24,48.112 39.848,50.848 37.88,52.976 L37.288,51.984 C39.08,50.128 40.344,47.728 41.112,44.784 L37.992,44.784 L37.992,43.664 Z M56.408,40.864 L57.592,40.864 L57.592,43.744 L63.336,43.744 L63.336,51.264 L62.184,51.264 L62.184,50.256 L57.592,50.256 L57.592,55.712 L56.408,55.712 L56.408,50.256 L51.832,50.256 L51.832,51.264 L50.68,51.264 L50.68,43.744 L56.408,43.744 L56.408,40.864 Z M51.832,49.136 L56.408,49.136 L56.408,44.864 L51.832,44.864 L51.832,49.136 Z M57.592,49.136 L62.184,49.136 L62.184,44.864 L57.592,44.864 L57.592,49.136 Z M66.024,43.632 L72.648,43.632 C72.216,42.784 71.688,41.984 71.048,41.232 L72.2,40.816 C72.808,41.584 73.352,42.528 73.864,43.632 L79.976,43.632 L79.976,44.784 L77.48,44.784 C76.696,47.312 75.512,49.44 73.944,51.136 C75.64,52.576 77.768,53.76 80.328,54.704 L79.704,55.664 C77.048,54.672 74.872,53.44 73.144,51.952 C71.32,53.632 69.048,54.864 66.328,55.648 L65.72,54.64 C68.408,53.92 70.616,52.784 72.344,51.216 C70.488,49.392 69.208,47.248 68.488,44.784 L66.024,44.784 L66.024,43.632 Z M69.624,44.784 C70.312,46.944 71.48,48.816 73.144,50.416 C74.568,48.864 75.608,46.992 76.28,44.784 L69.624,44.784 Z"/>
        </g>
      </g>
      <ellipse cx="350.5" cy="247" stroke="#1B9CB0" stroke-width="9" rx="350.5" ry="247"/>
    </g>
    <text fill="#61737C" font-family="PingFangSC-Regular, PingFang SC" font-size="32">
      <tspan x="143" y="34">One Portal to Rule Them All</tspan>
    </text>
  </g>
</svg>
