<svg xmlns="http://www.w3.org/2000/svg" xmlns:xlink="http://www.w3.org/1999/xlink" width="1107" height="468" viewBox="0 0 1107 468">
  <defs>
    <path id="team-a" d="M66.088,333.864 L80.128,333.864 L80.128,335.568 L74.08,335.568 L74.08,351 L72.136,351 L72.136,335.568 L66.088,335.568 L66.088,333.864 Z M87.568,338.256 C89.416,338.256 90.904,338.88 92.008,340.176 C93.064,341.4 93.592,342.936 93.592,344.808 C93.592,346.656 93.064,348.192 92.032,349.392 C90.904,350.688 89.416,351.336 87.568,351.336 C85.696,351.336 84.232,350.688 83.128,349.392 C82.072,348.192 81.544,346.656 81.544,344.808 C81.544,342.936 82.072,341.4 83.128,340.176 C84.232,338.88 85.696,338.256 87.568,338.256 Z M87.568,339.864 C86.248,339.864 85.216,340.368 84.496,341.376 C83.824,342.288 83.512,343.416 83.512,344.808 C83.512,346.176 83.824,347.304 84.496,348.216 C85.216,349.224 86.248,349.728 87.568,349.728 C88.864,349.728 89.896,349.224 90.664,348.216 C91.312,347.304 91.648,346.152 91.648,344.808 C91.648,343.416 91.312,342.288 90.664,341.376 C89.896,340.368 88.864,339.864 87.568,339.864 Z M101.536,338.256 C102.208,338.256 102.784,338.352 103.24,338.544 L103.24,340.464 C102.616,340.272 101.992,340.2 101.392,340.2 C100.432,340.2 99.616,340.608 98.968,341.472 C98.296,342.288 97.984,343.272 97.984,344.424 L97.984,351 L96.088,351 L96.088,338.592 L97.984,338.592 L97.984,340.752 C98.32,340.032 98.752,339.456 99.28,339.048 C99.928,338.52 100.672,338.256 101.536,338.256 Z M110.656,338.256 C113.728,338.256 115.288,339.96 115.288,343.368 L115.288,351 L113.368,351 L113.368,343.512 C113.368,341.088 112.264,339.888 110.104,339.888 C109.24,339.888 108.496,340.2 107.872,340.824 C107.2,341.496 106.84,342.384 106.768,343.512 L106.768,351 L104.848,351 L104.848,338.592 L106.768,338.592 L106.768,340.416 C107.2,339.72 107.752,339.192 108.424,338.832 C109.096,338.448 109.84,338.256 110.656,338.256 Z M123.664,338.256 C125.44,338.256 126.736,338.712 127.6,339.648 C128.32,340.464 128.704,341.592 128.704,343.032 L128.704,351 L126.904,351 L126.904,348.912 C126.424,349.584 125.776,350.136 125.008,350.568 C124.096,351.072 123.064,351.336 121.912,351.336 C120.664,351.336 119.68,351.024 118.936,350.4 C118.168,349.752 117.784,348.912 117.784,347.904 C117.784,346.488 118.336,345.432 119.488,344.712 C120.496,344.04 121.936,343.68 123.808,343.656 L126.784,343.608 L126.784,342.96 C126.784,340.872 125.704,339.84 123.544,339.84 C122.632,339.84 121.888,340.008 121.312,340.392 C120.664,340.776 120.256,341.376 120.064,342.168 L118.168,342.024 C118.432,340.728 119.08,339.744 120.088,339.12 C121,338.544 122.176,338.256 123.664,338.256 Z M126.784,345.048 L123.928,345.096 C121.144,345.144 119.752,346.056 119.752,347.856 C119.752,348.432 119.968,348.888 120.448,349.272 C120.928,349.632 121.552,349.824 122.32,349.824 C123.496,349.824 124.528,349.44 125.44,348.672 C126.328,347.928 126.784,347.064 126.784,346.104 L126.784,345.048 Z M140.848,333.528 L142.768,333.528 L142.768,351 L140.968,351 L140.968,348.96 C140.104,350.544 138.712,351.336 136.84,351.336 C135.016,351.336 133.6,350.664 132.592,349.368 C131.656,348.168 131.2,346.632 131.2,344.76 C131.2,342.936 131.656,341.448 132.592,340.248 C133.6,338.904 134.968,338.256 136.744,338.256 C138.52,338.256 139.888,339.12 140.848,340.872 L140.848,333.528 Z M137.152,339.84 C135.784,339.84 134.752,340.32 134.08,341.28 C133.456,342.12 133.168,343.272 133.168,344.76 C133.168,346.248 133.456,347.424 134.056,348.288 C134.728,349.248 135.736,349.752 137.08,349.752 C138.328,349.752 139.288,349.272 139.984,348.312 C140.584,347.448 140.896,346.32 140.896,344.928 L140.896,344.688 C140.896,343.248 140.536,342.072 139.864,341.184 C139.168,340.272 138.256,339.84 137.152,339.84 Z M151.288,338.256 C153.136,338.256 154.624,338.88 155.728,340.176 C156.784,341.4 157.312,342.936 157.312,344.808 C157.312,346.656 156.784,348.192 155.752,349.392 C154.624,350.688 153.136,351.336 151.288,351.336 C149.416,351.336 147.952,350.688 146.848,349.392 C145.792,348.192 145.264,346.656 145.264,344.808 C145.264,342.936 145.792,341.4 146.848,340.176 C147.952,338.88 149.416,338.256 151.288,338.256 Z M151.288,339.864 C149.968,339.864 148.936,340.368 148.216,341.376 C147.544,342.288 147.232,343.416 147.232,344.808 C147.232,346.176 147.544,347.304 148.216,348.216 C148.936,349.224 149.968,349.728 151.288,349.728 C152.584,349.728 153.616,349.224 154.384,348.216 C155.032,347.304 155.368,346.152 155.368,344.808 C155.368,343.416 155.032,342.288 154.384,341.376 C153.616,340.368 152.584,339.864 151.288,339.864 Z"/>
    <path id="team-b" d="M219.4,333.864 L227.056,333.864 C228.64,333.864 229.912,334.248 230.848,335.016 C231.76,335.784 232.216,336.84 232.216,338.184 C232.216,339.144 231.952,339.984 231.448,340.68 C230.92,341.304 230.224,341.76 229.36,342.048 C230.488,342.24 231.352,342.72 231.976,343.44 C232.6,344.16 232.936,345.072 232.936,346.224 C232.936,347.904 232.336,349.152 231.16,349.968 C230.152,350.64 228.76,351 227.008,351 L219.4,351 L219.4,333.864 Z M221.368,335.52 L221.368,341.352 L226.576,341.352 C227.776,341.352 228.688,341.088 229.312,340.608 C229.936,340.104 230.272,339.36 230.272,338.376 C230.272,337.416 229.96,336.696 229.336,336.216 C228.712,335.736 227.8,335.52 226.6,335.52 L221.368,335.52 Z M221.368,342.984 L221.368,349.344 L226.84,349.344 C228.04,349.344 228.976,349.104 229.696,348.672 C230.536,348.144 230.968,347.304 230.968,346.2 C230.968,345.096 230.584,344.28 229.864,343.752 C229.168,343.224 228.16,342.984 226.84,342.984 L221.368,342.984 Z M240.856,338.256 C241.528,338.256 242.104,338.352 242.56,338.544 L242.56,340.464 C241.936,340.272 241.312,340.2 240.712,340.2 C239.752,340.2 238.936,340.608 238.288,341.472 C237.616,342.288 237.304,343.272 237.304,344.424 L237.304,351 L235.408,351 L235.408,338.592 L237.304,338.592 L237.304,340.752 C237.64,340.032 238.072,339.456 238.6,339.048 C239.248,338.52 239.992,338.256 240.856,338.256 Z M249.28,338.256 C251.272,338.256 252.784,338.928 253.792,340.272 C254.704,341.472 255.184,343.176 255.232,345.336 L245.44,345.336 C245.536,346.728 245.896,347.808 246.568,348.576 C247.24,349.344 248.176,349.728 249.352,349.728 C250.36,349.728 251.2,349.464 251.824,348.96 C252.352,348.528 252.76,347.88 253.072,347.016 L254.992,347.016 C254.704,348.216 254.152,349.176 253.312,349.944 C252.28,350.856 250.96,351.336 249.352,351.336 C247.576,351.336 246.136,350.736 245.08,349.584 C243.976,348.384 243.448,346.8 243.448,344.784 C243.448,342.96 243.952,341.424 245.008,340.2 C246.064,338.904 247.48,338.256 249.28,338.256 Z M249.328,339.864 C248.224,339.864 247.336,340.224 246.664,340.944 C245.992,341.664 245.608,342.624 245.488,343.848 L253.24,343.848 C253,341.184 251.68,339.864 249.328,339.864 Z M262.6,338.256 C264.592,338.256 266.104,338.928 267.112,340.272 C268.024,341.472 268.504,343.176 268.552,345.336 L258.76,345.336 C258.856,346.728 259.216,347.808 259.888,348.576 C260.56,349.344 261.496,349.728 262.672,349.728 C263.68,349.728 264.52,349.464 265.144,348.96 C265.672,348.528 266.08,347.88 266.392,347.016 L268.312,347.016 C268.024,348.216 267.472,349.176 266.632,349.944 C265.6,350.856 264.28,351.336 262.672,351.336 C260.896,351.336 259.456,350.736 258.4,349.584 C257.296,348.384 256.768,346.8 256.768,344.784 C256.768,342.96 257.272,341.424 258.328,340.2 C259.384,338.904 260.8,338.256 262.6,338.256 Z M262.648,339.864 C261.544,339.864 260.656,340.224 259.984,340.944 C259.312,341.664 258.928,342.624 258.808,343.848 L266.56,343.848 C266.32,341.184 265,339.864 262.648,339.864 Z M270.16,338.592 L280.024,338.592 L280.024,339.936 L272.416,349.392 L280.408,349.392 L280.408,351 L269.92,351 L269.92,349.608 L277.504,340.2 L270.16,340.2 L270.16,338.592 Z M287.608,338.256 C289.6,338.256 291.112,338.928 292.12,340.272 C293.032,341.472 293.512,343.176 293.56,345.336 L283.768,345.336 C283.864,346.728 284.224,347.808 284.896,348.576 C285.568,349.344 286.504,349.728 287.68,349.728 C288.688,349.728 289.528,349.464 290.152,348.96 C290.68,348.528 291.088,347.88 291.4,347.016 L293.32,347.016 C293.032,348.216 292.48,349.176 291.64,349.944 C290.608,350.856 289.288,351.336 287.68,351.336 C285.904,351.336 284.464,350.736 283.408,349.584 C282.304,348.384 281.776,346.8 281.776,344.784 C281.776,342.96 282.28,341.424 283.336,340.2 C284.392,338.904 285.808,338.256 287.608,338.256 Z M287.656,339.864 C286.552,339.864 285.664,340.224 284.992,340.944 C284.32,341.664 283.936,342.624 283.816,343.848 L291.568,343.848 C291.328,341.184 290.008,339.864 287.656,339.864 Z"/>
    <path id="team-c" d="M173.26,161.58 L176.11,161.58 L184.54,183 L181.87,183 L179.59,177 L169.75,177 L167.47,183 L164.83,183 L173.26,161.58 Z M170.53,174.93 L178.81,174.93 L174.76,164.22 L174.64,164.22 L170.53,174.93 Z M188.38,161.64 C188.89,161.64 189.31,161.79 189.67,162.15 C190.03,162.45 190.21,162.87 190.21,163.41 C190.21,163.92 190.03,164.34 189.67,164.7 C189.31,165.03 188.89,165.21 188.38,165.21 C187.87,165.21 187.45,165.03 187.09,164.7 C186.73,164.34 186.58,163.92 186.58,163.41 C186.58,162.87 186.73,162.45 187.09,162.15 C187.45,161.79 187.87,161.64 188.38,161.64 Z M187.18,167.49 L189.58,167.49 L189.58,183 L187.18,183 L187.18,167.49 Z M200.89,167.07 C201.73,167.07 202.45,167.19 203.02,167.43 L203.02,169.83 C202.24,169.59 201.46,169.5 200.71,169.5 C199.51,169.5 198.49,170.01 197.68,171.09 C196.84,172.11 196.45,173.34 196.45,174.78 L196.45,183 L194.08,183 L194.08,167.49 L196.45,167.49 L196.45,170.19 C196.87,169.29 197.41,168.57 198.07,168.06 C198.88,167.4 199.81,167.07 200.89,167.07 Z"/>
    <path id="team-d" d="M103.612,425.864 L105.58,425.864 L105.58,437.528 C105.58,439.4 105.196,440.792 104.428,441.752 C103.564,442.808 102.172,443.336 100.276,443.336 C98.668,443.336 97.444,442.88 96.58,442.016 C95.668,441.104 95.236,439.808 95.236,438.128 L95.236,437.528 L97.204,437.528 L97.204,438.104 C97.204,440.408 98.236,441.584 100.324,441.584 C101.476,441.584 102.316,441.224 102.844,440.552 C103.348,439.904 103.612,438.872 103.612,437.456 L103.612,425.864 Z M113.884,430.256 C115.876,430.256 117.388,430.928 118.396,432.272 C119.308,433.472 119.788,435.176 119.836,437.336 L110.044,437.336 C110.14,438.728 110.5,439.808 111.172,440.576 C111.844,441.344 112.78,441.728 113.956,441.728 C114.964,441.728 115.804,441.464 116.428,440.96 C116.956,440.528 117.364,439.88 117.676,439.016 L119.596,439.016 C119.308,440.216 118.756,441.176 117.916,441.944 C116.884,442.856 115.564,443.336 113.956,443.336 C112.18,443.336 110.74,442.736 109.684,441.584 C108.58,440.384 108.052,438.8 108.052,436.784 C108.052,434.96 108.556,433.424 109.612,432.2 C110.668,430.904 112.084,430.256 113.884,430.256 Z M113.932,431.864 C112.828,431.864 111.94,432.224 111.268,432.944 C110.596,433.664 110.212,434.624 110.092,435.848 L117.844,435.848 C117.604,433.184 116.284,431.864 113.932,431.864 Z M125.404,426.584 L125.404,430.592 L128.476,430.592 L128.476,432.2 L125.404,432.2 L125.404,440.096 C125.404,440.552 125.476,440.888 125.668,441.08 C125.836,441.272 126.148,441.392 126.58,441.392 L128.164,441.392 L128.164,443 L126.292,443 C125.284,443 124.54,442.736 124.108,442.208 C123.7,441.728 123.508,441.032 123.508,440.096 L123.508,432.2 L121.012,432.2 L121.012,430.592 L123.508,430.592 L123.508,427.376 L125.404,426.584 Z"/>
    <path id="team-e" d="M229.972,241.528 C231.892,241.528 233.428,241.96 234.532,242.848 C235.684,243.76 236.332,245.128 236.5,246.928 L234.556,246.928 C234.34,245.68 233.86,244.768 233.116,244.168 C232.348,243.544 231.268,243.256 229.876,243.256 C228.604,243.256 227.62,243.448 226.9,243.88 C226.084,244.36 225.676,245.08 225.676,246.064 C225.676,246.928 226.156,247.624 227.14,248.152 C227.572,248.392 228.628,248.752 230.284,249.232 C232.54,249.904 234.028,250.456 234.748,250.888 C236.164,251.752 236.884,252.952 236.884,254.512 C236.884,256 236.284,257.2 235.084,258.064 C233.884,258.904 232.276,259.336 230.236,259.336 C228.22,259.336 226.636,258.904 225.484,258.04 C224.14,257.008 223.396,255.448 223.252,253.336 L225.196,253.336 C225.364,254.824 225.892,255.928 226.756,256.624 C227.548,257.248 228.7,257.584 230.236,257.584 C231.628,257.584 232.78,257.32 233.644,256.792 C234.508,256.264 234.94,255.544 234.94,254.632 C234.94,253.552 234.364,252.712 233.236,252.112 C232.756,251.824 231.532,251.416 229.612,250.864 C227.548,250.24 226.228,249.76 225.676,249.472 C224.356,248.704 223.708,247.6 223.708,246.16 C223.708,244.672 224.332,243.496 225.604,242.68 C226.732,241.912 228.196,241.528 229.972,241.528 Z M242.452,242.584 L242.452,246.592 L245.524,246.592 L245.524,248.2 L242.452,248.2 L242.452,256.096 C242.452,256.552 242.524,256.888 242.716,257.08 C242.884,257.272 243.196,257.392 243.628,257.392 L245.212,257.392 L245.212,259 L243.34,259 C242.332,259 241.588,258.736 241.156,258.208 C240.748,257.728 240.556,257.032 240.556,256.096 L240.556,248.2 L238.06,248.2 L238.06,246.592 L240.556,246.592 L240.556,243.376 L242.452,242.584 Z M253.204,246.256 C255.052,246.256 256.54,246.88 257.644,248.176 C258.7,249.4 259.228,250.936 259.228,252.808 C259.228,254.656 258.7,256.192 257.668,257.392 C256.54,258.688 255.052,259.336 253.204,259.336 C251.332,259.336 249.868,258.688 248.764,257.392 C247.708,256.192 247.18,254.656 247.18,252.808 C247.18,250.936 247.708,249.4 248.764,248.176 C249.868,246.88 251.332,246.256 253.204,246.256 Z M253.204,247.864 C251.884,247.864 250.852,248.368 250.132,249.376 C249.46,250.288 249.148,251.416 249.148,252.808 C249.148,254.176 249.46,255.304 250.132,256.216 C250.852,257.224 251.884,257.728 253.204,257.728 C254.5,257.728 255.532,257.224 256.3,256.216 C256.948,255.304 257.284,254.152 257.284,252.808 C257.284,251.416 256.948,250.288 256.3,249.376 C255.532,248.368 254.5,247.864 253.204,247.864 Z M267.172,246.256 C267.844,246.256 268.42,246.352 268.876,246.544 L268.876,248.464 C268.252,248.272 267.628,248.2 267.028,248.2 C266.068,248.2 265.252,248.608 264.604,249.472 C263.932,250.288 263.62,251.272 263.62,252.424 L263.62,259 L261.724,259 L261.724,246.592 L263.62,246.592 L263.62,248.752 C263.956,248.032 264.388,247.456 264.916,247.048 C265.564,246.52 266.308,246.256 267.172,246.256 Z M275.908,246.256 C277.804,246.256 279.1,247.024 279.796,248.608 C280.276,247.792 280.852,247.192 281.524,246.832 C282.124,246.448 282.844,246.256 283.708,246.256 C285.004,246.256 286.036,246.664 286.852,247.48 C287.62,248.32 288.028,249.448 288.028,250.864 L288.028,259 L286.108,259 L286.108,251.176 C286.108,250.072 285.868,249.256 285.412,248.728 C284.932,248.152 284.164,247.888 283.108,247.888 C282.292,247.888 281.596,248.176 281.068,248.8 C280.492,249.424 280.228,250.216 280.228,251.224 L280.228,259 L278.308,259 L278.308,251.176 C278.308,248.968 277.348,247.888 275.452,247.888 C274.564,247.888 273.844,248.224 273.268,248.944 C272.692,249.616 272.404,250.456 272.404,251.44 L272.404,259 L270.484,259 L270.484,246.592 L272.404,246.592 L272.404,248.248 C273.34,246.904 274.516,246.256 275.908,246.256 Z"/>
    <path id="team-f" d="M420.576,241.864 L422.64,241.864 L432.336,255.808 L432.408,255.808 L432.408,241.864 L434.376,241.864 L434.376,259 L432.36,259 L422.616,244.912 L422.544,244.912 L422.544,259 L420.576,259 L420.576,241.864 Z M443.136,246.256 C444.984,246.256 446.472,246.88 447.576,248.176 C448.632,249.4 449.16,250.936 449.16,252.808 C449.16,254.656 448.632,256.192 447.6,257.392 C446.472,258.688 444.984,259.336 443.136,259.336 C441.264,259.336 439.8,258.688 438.696,257.392 C437.64,256.192 437.112,254.656 437.112,252.808 C437.112,250.936 437.64,249.4 438.696,248.176 C439.8,246.88 441.264,246.256 443.136,246.256 Z M443.136,247.864 C441.816,247.864 440.784,248.368 440.064,249.376 C439.392,250.288 439.08,251.416 439.08,252.808 C439.08,254.176 439.392,255.304 440.064,256.216 C440.784,257.224 441.816,257.728 443.136,257.728 C444.432,257.728 445.464,257.224 446.232,256.216 C446.88,255.304 447.216,254.152 447.216,252.808 C447.216,251.416 446.88,250.288 446.232,249.376 C445.464,248.368 444.432,247.864 443.136,247.864 Z M450.288,246.592 L452.4,246.592 L455.952,256.6 L459.504,246.592 L461.616,246.592 L456.912,259 L454.968,259 L450.288,246.592 Z M468.624,246.256 C470.4,246.256 471.696,246.712 472.56,247.648 C473.28,248.464 473.664,249.592 473.664,251.032 L473.664,259 L471.864,259 L471.864,256.912 C471.384,257.584 470.736,258.136 469.968,258.568 C469.056,259.072 468.024,259.336 466.872,259.336 C465.624,259.336 464.64,259.024 463.896,258.4 C463.128,257.752 462.744,256.912 462.744,255.904 C462.744,254.488 463.296,253.432 464.448,252.712 C465.456,252.04 466.896,251.68 468.768,251.656 L471.744,251.608 L471.744,250.96 C471.744,248.872 470.664,247.84 468.504,247.84 C467.592,247.84 466.848,248.008 466.272,248.392 C465.624,248.776 465.216,249.376 465.024,250.168 L463.128,250.024 C463.392,248.728 464.04,247.744 465.048,247.12 C465.96,246.544 467.136,246.256 468.624,246.256 Z M471.744,253.048 L468.888,253.096 C466.104,253.144 464.712,254.056 464.712,255.856 C464.712,256.432 464.928,256.888 465.408,257.272 C465.888,257.632 466.512,257.824 467.28,257.824 C468.456,257.824 469.488,257.44 470.4,256.672 C471.288,255.928 471.744,255.064 471.744,254.104 L471.744,253.048 Z"/>
    <path id="team-g" d="M736.768,165.864 L743.776,165.864 C747.712,165.864 749.68,167.544 749.68,170.904 C749.68,174.288 747.688,175.992 743.752,175.992 L738.736,175.992 L738.736,183 L736.768,183 L736.768,165.864 Z M738.736,167.568 L738.736,174.288 L743.656,174.288 C745.048,174.288 746.056,174 746.728,173.448 C747.376,172.896 747.712,172.056 747.712,170.904 C747.712,169.752 747.376,168.912 746.704,168.408 C746.032,167.832 745.024,167.568 743.656,167.568 L738.736,167.568 Z M759.664,165.528 C762.208,165.528 764.248,166.368 765.736,168.096 C767.128,169.728 767.848,171.84 767.848,174.456 C767.848,177.048 767.128,179.136 765.736,180.768 C764.248,182.472 762.208,183.336 759.64,183.336 C757.072,183.336 755.056,182.472 753.568,180.768 C752.152,179.136 751.456,177.024 751.456,174.456 C751.456,171.864 752.152,169.752 753.568,168.12 C755.056,166.392 757.072,165.528 759.664,165.528 Z M759.664,167.28 C757.696,167.28 756.136,167.952 755.008,169.32 C753.952,170.616 753.424,172.32 753.424,174.456 C753.424,176.568 753.952,178.272 755.008,179.568 C756.112,180.912 757.672,181.584 759.64,181.584 C761.608,181.584 763.168,180.912 764.272,179.616 C765.328,178.32 765.88,176.616 765.88,174.456 C765.88,172.272 765.328,170.544 764.272,169.248 C763.168,167.928 761.632,167.28 759.664,167.28 Z M777.256,165.864 L791.296,165.864 L791.296,167.568 L785.248,167.568 L785.248,183 L783.304,183 L783.304,167.568 L777.256,167.568 L777.256,165.864 Z M798.304,170.256 C800.296,170.256 801.808,170.928 802.816,172.272 C803.728,173.472 804.208,175.176 804.256,177.336 L794.464,177.336 C794.56,178.728 794.92,179.808 795.592,180.576 C796.264,181.344 797.2,181.728 798.376,181.728 C799.384,181.728 800.224,181.464 800.848,180.96 C801.376,180.528 801.784,179.88 802.096,179.016 L804.016,179.016 C803.728,180.216 803.176,181.176 802.336,181.944 C801.304,182.856 799.984,183.336 798.376,183.336 C796.6,183.336 795.16,182.736 794.104,181.584 C793,180.384 792.472,178.8 792.472,176.784 C792.472,174.96 792.976,173.424 794.032,172.2 C795.088,170.904 796.504,170.256 798.304,170.256 Z M798.352,171.864 C797.248,171.864 796.36,172.224 795.688,172.944 C795.016,173.664 794.632,174.624 794.512,175.848 L802.264,175.848 C802.024,173.184 800.704,171.864 798.352,171.864 Z M811.912,170.256 C813.688,170.256 814.984,170.712 815.848,171.648 C816.568,172.464 816.952,173.592 816.952,175.032 L816.952,183 L815.152,183 L815.152,180.912 C814.672,181.584 814.024,182.136 813.256,182.568 C812.344,183.072 811.312,183.336 810.16,183.336 C808.912,183.336 807.928,183.024 807.184,182.4 C806.416,181.752 806.032,180.912 806.032,179.904 C806.032,178.488 806.584,177.432 807.736,176.712 C808.744,176.04 810.184,175.68 812.056,175.656 L815.032,175.608 L815.032,174.96 C815.032,172.872 813.952,171.84 811.792,171.84 C810.88,171.84 810.136,172.008 809.56,172.392 C808.912,172.776 808.504,173.376 808.312,174.168 L806.416,174.024 C806.68,172.728 807.328,171.744 808.336,171.12 C809.248,170.544 810.424,170.256 811.912,170.256 Z M815.032,177.048 L812.176,177.096 C809.392,177.144 808,178.056 808,179.856 C808,180.432 808.216,180.888 808.696,181.272 C809.176,181.632 809.8,181.824 810.568,181.824 C811.744,181.824 812.776,181.44 813.688,180.672 C814.576,179.928 815.032,179.064 815.032,178.104 L815.032,177.048 Z M825.352,170.256 C827.248,170.256 828.544,171.024 829.24,172.608 C829.72,171.792 830.296,171.192 830.968,170.832 C831.568,170.448 832.288,170.256 833.152,170.256 C834.448,170.256 835.48,170.664 836.296,171.48 C837.064,172.32 837.472,173.448 837.472,174.864 L837.472,183 L835.552,183 L835.552,175.176 C835.552,174.072 835.312,173.256 834.856,172.728 C834.376,172.152 833.608,171.888 832.552,171.888 C831.736,171.888 831.04,172.176 830.512,172.8 C829.936,173.424 829.672,174.216 829.672,175.224 L829.672,183 L827.752,183 L827.752,175.176 C827.752,172.968 826.792,171.888 824.896,171.888 C824.008,171.888 823.288,172.224 822.712,172.944 C822.136,173.616 821.848,174.456 821.848,175.44 L821.848,183 L819.928,183 L819.928,170.592 L821.848,170.592 L821.848,172.248 C822.784,170.904 823.96,170.256 825.352,170.256 Z"/>
    <path id="team-h" d="M746.308,257.528 C748.852,257.528 750.892,258.368 752.38,260.096 C753.772,261.728 754.492,263.84 754.492,266.456 C754.492,269.048 753.772,271.136 752.38,272.768 C750.892,274.472 748.852,275.336 746.284,275.336 C743.716,275.336 741.7,274.472 740.212,272.768 C738.796,271.136 738.1,269.024 738.1,266.456 C738.1,263.864 738.796,261.752 740.212,260.12 C741.7,258.392 743.716,257.528 746.308,257.528 Z M746.308,259.28 C744.34,259.28 742.78,259.952 741.652,261.32 C740.596,262.616 740.068,264.32 740.068,266.456 C740.068,268.568 740.596,270.272 741.652,271.568 C742.756,272.912 744.316,273.584 746.284,273.584 C748.252,273.584 749.812,272.912 750.916,271.616 C751.972,270.32 752.524,268.616 752.524,266.456 C752.524,264.272 751.972,262.544 750.916,261.248 C749.812,259.928 748.276,259.28 746.308,259.28 Z M762.796,262.256 C765.868,262.256 767.428,263.96 767.428,267.368 L767.428,275 L765.508,275 L765.508,267.512 C765.508,265.088 764.404,263.888 762.244,263.888 C761.38,263.888 760.636,264.2 760.012,264.824 C759.34,265.496 758.98,266.384 758.908,267.512 L758.908,275 L756.988,275 L756.988,262.592 L758.908,262.592 L758.908,264.416 C759.34,263.72 759.892,263.192 760.564,262.832 C761.236,262.448 761.98,262.256 762.796,262.256 Z M769.036,262.592 L771.124,262.592 L774.916,272.384 L778.588,262.592 L780.7,262.592 L773.908,279.752 L771.82,279.752 L773.956,274.712 L769.036,262.592 Z M781.468,262.592 L783.724,262.592 L786.94,267.008 L790.132,262.592 L792.388,262.592 L787.996,268.424 L792.916,275 L790.636,275 L786.94,269.84 L783.22,275 L780.94,275 L785.86,268.424 L781.468,262.592 Z M810.148,257.528 C812.044,257.528 813.652,258.032 814.948,259.04 C816.244,260.048 817.012,261.416 817.252,263.12 L815.356,263.12 C815.116,261.872 814.492,260.912 813.532,260.24 C812.596,259.592 811.468,259.28 810.124,259.28 C808.132,259.28 806.596,259.976 805.516,261.368 C804.508,262.664 804.004,264.368 804.004,266.504 C804.004,268.64 804.484,270.344 805.492,271.592 C806.548,272.912 808.06,273.584 810.076,273.584 C811.444,273.584 812.596,273.224 813.556,272.504 C814.564,271.736 815.26,270.608 815.596,269.12 L817.492,269.12 C817.108,271.112 816.22,272.672 814.804,273.776 C813.484,274.808 811.9,275.336 810.076,275.336 C807.412,275.336 805.372,274.448 803.956,272.696 C802.66,271.112 802.036,269.048 802.036,266.504 C802.036,263.96 802.684,261.872 804.004,260.24 C805.444,258.416 807.508,257.528 810.148,257.528 Z M827.716,257.528 C830.26,257.528 832.3,258.368 833.788,260.096 C835.18,261.728 835.9,263.84 835.9,266.456 C835.9,269.048 835.18,271.136 833.788,272.768 C833.74,272.816 833.692,272.864 833.668,272.912 C834.34,273.776 834.988,274.688 835.636,275.624 L834.34,276.752 C833.668,275.792 833.02,274.88 832.372,274.016 C831.076,274.88 829.516,275.336 827.692,275.336 C825.124,275.336 823.108,274.472 821.62,272.768 C820.204,271.136 819.508,269.024 819.508,266.456 C819.508,263.864 820.204,261.752 821.62,260.12 C823.108,258.392 825.124,257.528 827.716,257.528 Z M827.716,259.28 C825.748,259.28 824.188,259.952 823.06,261.32 C822.004,262.616 821.476,264.32 821.476,266.456 C821.476,268.568 822.004,270.272 823.06,271.568 C824.164,272.912 825.724,273.584 827.692,273.584 C829.108,273.584 830.308,273.248 831.268,272.576 C830.308,271.352 829.348,270.224 828.388,269.216 L829.564,268.088 C830.548,269.144 831.532,270.248 832.492,271.424 C833.452,270.152 833.932,268.496 833.932,266.456 C833.932,264.272 833.38,262.544 832.324,261.248 C831.22,259.928 829.684,259.28 827.716,259.28 Z"/>
    <path id="team-i" d="M735.82,349.864 L738.268,349.864 L744.652,364.48 L744.724,364.48 L751.084,349.864 L753.532,349.864 L753.532,367 L751.564,367 L751.564,353.368 L751.492,353.368 L745.564,367 L743.788,367 L737.86,353.368 L737.788,353.368 L737.788,367 L735.82,367 L735.82,349.864 Z M758.332,349.912 C758.74,349.912 759.076,350.032 759.364,350.32 C759.652,350.56 759.796,350.896 759.796,351.328 C759.796,351.736 759.652,352.072 759.364,352.36 C759.076,352.624 758.74,352.768 758.332,352.768 C757.924,352.768 757.588,352.624 757.3,352.36 C757.012,352.072 756.892,351.736 756.892,351.328 C756.892,350.896 757.012,350.56 757.3,350.32 C757.588,350.032 757.924,349.912 758.332,349.912 Z M757.372,354.592 L759.292,354.592 L759.292,367 L757.372,367 L757.372,354.592 Z M768.004,354.256 C769.876,354.256 771.268,355.072 772.18,356.728 L772.18,354.592 L774.1,354.592 L774.1,366.136 C774.1,370.096 772.204,372.088 768.436,372.088 C766.756,372.088 765.46,371.752 764.596,371.08 C763.708,370.408 763.156,369.4 762.94,368.056 L764.86,368.056 C765.004,368.896 765.364,369.52 765.916,369.904 C766.468,370.312 767.308,370.528 768.436,370.528 C770.932,370.528 772.18,369.136 772.18,366.4 L772.18,364.216 C771.268,365.872 769.876,366.712 768.004,366.712 C766.276,366.712 764.908,366.112 763.9,364.936 C762.892,363.784 762.412,362.32 762.412,360.52 C762.412,358.696 762.892,357.232 763.9,356.08 C764.908,354.856 766.276,354.256 768.004,354.256 Z M768.292,355.84 C767.044,355.84 766.084,356.272 765.388,357.184 C764.716,358 764.38,359.128 764.38,360.52 C764.38,361.816 764.668,362.896 765.268,363.712 C765.94,364.624 766.924,365.104 768.268,365.104 C769.516,365.104 770.476,364.672 771.196,363.808 C771.868,362.968 772.204,361.864 772.204,360.52 C772.204,359.128 771.868,358 771.196,357.184 C770.476,356.272 769.516,355.84 768.292,355.84 Z M782.524,354.256 C783.196,354.256 783.772,354.352 784.228,354.544 L784.228,356.464 C783.604,356.272 782.98,356.2 782.38,356.2 C781.42,356.2 780.604,356.608 779.956,357.472 C779.284,358.288 778.972,359.272 778.972,360.424 L778.972,367 L777.076,367 L777.076,354.592 L778.972,354.592 L778.972,356.752 C779.308,356.032 779.74,355.456 780.268,355.048 C780.916,354.52 781.66,354.256 782.524,354.256 Z M791.236,354.256 C793.012,354.256 794.308,354.712 795.172,355.648 C795.892,356.464 796.276,357.592 796.276,359.032 L796.276,367 L794.476,367 L794.476,364.912 C793.996,365.584 793.348,366.136 792.58,366.568 C791.668,367.072 790.636,367.336 789.484,367.336 C788.236,367.336 787.252,367.024 786.508,366.4 C785.74,365.752 785.356,364.912 785.356,363.904 C785.356,362.488 785.908,361.432 787.06,360.712 C788.068,360.04 789.508,359.68 791.38,359.656 L794.356,359.608 L794.356,358.96 C794.356,356.872 793.276,355.84 791.116,355.84 C790.204,355.84 789.46,356.008 788.884,356.392 C788.236,356.776 787.828,357.376 787.636,358.168 L785.74,358.024 C786.004,356.728 786.652,355.744 787.66,355.12 C788.572,354.544 789.748,354.256 791.236,354.256 Z M794.356,361.048 L791.5,361.096 C788.716,361.144 787.324,362.056 787.324,363.856 C787.324,364.432 787.54,364.888 788.02,365.272 C788.5,365.632 789.124,365.824 789.892,365.824 C791.068,365.824 792.1,365.44 793.012,364.672 C793.9,363.928 794.356,363.064 794.356,362.104 L794.356,361.048 Z M802.564,350.584 L802.564,354.592 L805.636,354.592 L805.636,356.2 L802.564,356.2 L802.564,364.096 C802.564,364.552 802.636,364.888 802.828,365.08 C802.996,365.272 803.308,365.392 803.74,365.392 L805.324,365.392 L805.324,367 L803.452,367 C802.444,367 801.7,366.736 801.268,366.208 C800.86,365.728 800.668,365.032 800.668,364.096 L800.668,356.2 L798.172,356.2 L798.172,354.592 L800.668,354.592 L800.668,351.376 L802.564,350.584 Z M809.356,349.912 C809.764,349.912 810.1,350.032 810.388,350.32 C810.676,350.56 810.82,350.896 810.82,351.328 C810.82,351.736 810.676,352.072 810.388,352.36 C810.1,352.624 809.764,352.768 809.356,352.768 C808.948,352.768 808.612,352.624 808.324,352.36 C808.036,352.072 807.916,351.736 807.916,351.328 C807.916,350.896 808.036,350.56 808.324,350.32 C808.612,350.032 808.948,349.912 809.356,349.912 Z M808.396,354.592 L810.316,354.592 L810.316,367 L808.396,367 L808.396,354.592 Z M819.46,354.256 C821.308,354.256 822.796,354.88 823.9,356.176 C824.956,357.4 825.484,358.936 825.484,360.808 C825.484,362.656 824.956,364.192 823.924,365.392 C822.796,366.688 821.308,367.336 819.46,367.336 C817.588,367.336 816.124,366.688 815.02,365.392 C813.964,364.192 813.436,362.656 813.436,360.808 C813.436,358.936 813.964,357.4 815.02,356.176 C816.124,354.88 817.588,354.256 819.46,354.256 Z M819.46,355.864 C818.14,355.864 817.108,356.368 816.388,357.376 C815.716,358.288 815.404,359.416 815.404,360.808 C815.404,362.176 815.716,363.304 816.388,364.216 C817.108,365.224 818.14,365.728 819.46,365.728 C820.756,365.728 821.788,365.224 822.556,364.216 C823.204,363.304 823.54,362.152 823.54,360.808 C823.54,359.416 823.204,358.288 822.556,357.376 C821.788,356.368 820.756,355.864 819.46,355.864 Z M833.788,354.256 C836.86,354.256 838.42,355.96 838.42,359.368 L838.42,367 L836.5,367 L836.5,359.512 C836.5,357.088 835.396,355.888 833.236,355.888 C832.372,355.888 831.628,356.2 831.004,356.824 C830.332,357.496 829.972,358.384 829.9,359.512 L829.9,367 L827.98,367 L827.98,354.592 L829.9,354.592 L829.9,356.416 C830.332,355.72 830.884,355.192 831.556,354.832 C832.228,354.448 832.972,354.256 833.788,354.256 Z"/>
    <path id="team-j" d="M758.188,441.864 L764.332,441.864 C767.044,441.864 769.084,442.632 770.476,444.216 C771.748,445.656 772.396,447.744 772.396,450.432 C772.396,453.072 771.7,455.16 770.332,456.648 C768.892,458.208 766.828,459 764.14,459 L758.188,459 L758.188,441.864 Z M760.156,443.568 L760.156,457.296 L763.804,457.296 C766.036,457.296 767.716,456.696 768.844,455.52 C769.9,454.368 770.452,452.664 770.452,450.432 C770.452,448.128 769.948,446.424 768.964,445.32 C767.908,444.144 766.276,443.568 764.02,443.568 L760.156,443.568 Z M775.132,441.864 L782.788,441.864 C784.372,441.864 785.644,442.248 786.58,443.016 C787.492,443.784 787.948,444.84 787.948,446.184 C787.948,447.144 787.684,447.984 787.18,448.68 C786.652,449.304 785.956,449.76 785.092,450.048 C786.22,450.24 787.084,450.72 787.708,451.44 C788.332,452.16 788.668,453.072 788.668,454.224 C788.668,455.904 788.068,457.152 786.892,457.968 C785.884,458.64 784.492,459 782.74,459 L775.132,459 L775.132,441.864 Z M777.1,443.52 L777.1,449.352 L782.308,449.352 C783.508,449.352 784.42,449.088 785.044,448.608 C785.668,448.104 786.004,447.36 786.004,446.376 C786.004,445.416 785.692,444.696 785.068,444.216 C784.444,443.736 783.532,443.52 782.332,443.52 L777.1,443.52 Z M777.1,450.984 L777.1,457.344 L782.572,457.344 C783.772,457.344 784.708,457.104 785.428,456.672 C786.268,456.144 786.7,455.304 786.7,454.2 C786.7,453.096 786.316,452.28 785.596,451.752 C784.9,451.224 783.892,450.984 782.572,450.984 L777.1,450.984 Z M796.396,441.864 L798.676,441.864 L805.42,459 L803.284,459 L801.46,454.2 L793.588,454.2 L791.764,459 L789.652,459 L796.396,441.864 Z M794.212,452.544 L800.836,452.544 L797.596,443.976 L797.5,443.976 L794.212,452.544 Z M811.3,446.256 C814.372,446.256 816.052,447.528 816.388,450.12 L814.516,450.12 C814.348,449.352 814.036,448.776 813.556,448.44 C813.028,448.056 812.26,447.864 811.276,447.864 C810.412,447.864 809.74,448.008 809.26,448.344 C808.732,448.656 808.468,449.088 808.468,449.64 C808.468,450.168 808.804,450.624 809.524,450.984 C809.98,451.2 810.844,451.464 812.092,451.8 C813.58,452.16 814.636,452.544 815.284,452.952 C816.268,453.576 816.772,454.416 816.772,455.496 C816.772,458.04 815.02,459.336 811.516,459.336 C808.252,459.336 806.476,457.896 806.188,455.04 L808.06,455.04 C808.204,456.024 808.564,456.72 809.092,457.152 C809.62,457.536 810.412,457.728 811.468,457.728 C813.676,457.728 814.804,457.008 814.804,455.616 C814.804,454.92 814.396,454.392 813.628,454.008 C813.22,453.816 812.332,453.552 810.988,453.216 C809.524,452.856 808.492,452.496 807.916,452.112 C806.956,451.536 806.5,450.744 806.5,449.688 C806.5,448.632 806.956,447.816 807.892,447.192 C808.756,446.568 809.908,446.256 811.3,446.256 Z"/>
    <path id="team-k" d="M906.38,165.864 L908.828,165.864 L915.212,180.48 L915.284,180.48 L921.644,165.864 L924.092,165.864 L924.092,183 L922.124,183 L922.124,169.368 L922.052,169.368 L916.124,183 L914.348,183 L908.42,169.368 L908.348,169.368 L908.348,183 L906.38,183 L906.38,165.864 Z M932.708,170.256 C934.484,170.256 935.78,170.712 936.644,171.648 C937.364,172.464 937.748,173.592 937.748,175.032 L937.748,183 L935.948,183 L935.948,180.912 C935.468,181.584 934.82,182.136 934.052,182.568 C933.14,183.072 932.108,183.336 930.956,183.336 C929.708,183.336 928.724,183.024 927.98,182.4 C927.212,181.752 926.828,180.912 926.828,179.904 C926.828,178.488 927.38,177.432 928.532,176.712 C929.54,176.04 930.98,175.68 932.852,175.656 L935.828,175.608 L935.828,174.96 C935.828,172.872 934.748,171.84 932.588,171.84 C931.676,171.84 930.932,172.008 930.356,172.392 C929.708,172.776 929.3,173.376 929.108,174.168 L927.212,174.024 C927.476,172.728 928.124,171.744 929.132,171.12 C930.044,170.544 931.22,170.256 932.708,170.256 Z M935.828,177.048 L932.972,177.096 C930.188,177.144 928.796,178.056 928.796,179.856 C928.796,180.432 929.012,180.888 929.492,181.272 C929.972,181.632 930.596,181.824 931.364,181.824 C932.54,181.824 933.572,181.44 934.484,180.672 C935.372,179.928 935.828,179.064 935.828,178.104 L935.828,177.048 Z M946.532,170.256 C949.604,170.256 951.164,171.96 951.164,175.368 L951.164,183 L949.244,183 L949.244,175.512 C949.244,173.088 948.14,171.888 945.98,171.888 C945.116,171.888 944.372,172.2 943.748,172.824 C943.076,173.496 942.716,174.384 942.644,175.512 L942.644,183 L940.724,183 L940.724,170.592 L942.644,170.592 L942.644,172.416 C943.076,171.72 943.628,171.192 944.3,170.832 C944.972,170.448 945.716,170.256 946.532,170.256 Z M959.54,170.256 C961.316,170.256 962.612,170.712 963.476,171.648 C964.196,172.464 964.58,173.592 964.58,175.032 L964.58,183 L962.78,183 L962.78,180.912 C962.3,181.584 961.652,182.136 960.884,182.568 C959.972,183.072 958.94,183.336 957.788,183.336 C956.54,183.336 955.556,183.024 954.812,182.4 C954.044,181.752 953.66,180.912 953.66,179.904 C953.66,178.488 954.212,177.432 955.364,176.712 C956.372,176.04 957.812,175.68 959.684,175.656 L962.66,175.608 L962.66,174.96 C962.66,172.872 961.58,171.84 959.42,171.84 C958.508,171.84 957.764,172.008 957.188,172.392 C956.54,172.776 956.132,173.376 955.94,174.168 L954.044,174.024 C954.308,172.728 954.956,171.744 955.964,171.12 C956.876,170.544 958.052,170.256 959.54,170.256 Z M962.66,177.048 L959.804,177.096 C957.02,177.144 955.628,178.056 955.628,179.856 C955.628,180.432 955.844,180.888 956.324,181.272 C956.804,181.632 957.428,181.824 958.196,181.824 C959.372,181.824 960.404,181.44 961.316,180.672 C962.204,179.928 962.66,179.064 962.66,178.104 L962.66,177.048 Z M972.668,170.256 C974.54,170.256 975.932,171.072 976.844,172.728 L976.844,170.592 L978.764,170.592 L978.764,182.136 C978.764,186.096 976.868,188.088 973.1,188.088 C971.42,188.088 970.124,187.752 969.26,187.08 C968.372,186.408 967.82,185.4 967.604,184.056 L969.524,184.056 C969.668,184.896 970.028,185.52 970.58,185.904 C971.132,186.312 971.972,186.528 973.1,186.528 C975.596,186.528 976.844,185.136 976.844,182.4 L976.844,180.216 C975.932,181.872 974.54,182.712 972.668,182.712 C970.94,182.712 969.572,182.112 968.564,180.936 C967.556,179.784 967.076,178.32 967.076,176.52 C967.076,174.696 967.556,173.232 968.564,172.08 C969.572,170.856 970.94,170.256 972.668,170.256 Z M972.956,171.84 C971.708,171.84 970.748,172.272 970.052,173.184 C969.38,174 969.044,175.128 969.044,176.52 C969.044,177.816 969.332,178.896 969.932,179.712 C970.604,180.624 971.588,181.104 972.932,181.104 C974.18,181.104 975.14,180.672 975.86,179.808 C976.532,178.968 976.868,177.864 976.868,176.52 C976.868,175.128 976.532,174 975.86,173.184 C975.14,172.272 974.18,171.84 972.956,171.84 Z M986.852,170.256 C988.844,170.256 990.356,170.928 991.364,172.272 C992.276,173.472 992.756,175.176 992.804,177.336 L983.012,177.336 C983.108,178.728 983.468,179.808 984.14,180.576 C984.812,181.344 985.748,181.728 986.924,181.728 C987.932,181.728 988.772,181.464 989.396,180.96 C989.924,180.528 990.332,179.88 990.644,179.016 L992.564,179.016 C992.276,180.216 991.724,181.176 990.884,181.944 C989.852,182.856 988.532,183.336 986.924,183.336 C985.148,183.336 983.708,182.736 982.652,181.584 C981.548,180.384 981.02,178.8 981.02,176.784 C981.02,174.96 981.524,173.424 982.58,172.2 C983.636,170.904 985.052,170.256 986.852,170.256 Z M986.9,171.864 C985.796,171.864 984.908,172.224 984.236,172.944 C983.564,173.664 983.18,174.624 983.06,175.848 L990.812,175.848 C990.572,173.184 989.252,171.864 986.9,171.864 Z M1000.484,170.256 C1002.38,170.256 1003.676,171.024 1004.372,172.608 C1004.852,171.792 1005.428,171.192 1006.1,170.832 C1006.7,170.448 1007.42,170.256 1008.284,170.256 C1009.58,170.256 1010.612,170.664 1011.428,171.48 C1012.196,172.32 1012.604,173.448 1012.604,174.864 L1012.604,183 L1010.684,183 L1010.684,175.176 C1010.684,174.072 1010.444,173.256 1009.988,172.728 C1009.508,172.152 1008.74,171.888 1007.684,171.888 C1006.868,171.888 1006.172,172.176 1005.644,172.8 C1005.068,173.424 1004.804,174.216 1004.804,175.224 L1004.804,183 L1002.884,183 L1002.884,175.176 C1002.884,172.968 1001.924,171.888 1000.028,171.888 C999.14,171.888 998.42,172.224 997.844,172.944 C997.268,173.616 996.98,174.456 996.98,175.44 L996.98,183 L995.06,183 L995.06,170.592 L996.98,170.592 L996.98,172.248 C997.916,170.904 999.092,170.256 1000.484,170.256 Z M1020.692,170.256 C1022.684,170.256 1024.196,170.928 1025.204,172.272 C1026.116,173.472 1026.596,175.176 1026.644,177.336 L1016.852,177.336 C1016.948,178.728 1017.308,179.808 1017.98,180.576 C1018.652,181.344 1019.588,181.728 1020.764,181.728 C1021.772,181.728 1022.612,181.464 1023.236,180.96 C1023.764,180.528 1024.172,179.88 1024.484,179.016 L1026.404,179.016 C1026.116,180.216 1025.564,181.176 1024.724,181.944 C1023.692,182.856 1022.372,183.336 1020.764,183.336 C1018.988,183.336 1017.548,182.736 1016.492,181.584 C1015.388,180.384 1014.86,178.8 1014.86,176.784 C1014.86,174.96 1015.364,173.424 1016.42,172.2 C1017.476,170.904 1018.892,170.256 1020.692,170.256 Z M1020.74,171.864 C1019.636,171.864 1018.748,172.224 1018.076,172.944 C1017.404,173.664 1017.02,174.624 1016.9,175.848 L1024.652,175.848 C1024.412,173.184 1023.092,171.864 1020.74,171.864 Z M1034.708,170.256 C1037.78,170.256 1039.34,171.96 1039.34,175.368 L1039.34,183 L1037.42,183 L1037.42,175.512 C1037.42,173.088 1036.316,171.888 1034.156,171.888 C1033.292,171.888 1032.548,172.2 1031.924,172.824 C1031.252,173.496 1030.892,174.384 1030.82,175.512 L1030.82,183 L1028.9,183 L1028.9,170.592 L1030.82,170.592 L1030.82,172.416 C1031.252,171.72 1031.804,171.192 1032.476,170.832 C1033.148,170.448 1033.892,170.256 1034.708,170.256 Z M1045.628,166.584 L1045.628,170.592 L1048.7,170.592 L1048.7,172.2 L1045.628,172.2 L1045.628,180.096 C1045.628,180.552 1045.7,180.888 1045.892,181.08 C1046.06,181.272 1046.372,181.392 1046.804,181.392 L1048.388,181.392 L1048.388,183 L1046.516,183 C1045.508,183 1044.764,182.736 1044.332,182.208 C1043.924,181.728 1043.732,181.032 1043.732,180.096 L1043.732,172.2 L1041.236,172.2 L1041.236,170.592 L1043.732,170.592 L1043.732,167.376 L1045.628,166.584 Z"/>
    <path id="team-l" d="M915.668,257.864 L917.948,257.864 L924.692,275 L922.556,275 L920.732,270.2 L912.86,270.2 L911.036,275 L908.924,275 L915.668,257.864 Z M913.484,268.544 L920.108,268.544 L916.868,259.976 L916.772,259.976 L913.484,268.544 Z M931.628,262.256 C932.3,262.256 932.876,262.352 933.332,262.544 L933.332,264.464 C932.708,264.272 932.084,264.2 931.484,264.2 C930.524,264.2 929.708,264.608 929.06,265.472 C928.388,266.288 928.076,267.272 928.076,268.424 L928.076,275 L926.18,275 L926.18,262.592 L928.076,262.592 L928.076,264.752 C928.412,264.032 928.844,263.456 929.372,263.048 C930.02,262.52 930.764,262.256 931.628,262.256 Z M940.292,262.256 C941.828,262.256 943.052,262.616 943.988,263.336 C944.948,264.08 945.524,265.208 945.74,266.72 L943.844,266.72 C943.676,265.76 943.292,265.04 942.692,264.56 C942.068,264.08 941.276,263.864 940.292,263.864 C939.092,263.864 938.132,264.32 937.436,265.232 C936.764,266.12 936.428,267.32 936.428,268.832 C936.428,270.344 936.74,271.544 937.412,272.408 C938.06,273.272 939.02,273.728 940.268,273.728 C942.38,273.728 943.604,272.648 943.892,270.512 L945.812,270.512 C945.524,272.096 944.924,273.32 943.964,274.136 C943.028,274.928 941.804,275.336 940.268,275.336 C938.396,275.336 936.956,274.712 935.924,273.464 C934.94,272.288 934.46,270.752 934.46,268.856 C934.46,266.96 934.94,265.424 935.924,264.224 C936.98,262.904 938.444,262.256 940.292,262.256 Z M948.068,257.528 L949.988,257.528 L949.988,264.632 C950.42,263.84 950.996,263.24 951.716,262.832 C952.388,262.448 953.132,262.256 953.972,262.256 C955.412,262.256 956.54,262.664 957.308,263.528 C958.076,264.368 958.46,265.592 958.46,267.176 L958.46,275 L956.54,275 L956.54,267.464 C956.54,266.312 956.252,265.424 955.724,264.8 C955.148,264.176 954.356,263.864 953.324,263.864 C952.364,263.864 951.572,264.248 950.948,265.016 C950.3,265.784 949.988,266.768 949.988,267.92 L949.988,275 L948.068,275 L948.068,257.528 Z M962.996,257.912 C963.404,257.912 963.74,258.032 964.028,258.32 C964.316,258.56 964.46,258.896 964.46,259.328 C964.46,259.736 964.316,260.072 964.028,260.36 C963.74,260.624 963.404,260.768 962.996,260.768 C962.588,260.768 962.252,260.624 961.964,260.36 C961.676,260.072 961.556,259.736 961.556,259.328 C961.556,258.896 961.676,258.56 961.964,258.32 C962.252,258.032 962.588,257.912 962.996,257.912 Z M962.036,262.592 L963.956,262.592 L963.956,275 L962.036,275 L962.036,262.592 Z M970.868,258.584 L970.868,262.592 L973.94,262.592 L973.94,264.2 L970.868,264.2 L970.868,272.096 C970.868,272.552 970.94,272.888 971.132,273.08 C971.3,273.272 971.612,273.392 972.044,273.392 L973.628,273.392 L973.628,275 L971.756,275 C970.748,275 970.004,274.736 969.572,274.208 C969.164,273.728 968.972,273.032 968.972,272.096 L968.972,264.2 L966.476,264.2 L966.476,262.592 L968.972,262.592 L968.972,259.376 L970.868,258.584 Z M981.188,262.256 C983.18,262.256 984.692,262.928 985.7,264.272 C986.612,265.472 987.092,267.176 987.14,269.336 L977.348,269.336 C977.444,270.728 977.804,271.808 978.476,272.576 C979.148,273.344 980.084,273.728 981.26,273.728 C982.268,273.728 983.108,273.464 983.732,272.96 C984.26,272.528 984.668,271.88 984.98,271.016 L986.9,271.016 C986.612,272.216 986.06,273.176 985.22,273.944 C984.188,274.856 982.868,275.336 981.26,275.336 C979.484,275.336 978.044,274.736 976.988,273.584 C975.884,272.384 975.356,270.8 975.356,268.784 C975.356,266.96 975.86,265.424 976.916,264.2 C977.972,262.904 979.388,262.256 981.188,262.256 Z M981.236,263.864 C980.132,263.864 979.244,264.224 978.572,264.944 C977.9,265.664 977.516,266.624 977.396,267.848 L985.148,267.848 C984.908,265.184 983.588,263.864 981.236,263.864 Z M994.748,262.256 C996.284,262.256 997.508,262.616 998.444,263.336 C999.404,264.08 999.98,265.208 1000.196,266.72 L998.3,266.72 C998.132,265.76 997.748,265.04 997.148,264.56 C996.524,264.08 995.732,263.864 994.748,263.864 C993.548,263.864 992.588,264.32 991.892,265.232 C991.22,266.12 990.884,267.32 990.884,268.832 C990.884,270.344 991.196,271.544 991.868,272.408 C992.516,273.272 993.476,273.728 994.724,273.728 C996.836,273.728 998.06,272.648 998.348,270.512 L1000.268,270.512 C999.98,272.096 999.38,273.32 998.42,274.136 C997.484,274.928 996.26,275.336 994.724,275.336 C992.852,275.336 991.412,274.712 990.38,273.464 C989.396,272.288 988.916,270.752 988.916,268.856 C988.916,266.96 989.396,265.424 990.38,264.224 C991.436,262.904 992.9,262.256 994.748,262.256 Z M1005.836,258.584 L1005.836,262.592 L1008.908,262.592 L1008.908,264.2 L1005.836,264.2 L1005.836,272.096 C1005.836,272.552 1005.908,272.888 1006.1,273.08 C1006.268,273.272 1006.58,273.392 1007.012,273.392 L1008.596,273.392 L1008.596,275 L1006.724,275 C1005.716,275 1004.972,274.736 1004.54,274.208 C1004.132,273.728 1003.94,273.032 1003.94,272.096 L1003.94,264.2 L1001.444,264.2 L1001.444,262.592 L1003.94,262.592 L1003.94,259.376 L1005.836,258.584 Z M1011.044,262.592 L1012.964,262.592 L1012.964,270.176 C1012.964,271.352 1013.204,272.24 1013.708,272.816 C1014.212,273.392 1015.028,273.704 1016.156,273.704 C1016.972,273.704 1017.716,273.368 1018.364,272.744 C1019.036,272.072 1019.444,271.208 1019.588,270.152 L1019.588,262.592 L1021.508,262.592 L1021.508,275 L1019.588,275 L1019.588,273.08 C1018.58,274.568 1017.236,275.336 1015.556,275.336 C1012.532,275.336 1011.044,273.632 1011.044,270.272 L1011.044,262.592 Z M1029.932,262.256 C1030.604,262.256 1031.18,262.352 1031.636,262.544 L1031.636,264.464 C1031.012,264.272 1030.388,264.2 1029.788,264.2 C1028.828,264.2 1028.012,264.608 1027.364,265.472 C1026.692,266.288 1026.38,267.272 1026.38,268.424 L1026.38,275 L1024.484,275 L1024.484,262.592 L1026.38,262.592 L1026.38,264.752 C1026.716,264.032 1027.148,263.456 1027.676,263.048 C1028.324,262.52 1029.068,262.256 1029.932,262.256 Z M1038.356,262.256 C1040.348,262.256 1041.86,262.928 1042.868,264.272 C1043.78,265.472 1044.26,267.176 1044.308,269.336 L1034.516,269.336 C1034.612,270.728 1034.972,271.808 1035.644,272.576 C1036.316,273.344 1037.252,273.728 1038.428,273.728 C1039.436,273.728 1040.276,273.464 1040.9,272.96 C1041.428,272.528 1041.836,271.88 1042.148,271.016 L1044.068,271.016 C1043.78,272.216 1043.228,273.176 1042.388,273.944 C1041.356,274.856 1040.036,275.336 1038.428,275.336 C1036.652,275.336 1035.212,274.736 1034.156,273.584 C1033.052,272.384 1032.524,270.8 1032.524,268.784 C1032.524,266.96 1033.028,265.424 1034.084,264.2 C1035.14,262.904 1036.556,262.256 1038.356,262.256 Z M1038.404,263.864 C1037.3,263.864 1036.412,264.224 1035.74,264.944 C1035.068,265.664 1034.684,266.624 1034.564,267.848 L1042.316,267.848 C1042.076,265.184 1040.756,263.864 1038.404,263.864 Z"/>
    <path id="team-m" d="M931.516,349.864 L937.66,349.864 C940.372,349.864 942.412,350.632 943.804,352.216 C945.076,353.656 945.724,355.744 945.724,358.432 C945.724,361.072 945.028,363.16 943.66,364.648 C942.22,366.208 940.156,367 937.468,367 L931.516,367 L931.516,349.864 Z M933.484,351.568 L933.484,365.296 L937.132,365.296 C939.364,365.296 941.044,364.696 942.172,363.52 C943.228,362.368 943.78,360.664 943.78,358.432 C943.78,356.128 943.276,354.424 942.292,353.32 C941.236,352.144 939.604,351.568 937.348,351.568 L933.484,351.568 Z M953.332,354.256 C955.324,354.256 956.836,354.928 957.844,356.272 C958.756,357.472 959.236,359.176 959.284,361.336 L949.492,361.336 C949.588,362.728 949.948,363.808 950.62,364.576 C951.292,365.344 952.228,365.728 953.404,365.728 C954.412,365.728 955.252,365.464 955.876,364.96 C956.404,364.528 956.812,363.88 957.124,363.016 L959.044,363.016 C958.756,364.216 958.204,365.176 957.364,365.944 C956.332,366.856 955.012,367.336 953.404,367.336 C951.628,367.336 950.188,366.736 949.132,365.584 C948.028,364.384 947.5,362.8 947.5,360.784 C947.5,358.96 948.004,357.424 949.06,356.2 C950.116,354.904 951.532,354.256 953.332,354.256 Z M953.38,355.864 C952.276,355.864 951.388,356.224 950.716,356.944 C950.044,357.664 949.66,358.624 949.54,359.848 L957.292,359.848 C957.052,357.184 955.732,355.864 953.38,355.864 Z M960.172,354.592 L962.284,354.592 L965.836,364.6 L969.388,354.592 L971.5,354.592 L966.796,367 L964.852,367 L960.172,354.592 Z M980.836,349.528 C983.38,349.528 985.42,350.368 986.908,352.096 C988.3,353.728 989.02,355.84 989.02,358.456 C989.02,361.048 988.3,363.136 986.908,364.768 C985.42,366.472 983.38,367.336 980.812,367.336 C978.244,367.336 976.228,366.472 974.74,364.768 C973.324,363.136 972.628,361.024 972.628,358.456 C972.628,355.864 973.324,353.752 974.74,352.12 C976.228,350.392 978.244,349.528 980.836,349.528 Z M980.836,351.28 C978.868,351.28 977.308,351.952 976.18,353.32 C975.124,354.616 974.596,356.32 974.596,358.456 C974.596,360.568 975.124,362.272 976.18,363.568 C977.284,364.912 978.844,365.584 980.812,365.584 C982.78,365.584 984.34,364.912 985.444,363.616 C986.5,362.32 987.052,360.616 987.052,358.456 C987.052,356.272 986.5,354.544 985.444,353.248 C984.34,351.928 982.804,351.28 980.836,351.28 Z M997.444,354.256 C999.22,354.256 1000.636,354.904 1001.668,356.248 C1002.604,357.448 1003.084,358.96 1003.084,360.832 C1003.084,362.656 1002.604,364.168 1001.692,365.368 C1000.684,366.664 999.316,367.336 997.54,367.336 C995.764,367.336 994.396,366.472 993.436,364.744 L993.436,371.752 L991.516,371.752 L991.516,354.592 L993.316,354.592 L993.316,356.632 C994.204,355.048 995.572,354.256 997.444,354.256 Z M997.204,355.84 C995.956,355.84 994.972,356.32 994.3,357.304 C993.676,358.168 993.364,359.32 993.364,360.712 L993.364,360.952 C993.364,362.392 993.7,363.544 994.42,364.432 C995.092,365.296 995.98,365.752 997.132,365.752 C998.476,365.752 999.484,365.272 1000.18,364.36 C1000.804,363.496 1001.116,362.32 1001.116,360.832 C1001.116,359.368 1000.804,358.192 1000.228,357.328 C999.532,356.32 998.524,355.84 997.204,355.84 Z M1009.972,354.256 C1013.044,354.256 1014.724,355.528 1015.06,358.12 L1013.188,358.12 C1013.02,357.352 1012.708,356.776 1012.228,356.44 C1011.7,356.056 1010.932,355.864 1009.948,355.864 C1009.084,355.864 1008.412,356.008 1007.932,356.344 C1007.404,356.656 1007.14,357.088 1007.14,357.64 C1007.14,358.168 1007.476,358.624 1008.196,358.984 C1008.652,359.2 1009.516,359.464 1010.764,359.8 C1012.252,360.16 1013.308,360.544 1013.956,360.952 C1014.94,361.576 1015.444,362.416 1015.444,363.496 C1015.444,366.04 1013.692,367.336 1010.188,367.336 C1006.924,367.336 1005.148,365.896 1004.86,363.04 L1006.732,363.04 C1006.876,364.024 1007.236,364.72 1007.764,365.152 C1008.292,365.536 1009.084,365.728 1010.14,365.728 C1012.348,365.728 1013.476,365.008 1013.476,363.616 C1013.476,362.92 1013.068,362.392 1012.3,362.008 C1011.892,361.816 1011.004,361.552 1009.66,361.216 C1008.196,360.856 1007.164,360.496 1006.588,360.112 C1005.628,359.536 1005.172,358.744 1005.172,357.688 C1005.172,356.632 1005.628,355.816 1006.564,355.192 C1007.428,354.568 1008.58,354.256 1009.972,354.256 Z"/>
    <path id="team-n" d="M494.865,161.58 L509.205,161.58 L509.205,163.71 L497.325,163.71 L497.325,170.91 L508.575,170.91 L508.575,173.04 L497.325,173.04 L497.325,183 L494.865,183 L494.865,161.58 Z M513.855,161.64 C514.365,161.64 514.785,161.79 515.145,162.15 C515.505,162.45 515.685,162.87 515.685,163.41 C515.685,163.92 515.505,164.34 515.145,164.7 C514.785,165.03 514.365,165.21 513.855,165.21 C513.345,165.21 512.925,165.03 512.565,164.7 C512.205,164.34 512.055,163.92 512.055,163.41 C512.055,162.87 512.205,162.45 512.565,162.15 C512.925,161.79 513.345,161.64 513.855,161.64 Z M512.655,167.49 L515.055,167.49 L515.055,183 L512.655,183 L512.655,167.49 Z M526.365,167.07 C527.205,167.07 527.925,167.19 528.495,167.43 L528.495,169.83 C527.715,169.59 526.935,169.5 526.185,169.5 C524.985,169.5 523.965,170.01 523.155,171.09 C522.315,172.11 521.925,173.34 521.925,174.78 L521.925,183 L519.555,183 L519.555,167.49 L521.925,167.49 L521.925,170.19 C522.345,169.29 522.885,168.57 523.545,168.06 C524.355,167.4 525.285,167.07 526.365,167.07 Z M536.895,167.07 C539.385,167.07 541.275,167.91 542.535,169.59 C543.675,171.09 544.275,173.22 544.335,175.92 L532.095,175.92 C532.215,177.66 532.665,179.01 533.505,179.97 C534.345,180.93 535.515,181.41 536.985,181.41 C538.245,181.41 539.295,181.08 540.075,180.45 C540.735,179.91 541.245,179.1 541.635,178.02 L544.035,178.02 C543.675,179.52 542.985,180.72 541.935,181.68 C540.645,182.82 538.995,183.42 536.985,183.42 C534.765,183.42 532.965,182.67 531.645,181.23 C530.265,179.73 529.605,177.75 529.605,175.23 C529.605,172.95 530.235,171.03 531.555,169.5 C532.875,167.88 534.645,167.07 536.895,167.07 Z M536.955,169.08 C535.575,169.08 534.465,169.53 533.625,170.43 C532.785,171.33 532.305,172.53 532.155,174.06 L541.845,174.06 C541.545,170.73 539.895,169.08 536.955,169.08 Z"/>
    <path id="team-o" d="M567.924,241.864 L581.964,241.864 L581.964,243.568 L575.916,243.568 L575.916,259 L573.972,259 L573.972,243.568 L567.924,243.568 L567.924,241.864 Z M584.1,241.864 L586.164,241.864 L595.86,255.808 L595.932,255.808 L595.932,241.864 L597.9,241.864 L597.9,259 L595.884,259 L586.14,244.912 L586.068,244.912 L586.068,259 L584.1,259 L584.1,241.864 Z M600.036,241.864 L614.076,241.864 L614.076,243.568 L608.028,243.568 L608.028,259 L606.084,259 L606.084,243.568 L600.036,243.568 L600.036,241.864 Z"/>
    <path id="team-p" d="M423.628,425.864 L425.908,425.864 L432.652,443 L430.516,443 L428.692,438.2 L420.82,438.2 L418.996,443 L416.884,443 L423.628,425.864 Z M421.444,436.544 L428.068,436.544 L424.828,427.976 L424.732,427.976 L421.444,436.544 Z M434.524,425.528 L436.42,425.528 L436.42,443 L434.524,443 L434.524,425.528 Z M445.708,430.256 C447.484,430.256 448.9,430.904 449.932,432.248 C450.868,433.448 451.348,434.96 451.348,436.832 C451.348,438.656 450.868,440.168 449.956,441.368 C448.948,442.664 447.58,443.336 445.804,443.336 C444.028,443.336 442.66,442.472 441.7,440.744 L441.7,447.752 L439.78,447.752 L439.78,430.592 L441.58,430.592 L441.58,432.632 C442.468,431.048 443.836,430.256 445.708,430.256 Z M445.468,431.84 C444.22,431.84 443.236,432.32 442.564,433.304 C441.94,434.168 441.628,435.32 441.628,436.712 L441.628,436.952 C441.628,438.392 441.964,439.544 442.684,440.432 C443.356,441.296 444.244,441.752 445.396,441.752 C446.74,441.752 447.748,441.272 448.444,440.36 C449.068,439.496 449.38,438.32 449.38,436.832 C449.38,435.368 449.068,434.192 448.492,433.328 C447.796,432.32 446.788,431.84 445.468,431.84 Z M453.844,425.528 L455.764,425.528 L455.764,432.632 C456.196,431.84 456.772,431.24 457.492,430.832 C458.164,430.448 458.908,430.256 459.748,430.256 C461.188,430.256 462.316,430.664 463.084,431.528 C463.852,432.368 464.236,433.592 464.236,435.176 L464.236,443 L462.316,443 L462.316,435.464 C462.316,434.312 462.028,433.424 461.5,432.8 C460.924,432.176 460.132,431.864 459.1,431.864 C458.14,431.864 457.348,432.248 456.724,433.016 C456.076,433.784 455.764,434.768 455.764,435.92 L455.764,443 L453.844,443 L453.844,425.528 Z M472.588,430.256 C474.364,430.256 475.66,430.712 476.524,431.648 C477.244,432.464 477.628,433.592 477.628,435.032 L477.628,443 L475.828,443 L475.828,440.912 C475.348,441.584 474.7,442.136 473.932,442.568 C473.02,443.072 471.988,443.336 470.836,443.336 C469.588,443.336 468.604,443.024 467.86,442.4 C467.092,441.752 466.708,440.912 466.708,439.904 C466.708,438.488 467.26,437.432 468.412,436.712 C469.42,436.04 470.86,435.68 472.732,435.656 L475.708,435.608 L475.708,434.96 C475.708,432.872 474.628,431.84 472.468,431.84 C471.556,431.84 470.812,432.008 470.236,432.392 C469.588,432.776 469.18,433.376 468.988,434.168 L467.092,434.024 C467.356,432.728 468.004,431.744 469.012,431.12 C469.924,430.544 471.1,430.256 472.588,430.256 Z M475.708,437.048 L472.852,437.096 C470.068,437.144 468.676,438.056 468.676,439.856 C468.676,440.432 468.892,440.888 469.372,441.272 C469.852,441.632 470.476,441.824 471.244,441.824 C472.42,441.824 473.452,441.44 474.364,440.672 C475.252,439.928 475.708,439.064 475.708,438.104 L475.708,437.048 Z"/>
    <path id="team-q" d="M498.7,345.58 L501.55,345.58 L509.98,367 L507.31,367 L505.03,361 L495.19,361 L492.91,367 L490.27,367 L498.7,345.58 Z M495.97,358.93 L504.25,358.93 L500.2,348.22 L500.08,348.22 L495.97,358.93 Z M512.14,345.58 L519.82,345.58 C523.21,345.58 525.76,346.54 527.5,348.52 C529.09,350.32 529.9,352.93 529.9,356.29 C529.9,359.59 529.03,362.2 527.32,364.06 C525.52,366.01 522.94,367 519.58,367 L512.14,367 L512.14,345.58 Z M514.6,347.71 L514.6,364.87 L519.16,364.87 C521.95,364.87 524.05,364.12 525.46,362.65 C526.78,361.21 527.47,359.08 527.47,356.29 C527.47,353.41 526.84,351.28 525.61,349.9 C524.29,348.43 522.25,347.71 519.43,347.71 L514.6,347.71 Z M531.67,345.58 L549.22,345.58 L549.22,347.71 L541.66,347.71 L541.66,367 L539.23,367 L539.23,347.71 L531.67,347.71 L531.67,345.58 Z"/>
    <path id="team-r" d="M564.808,425.864 L570.952,425.864 C573.664,425.864 575.704,426.632 577.096,428.216 C578.368,429.656 579.016,431.744 579.016,434.432 C579.016,437.072 578.32,439.16 576.952,440.648 C575.512,442.208 573.448,443 570.76,443 L564.808,443 L564.808,425.864 Z M566.776,427.568 L566.776,441.296 L570.424,441.296 C572.656,441.296 574.336,440.696 575.464,439.52 C576.52,438.368 577.072,436.664 577.072,434.432 C577.072,432.128 576.568,430.424 575.584,429.32 C574.528,428.144 572.896,427.568 570.64,427.568 L566.776,427.568 Z M586.624,430.256 C588.616,430.256 590.128,430.928 591.136,432.272 C592.048,433.472 592.528,435.176 592.576,437.336 L582.784,437.336 C582.88,438.728 583.24,439.808 583.912,440.576 C584.584,441.344 585.52,441.728 586.696,441.728 C587.704,441.728 588.544,441.464 589.168,440.96 C589.696,440.528 590.104,439.88 590.416,439.016 L592.336,439.016 C592.048,440.216 591.496,441.176 590.656,441.944 C589.624,442.856 588.304,443.336 586.696,443.336 C584.92,443.336 583.48,442.736 582.424,441.584 C581.32,440.384 580.792,438.8 580.792,436.784 C580.792,434.96 581.296,433.424 582.352,432.2 C583.408,430.904 584.824,430.256 586.624,430.256 Z M586.672,431.864 C585.568,431.864 584.68,432.224 584.008,432.944 C583.336,433.664 582.952,434.624 582.832,435.848 L590.584,435.848 C590.344,433.184 589.024,431.864 586.672,431.864 Z M595.216,425.528 L597.112,425.528 L597.112,443 L595.216,443 L595.216,425.528 Z M603.784,426.584 L603.784,430.592 L606.856,430.592 L606.856,432.2 L603.784,432.2 L603.784,440.096 C603.784,440.552 603.856,440.888 604.048,441.08 C604.216,441.272 604.528,441.392 604.96,441.392 L606.544,441.392 L606.544,443 L604.672,443 C603.664,443 602.92,442.736 602.488,442.208 C602.08,441.728 601.888,441.032 601.888,440.096 L601.888,432.2 L599.392,432.2 L599.392,430.592 L601.888,430.592 L601.888,427.376 L603.784,426.584 Z M614.392,430.256 C616.168,430.256 617.464,430.712 618.328,431.648 C619.048,432.464 619.432,433.592 619.432,435.032 L619.432,443 L617.632,443 L617.632,440.912 C617.152,441.584 616.504,442.136 615.736,442.568 C614.824,443.072 613.792,443.336 612.64,443.336 C611.392,443.336 610.408,443.024 609.664,442.4 C608.896,441.752 608.512,440.912 608.512,439.904 C608.512,438.488 609.064,437.432 610.216,436.712 C611.224,436.04 612.664,435.68 614.536,435.656 L617.512,435.608 L617.512,434.96 C617.512,432.872 616.432,431.84 614.272,431.84 C613.36,431.84 612.616,432.008 612.04,432.392 C611.392,432.776 610.984,433.376 610.792,434.168 L608.896,434.024 C609.16,432.728 609.808,431.744 610.816,431.12 C611.728,430.544 612.904,430.256 614.392,430.256 Z M617.512,437.048 L614.656,437.096 C611.872,437.144 610.48,438.056 610.48,439.856 C610.48,440.432 610.696,440.888 611.176,441.272 C611.656,441.632 612.28,441.824 613.048,441.824 C614.224,441.824 615.256,441.44 616.168,440.672 C617.056,439.928 617.512,439.064 617.512,438.104 L617.512,437.048 Z"/>
    <path id="team-s" d="M232.948,20.4622431 L270.388,20.4622431 L270.388,25.0062431 L254.26,25.0062431 L254.26,66.1582431 L249.076,66.1582431 L249.076,25.0062431 L232.948,25.0062431 L232.948,20.4622431 Z M289.076,32.1742431 C294.388,32.1742431 298.42,33.9662431 301.108,37.5502431 C303.54,40.7502431 304.82,45.2942431 304.948,51.0542431 L278.836,51.0542431 C279.092,54.7662431 280.052,57.6462431 281.844,59.6942431 C283.636,61.7422431 286.132,62.7662431 289.268,62.7662431 C291.956,62.7662431 294.196,62.0622431 295.86,60.7182431 C297.268,59.5662431 298.356,57.8382431 299.188,55.5342431 L304.308,55.5342431 C303.54,58.7342431 302.068,61.2942431 299.828,63.3422431 C297.076,65.7742431 293.556,67.0542431 289.268,67.0542431 C284.532,67.0542431 280.692,65.4542431 277.876,62.3822431 C274.932,59.1822431 273.524,54.9582431 273.524,49.5822431 C273.524,44.7182431 274.868,40.6222431 277.684,37.3582431 C280.5,33.9022431 284.276,32.1742431 289.076,32.1742431 Z M289.204,36.4622431 C286.26,36.4622431 283.892,37.4222431 282.1,39.3422431 C280.308,41.2622431 279.284,43.8222431 278.964,47.0862431 L299.636,47.0862431 C298.996,39.9822431 295.476,36.4622431 289.204,36.4622431 Z M325.364,32.1742431 C330.1,32.1742431 333.556,33.3902431 335.86,35.8862431 C337.78,38.0622431 338.804,41.0702431 338.804,44.9102431 L338.804,66.1582431 L334.004,66.1582431 L334.004,60.5902431 C332.724,62.3822431 330.996,63.8542431 328.948,65.0062431 C326.516,66.3502431 323.764,67.0542431 320.692,67.0542431 C317.364,67.0542431 314.74,66.2222431 312.756,64.5582431 C310.708,62.8302431 309.684,60.5902431 309.684,57.9022431 C309.684,54.1262431 311.156,51.3102431 314.228,49.3902431 C316.916,47.5982431 320.756,46.6382431 325.748,46.5742431 L333.684,46.4462431 L333.684,44.7182431 C333.684,39.1502431 330.804,36.3982431 325.044,36.3982431 C322.612,36.3982431 320.628,36.8462431 319.092,37.8702431 C317.364,38.8942431 316.276,40.4942431 315.764,42.6062431 L310.708,42.2222431 C311.412,38.7662431 313.14,36.1422431 315.828,34.4782431 C318.26,32.9422431 321.396,32.1742431 325.364,32.1742431 Z M333.684,50.2862431 L326.068,50.4142431 C318.644,50.5422431 314.932,52.9742431 314.932,57.7742431 C314.932,59.3102431 315.508,60.5262431 316.788,61.5502431 C318.068,62.5102431 319.732,63.0222431 321.78,63.0222431 C324.916,63.0222431 327.668,61.9982431 330.1,59.9502431 C332.468,57.9662431 333.684,55.6622431 333.684,53.1022431 L333.684,50.2862431 Z M361.204,32.1742431 C366.26,32.1742431 369.716,34.2222431 371.572,38.4462431 C372.852,36.2702431 374.388,34.6702431 376.18,33.7102431 C377.78,32.6862431 379.7,32.1742431 382.004,32.1742431 C385.46,32.1742431 388.212,33.2622431 390.388,35.4382431 C392.436,37.6782431 393.524,40.6862431 393.524,44.4622431 L393.524,66.1582431 L388.404,66.1582431 L388.404,45.2942431 C388.404,42.3502431 387.764,40.1742431 386.548,38.7662431 C385.268,37.2302431 383.22,36.5262431 380.404,36.5262431 C378.228,36.5262431 376.372,37.2942431 374.964,38.9582431 C373.428,40.6222431 372.724,42.7342431 372.724,45.4222431 L372.724,66.1582431 L367.604,66.1582431 L367.604,45.2942431 C367.604,39.4062431 365.044,36.5262431 359.988,36.5262431 C357.62,36.5262431 355.7,37.4222431 354.164,39.3422431 C352.628,41.1342431 351.86,43.3742431 351.86,45.9982431 L351.86,66.1582431 L346.74,66.1582431 L346.74,33.0702431 L351.86,33.0702431 L351.86,37.4862431 C354.356,33.9022431 357.492,32.1742431 361.204,32.1742431 Z M405.94,34.9902431 C406.964,34.9902431 407.924,35.3742431 408.692,36.1422431 C409.46,36.9102431 409.844,37.8062431 409.844,38.8942431 C409.844,39.9822431 409.46,40.9422431 408.692,41.7102431 C407.924,42.4142431 406.964,42.7982431 405.94,42.7982431 C404.788,42.7982431 403.892,42.4142431 403.188,41.7102431 C402.42,40.9422431 402.036,39.9822431 402.036,38.8942431 C402.036,37.8062431 402.42,36.9102431 403.188,36.1422431 C403.892,35.3742431 404.788,34.9902431 405.94,34.9902431 Z M405.94,58.4142431 C406.964,58.4142431 407.924,58.7982431 408.692,59.5662431 C409.46,60.3342431 409.844,61.2302431 409.844,62.3182431 C409.844,63.4062431 409.46,64.3662431 408.692,65.1342431 C407.924,65.8382431 406.964,66.2222431 405.94,66.2222431 C404.788,66.2222431 403.892,65.8382431 403.188,65.1342431 C402.42,64.3662431 402.036,63.4062431 402.036,62.3182431 C402.036,61.2302431 402.42,60.3342431 403.188,59.5662431 C403.892,58.7982431 404.788,58.4142431 405.94,58.4142431 Z M445.108,38.3182431 C447.092,38.3182431 449.524,39.2142431 452.34,41.1342431 C455.092,42.9262431 457.076,43.8862431 458.292,43.8862431 C459.764,43.8862431 461.428,42.3502431 463.348,39.4062431 L466.548,41.7102431 C463.796,45.8702431 461.044,47.9822431 458.292,47.9822431 C456.308,47.9822431 453.94,47.0222431 451.188,45.1662431 C448.372,43.3102431 446.388,42.4142431 445.108,42.4142431 C443.572,42.4142431 441.908,43.8862431 440.052,46.8302431 L436.852,44.5902431 C439.54,40.3662431 442.292,38.3182431 445.108,38.3182431 Z M482.42,20.4622431 L486.516,20.4622431 L486.516,66.1582431 L481.268,66.1582431 L481.268,26.8622431 C478.388,29.8062431 474.804,31.8542431 470.516,33.1342431 L470.516,27.8862431 C472.564,27.3102431 474.74,26.4142431 476.916,25.1342431 C479.092,23.7262431 480.884,22.1902431 482.42,20.4622431 Z M513.204,19.5662431 C521.652,19.5662431 526.516,23.5982431 527.796,31.7902431 L522.612,31.7902431 C521.588,26.5422431 518.452,23.9822431 513.14,23.9822431 C509.556,23.9822431 506.74,25.7102431 504.692,29.2942431 C502.644,32.6222431 501.684,36.9102431 501.684,42.0942431 C501.684,42.3502431 501.684,42.9262431 501.748,43.7582431 L502.004,43.7582431 C503.156,41.3902431 504.756,39.5342431 506.932,38.2542431 C508.98,36.9102431 511.348,36.2702431 514.036,36.2702431 C518.388,36.2702431 521.908,37.6782431 524.596,40.4942431 C527.22,43.3102431 528.564,46.8942431 528.564,51.3742431 C528.564,55.8542431 527.092,59.6302431 524.212,62.5742431 C521.268,65.5182431 517.62,67.0542431 513.14,67.0542431 C507.572,67.0542431 503.412,64.9422431 500.596,60.8462431 C497.908,56.9422431 496.628,51.5022431 496.628,44.5262431 C496.628,37.2302431 498.036,31.2782431 500.916,26.7342431 C503.924,21.9342431 508.02,19.5662431 513.204,19.5662431 Z M513.012,40.6222431 C510.004,40.6222431 507.508,41.6462431 505.524,43.6942431 C503.54,45.7422431 502.58,48.3022431 502.58,51.5022431 C502.58,54.7022431 503.476,57.3262431 505.396,59.3742431 C507.316,61.5502431 509.812,62.6382431 513.012,62.6382431 C516.084,62.6382431 518.58,61.5502431 520.5,59.5022431 C522.42,57.3262431 523.38,54.6382431 523.38,51.3742431 C523.38,48.1102431 522.42,45.5502431 520.564,43.6302431 C518.644,41.5822431 516.148,40.6222431 513.012,40.6222431 Z M550.964,19.5662431 C556.404,19.5662431 560.5,21.9342431 563.316,26.7982431 C565.748,30.8942431 566.964,36.3982431 566.964,43.3102431 C566.964,50.2222431 565.748,55.7262431 563.316,59.8222431 C560.5,64.6222431 556.404,67.0542431 550.964,67.0542431 C545.46,67.0542431 541.364,64.6222431 538.612,59.8222431 C536.18,55.7262431 534.964,50.2222431 534.964,43.3102431 C534.964,36.3982431 536.18,30.8942431 538.612,26.7982431 C541.364,21.9342431 545.46,19.5662431 550.964,19.5662431 Z M550.964,24.0462431 C546.868,24.0462431 543.924,26.2222431 542.132,30.6382431 C540.852,33.7102431 540.212,37.9342431 540.212,43.3102431 C540.212,48.6222431 540.852,52.8462431 542.132,55.9822431 C543.924,60.3342431 546.868,62.5742431 550.964,62.5742431 C555.06,62.5742431 558.004,60.3342431 559.796,55.9822431 C561.076,52.8462431 561.78,48.6222431 561.78,43.3102431 C561.78,37.9342431 561.076,33.7102431 559.796,30.6382431 C558.004,26.2222431 555.06,24.0462431 550.964,24.0462431 Z M609.908,32.1742431 C614.964,32.1742431 618.42,34.2222431 620.276,38.4462431 C621.556,36.2702431 623.092,34.6702431 624.884,33.7102431 C626.484,32.6862431 628.404,32.1742431 630.708,32.1742431 C634.164,32.1742431 636.916,33.2622431 639.092,35.4382431 C641.14,37.6782431 642.228,40.6862431 642.228,44.4622431 L642.228,66.1582431 L637.108,66.1582431 L637.108,45.2942431 C637.108,42.3502431 636.468,40.1742431 635.252,38.7662431 C633.972,37.2302431 631.924,36.5262431 629.108,36.5262431 C626.932,36.5262431 625.076,37.2942431 623.668,38.9582431 C622.132,40.6222431 621.428,42.7342431 621.428,45.4222431 L621.428,66.1582431 L616.308,66.1582431 L616.308,45.2942431 C616.308,39.4062431 613.748,36.5262431 608.692,36.5262431 C606.324,36.5262431 604.404,37.4222431 602.868,39.3422431 C601.332,41.1342431 600.564,43.3742431 600.564,45.9982431 L600.564,66.1582431 L595.444,66.1582431 L595.444,33.0702431 L600.564,33.0702431 L600.564,37.4862431 C603.06,33.9022431 606.196,32.1742431 609.908,32.1742431 Z M663.796,32.1742431 C669.108,32.1742431 673.14,33.9662431 675.828,37.5502431 C678.26,40.7502431 679.54,45.2942431 679.668,51.0542431 L653.556,51.0542431 C653.812,54.7662431 654.772,57.6462431 656.564,59.6942431 C658.356,61.7422431 660.852,62.7662431 663.988,62.7662431 C666.676,62.7662431 668.916,62.0622431 670.58,60.7182431 C671.988,59.5662431 673.076,57.8382431 673.908,55.5342431 L679.028,55.5342431 C678.26,58.7342431 676.788,61.2942431 674.548,63.3422431 C671.796,65.7742431 668.276,67.0542431 663.988,67.0542431 C659.252,67.0542431 655.412,65.4542431 652.596,62.3822431 C649.652,59.1822431 648.244,54.9582431 648.244,49.5822431 C648.244,44.7182431 649.588,40.6222431 652.404,37.3582431 C655.22,33.9022431 658.996,32.1742431 663.796,32.1742431 Z M663.924,36.4622431 C660.98,36.4622431 658.612,37.4222431 656.82,39.3422431 C655.028,41.2622431 654.004,43.8222431 653.684,47.0862431 L674.356,47.0862431 C673.716,39.9822431 670.196,36.4622431 663.924,36.4622431 Z M700.148,32.1742431 C705.204,32.1742431 708.66,34.2222431 710.516,38.4462431 C711.796,36.2702431 713.332,34.6702431 715.124,33.7102431 C716.724,32.6862431 718.644,32.1742431 720.948,32.1742431 C724.404,32.1742431 727.156,33.2622431 729.332,35.4382431 C731.38,37.6782431 732.468,40.6862431 732.468,44.4622431 L732.468,66.1582431 L727.348,66.1582431 L727.348,45.2942431 C727.348,42.3502431 726.708,40.1742431 725.492,38.7662431 C724.212,37.2302431 722.164,36.5262431 719.348,36.5262431 C717.172,36.5262431 715.316,37.2942431 713.908,38.9582431 C712.372,40.6222431 711.668,42.7342431 711.668,45.4222431 L711.668,66.1582431 L706.548,66.1582431 L706.548,45.2942431 C706.548,39.4062431 703.988,36.5262431 698.932,36.5262431 C696.564,36.5262431 694.644,37.4222431 693.108,39.3422431 C691.572,41.1342431 690.804,43.3742431 690.804,45.9982431 L690.804,66.1582431 L685.684,66.1582431 L685.684,33.0702431 L690.804,33.0702431 L690.804,37.4862431 C693.3,33.9022431 696.436,32.1742431 700.148,32.1742431 Z M740.404,19.5662431 L745.524,19.5662431 L745.524,39.1502431 C748.084,34.4782431 751.732,32.1742431 756.468,32.1742431 C761.14,32.1742431 764.852,33.9022431 767.54,37.4862431 C769.972,40.6862431 771.252,44.6542431 771.252,49.5182431 C771.252,54.5102431 769.972,58.6062431 767.54,61.8062431 C764.788,65.2622431 761.012,67.0542431 756.212,67.0542431 C751.092,67.0542431 747.444,64.9422431 745.204,60.7182431 L745.204,66.1582431 L740.404,66.1582431 L740.404,19.5662431 Z M755.38,36.3982431 C752.372,36.3982431 749.94,37.5502431 748.148,39.9822431 C746.228,42.3502431 745.332,45.4862431 745.332,49.3262431 L745.332,49.9662431 C745.332,53.6782431 746.164,56.6862431 747.828,58.9902431 C749.62,61.5502431 752.244,62.8302431 755.572,62.8302431 C759.156,62.8302431 761.844,61.4862431 763.636,58.9262431 C765.172,56.6222431 766.004,53.4862431 766.004,49.5182431 C766.004,45.5502431 765.172,42.4782431 763.508,40.2382431 C761.652,37.6782431 758.964,36.3982431 755.38,36.3982431 Z M791.54,32.1742431 C796.852,32.1742431 800.884,33.9662431 803.572,37.5502431 C806.004,40.7502431 807.284,45.2942431 807.412,51.0542431 L781.3,51.0542431 C781.556,54.7662431 782.516,57.6462431 784.308,59.6942431 C786.1,61.7422431 788.596,62.7662431 791.732,62.7662431 C794.42,62.7662431 796.66,62.0622431 798.324,60.7182431 C799.732,59.5662431 800.82,57.8382431 801.652,55.5342431 L806.772,55.5342431 C806.004,58.7342431 804.532,61.2942431 802.292,63.3422431 C799.54,65.7742431 796.02,67.0542431 791.732,67.0542431 C786.996,67.0542431 783.156,65.4542431 780.34,62.3822431 C777.396,59.1822431 775.988,54.9582431 775.988,49.5822431 C775.988,44.7182431 777.332,40.6222431 780.148,37.3582431 C782.964,33.9022431 786.74,32.1742431 791.54,32.1742431 Z M791.668,36.4622431 C788.724,36.4622431 786.356,37.4222431 784.564,39.3422431 C782.772,41.2622431 781.748,43.8222431 781.428,47.0862431 L802.1,47.0862431 C801.46,39.9822431 797.94,36.4622431 791.668,36.4622431 Z M827.956,32.1742431 C829.748,32.1742431 831.284,32.4302431 832.5,32.9422431 L832.5,38.0622431 C830.836,37.5502431 829.172,37.3582431 827.572,37.3582431 C825.012,37.3582431 822.836,38.4462431 821.108,40.7502431 C819.316,42.9262431 818.484,45.5502431 818.484,48.6222431 L818.484,66.1582431 L813.428,66.1582431 L813.428,33.0702431 L818.484,33.0702431 L818.484,38.8302431 C819.38,36.9102431 820.532,35.3742431 821.94,34.2862431 C823.668,32.8782431 825.652,32.1742431 827.956,32.1742431 Z M848.5,32.1742431 C856.692,32.1742431 861.172,35.5662431 862.068,42.4782431 L857.076,42.4782431 C856.628,40.4302431 855.796,38.8942431 854.516,37.9982431 C853.108,36.9742431 851.06,36.4622431 848.436,36.4622431 C846.132,36.4622431 844.34,36.8462431 843.06,37.7422431 C841.652,38.5742431 840.948,39.7262431 840.948,41.1982431 C840.948,42.6062431 841.844,43.8222431 843.764,44.7822431 C844.98,45.3582431 847.284,46.0622431 850.612,46.9582431 C854.58,47.9182431 857.396,48.9422431 859.124,50.0302431 C861.748,51.6942431 863.092,53.9342431 863.092,56.8142431 C863.092,63.5982431 858.42,67.0542431 849.076,67.0542431 C840.372,67.0542431 835.636,63.2142431 834.868,55.5982431 L839.86,55.5982431 C840.244,58.2222431 841.204,60.0782431 842.612,61.2302431 C844.02,62.2542431 846.132,62.7662431 848.948,62.7662431 C854.836,62.7662431 857.844,60.8462431 857.844,57.1342431 C857.844,55.2782431 856.756,53.8702431 854.708,52.8462431 C853.62,52.3342431 851.252,51.6302431 847.668,50.7342431 C843.764,49.7742431 841.012,48.8142431 839.476,47.7902431 C836.916,46.2542431 835.7,44.1422431 835.7,41.3262431 C835.7,38.5102431 836.916,36.3342431 839.412,34.6702431 C841.716,33.0062431 844.788,32.1742431 848.5,32.1742431 Z"/>
  </defs>
  <g fill="none" fill-rule="evenodd" transform="translate(5 -19)">
    <rect width="304" height="352" x="32" y="135" fill="#6BD1E1" rx="8"/>
    <rect width="128" height="76" x="48" y="303" fill="#1B9CB0" fill-opacity=".8" rx="8"/>
    <g fill="#FFF">
      <use xlink:href="#team-a"/>
      <use xlink:href="#team-a"/>
    </g>
    <rect width="128" height="76" x="192" y="303" fill="#1B9CB0" fill-opacity=".8" rx="8"/>
    <g fill="#FFF">
      <use xlink:href="#team-b"/>
      <use xlink:href="#team-b"/>
    </g>
    <g transform="translate(48 211)">
      <rect width="128" height="76" fill="#1B9CB0" fill-opacity=".8" rx="8"/>
      <text fill="#FFF" font-family="PingFangSC-Regular, PingFang SC" font-size="24">
        <tspan x="36.028" y="25">Wind</tspan>
      </text>
    </g>
    <use fill="#FFF" xlink:href="#team-c"/>
    <use fill="#157D8D" xlink:href="#team-c"/>
    <rect width="128" height="76" x="48" y="395" fill="#1B9CB0" fill-opacity=".8" rx="8"/>
    <g fill="#FFF">
      <use xlink:href="#team-d"/>
      <use xlink:href="#team-d"/>
    </g>
    <rect width="128" height="76" x="192" y="211" fill="#1B9CB0" fill-opacity=".8" rx="8"/>
    <g fill="#FFF">
      <use xlink:href="#team-e"/>
      <use xlink:href="#team-e"/>
    </g>
    <rect width="304" height="168" x="367" y="135" fill="#6BD1E1" rx="8"/>
    <rect width="128" height="76" x="383" y="211" fill="#1B9CB0" fill-opacity=".8" rx="8"/>
    <g fill="#FFF">
      <use xlink:href="#team-f"/>
      <use xlink:href="#team-f"/>
    </g>
    <rect width="170" height="76" x="702" y="135" fill="#A3C644" rx="8"/>
    <g fill="#FFF">
      <use xlink:href="#team-g"/>
      <use xlink:href="#team-g"/>
    </g>
    <rect width="170" height="76" x="702" y="227" fill="#A3C644" rx="8"/>
    <g fill="#FFF">
      <use xlink:href="#team-h"/>
      <use xlink:href="#team-h"/>
    </g>
    <rect width="170" height="76" x="702" y="319" fill="#A3C644" rx="8"/>
    <g fill="#FFF">
      <use xlink:href="#team-i"/>
      <use xlink:href="#team-i"/>
    </g>
    <rect width="170" height="76" x="702" y="411" fill="#A3C644" rx="8"/>
    <g fill="#FFF">
      <use xlink:href="#team-j"/>
      <use xlink:href="#team-j"/>
    </g>
    <rect width="170" height="76" x="892" y="135" fill="#A3C644" rx="8"/>
    <g fill="#FFF">
      <use xlink:href="#team-k"/>
      <use xlink:href="#team-k"/>
    </g>
    <rect width="170" height="76" x="892" y="227" fill="#A3C644" rx="8"/>
    <g fill="#FFF">
      <use xlink:href="#team-l"/>
      <use xlink:href="#team-l"/>
    </g>
    <rect width="170" height="76" x="888" y="319" fill="#A3C644" rx="8"/>
    <g fill="#FFF">
      <use xlink:href="#team-m"/>
      <use xlink:href="#team-m"/>
    </g>
    <rect width="128" height="76" x="527" y="211" fill="#1B9CB0" fill-opacity=".8" rx="8"/>
    <use fill="#FFF" xlink:href="#team-n"/>
    <use fill="#157D8D" xlink:href="#team-n"/>
    <g fill="#FFF">
      <use xlink:href="#team-o"/>
      <use xlink:href="#team-o"/>
    </g>
    <rect width="304" height="168" x="368" y="319" fill="#D893A3" rx="8"/>
    <rect width="128" height="76" x="384" y="395" fill="#B22746" fill-opacity=".8" rx="8"/>
    <g fill="#FFF">
      <use xlink:href="#team-p"/>
      <use xlink:href="#team-p"/>
    </g>
    <rect width="128" height="76" x="528" y="395" fill="#B22746" fill-opacity=".8" rx="8"/>
    <use fill="#FFF" xlink:href="#team-q"/>
    <use fill="#8F1F38" xlink:href="#team-q"/>
    <g fill="#FFF">
      <use xlink:href="#team-r"/>
      <use xlink:href="#team-r"/>
    </g>
    <polyline stroke="#157D8D" stroke-width="10" points=".027 266 .027 100.158 1096.933 100.158 1096.933 266"/>
    <g>
      <use fill="#FFF" xlink:href="#team-s"/>
      <use fill="#157D8D" xlink:href="#team-s"/>
    </g>
  </g>
</svg>
